<svg
  xmlns="http://www.w3.org/2000/svg"
  viewBox="0 0 76 57"
  fill="none"
  stroke="currentColor"
  stroke-width="3"
  stroke-linecap="round"
>
  <path d="M2.27832 55.1408C3.11202 46.8038 13.5281 37.2165 18.8596 31.2186C20.9104 28.9114 23.037 26.6583 25.1738 24.4423C27.8765 21.6395 31.1404 20.5374 33.9008 17.9741C39.896 12.4071 51.2223 11.4651 59.0551 10.8385C63.4902 10.4837 67.8569 10.1525 71.5809 12.6352" />
  <path d="M64.1887 2.47064C64.1887 0.243748 66.817 6.30026 68.8088 7.29616C70.555 8.16926 75.3305 10.4707 73.3263 12.2243C67.6508 17.1905 60.3986 19.2912 56.7964 26.4955" />
  <path d="M64.1887 2.47064C64.1887 0.243748 66.817 6.30026 68.8088 7.29616C70.555 8.16926 75.3305 10.4707 73.3263 12.2243C67.6508 17.1905 60.3986 19.2912 56.7964 26.4955" />
  <path d="M2.27832 55.1408C3.11202 46.8038 13.5281 37.2165 18.8596 31.2186C20.9104 28.9114 23.037 26.6583 25.1738 24.4423C27.8765 21.6395 31.1404 20.5374 33.9008 17.9741C39.896 12.4071 51.2223 11.4651 59.0551 10.8385C63.4902 10.4837 67.8569 10.1525 71.5809 12.6352" />
</svg>
