<svg width="127" height="56" viewBox="0 0 127 56" stroke="currentColor" stroke-width="3" stroke-linecap="round" fill="none" xmlns="http://www.w3.org/2000/svg">
  <path d="M2.07129 54.0647C2.45634 47.5188 9.62533 42.4549 13.7757 38.1508C17.1668 34.6341 20.3766 31.1392 23.8374 27.6784C31.1818 20.334 43.4627 13.8088 53.3552 11.6105C63.7411 9.30247 68.8028 12.8249 75.07 19.8754C81.5566 27.1729 74.7672 42.1346 67.6777 46.4671C62.8169 49.4376 51.1954 52.1999 49.2484 43.4383C46.9155 32.9402 55.3157 26.3771 64.3923 23.1096C72.9556 20.0267 80.8425 17.0334 89.8032 14.7932C95.1395 13.4592 100.093 13.4072 105.563 13.4072C112.271 13.4072 118.139 13.227 124.044 16.1793" />
  <path d="M111.107 2.31885C111.897 6.26969 118.28 8.51205 120.348 11.0972C121.582 12.6399 127.223 14.5613 124.044 15.974C121.567 17.0748 118.245 16.1132 115.522 17.1034C112.681 18.1366 110.484 18.8868 107.873 20.3375C105.39 21.7168 104.605 25.4368 102.791 26.3437" />
</svg>
