<svg width="58" height="51" viewBox="0 0 58 51" stroke="currentColor" stroke-width="3" stroke-linecap="round" fill="none" xmlns="http://www.w3.org/2000/svg">
<path d="M11.3256 25.1919C11.3256 32.583 6.47426 35.9213 3.52267 41.8245C2.84543 43.179 0.813777 45.4597 3.00931 45.5206C6.86551 45.6278 11.2411 44.8173 14.9704 45.9827C17.889 46.8947 19.7274 47.8735 22.414 49.2168" />
<path d="M3.93359 40.9003C11.7441 40.9003 17.2393 39.2783 24.2623 35.7667C30.4404 32.6777 44.6233 27.3278 47.5685 20.3662C50.3416 13.8117 55.6795 9.71668 55.6795 2.09082" />
<path d="M3.93359 40.9003C11.7441 40.9003 17.2393 39.2783 24.2623 35.7667C30.4404 32.6777 44.6233 27.3278 47.5685 20.3662C50.3416 13.8117 55.6795 9.71668 55.6795 2.09082" />
<path d="M11.3256 25.1919C11.3256 32.583 6.47426 35.9213 3.52267 41.8245C2.84543 43.179 0.813777 45.4597 3.00931 45.5206C6.86551 45.6278 11.2411 44.8173 14.9704 45.9827C17.889 46.8947 19.7274 47.8735 22.414 49.2168" />
</svg>
