<svg width="65" height="49" viewBox="0 0 65 49" stroke="currentColor" stroke-width="3" stroke-linecap="round" fill="none" xmlns="http://www.w3.org/2000/svg">
<path d="M2.73145 12.2368V42.9481" />
<path d="M4.19385 11.5056C13.5779 11.5056 22.9619 11.5056 32.3459 11.5056C33.9716 11.5056 37.0421 9.9297 37.8301 11.5056" />
<path d="M2 45.1421H41.486" />
<path d="M37.8301 12.2368V46.6043" />
<path d="M14.4307 21.743C14.4307 25.3509 17.0193 26.8412 18.6555 29.7864C20.6559 33.3872 25.619 28.9885 27.6739 27.5115C37.5213 20.4337 47.0957 13.0614 56.6791 5.65611C58.3722 4.34777 60.6992 2.66403 62.6913 2" />
<path d="M14.4307 21.743C14.4307 25.3509 17.0193 26.8412 18.6555 29.7864C20.6559 33.3872 25.619 28.9885 27.6739 27.5115C37.5213 20.4337 47.0957 13.0614 56.6791 5.65611C58.3722 4.34777 60.6992 2.66403 62.6913 2" />
<path d="M4.19385 11.5056C13.5779 11.5056 22.9619 11.5056 32.3459 11.5056C33.9716 11.5056 37.0421 9.9297 37.8301 11.5056" />
<path d="M2.73145 12.2368V42.9481" />
<path d="M37.8301 12.2368V46.6043" />
<path d="M2 45.1421H41.486" />
</svg>
