<svg width="54" height="68" viewBox="0 0 54 68" stroke="currentColor" stroke-width="3" stroke-linecap="round" fill="none" xmlns="http://www.w3.org/2000/svg">
<path d="M3.48686 63.6483C3.48686 56.5454 3.30074 49.4972 4.17746 42.4835C4.79176 37.569 7.16646 33.0483 7.91481 28.184C8.73366 22.8615 12.0269 17.246 14.2927 12.4627C16.2158 8.40288 19.8264 3.88146 24.8548 3.68806C28.8572 3.53412 35.913 1.22838 39.6824 3.32245C44.611 6.0606 46.2888 11.2202 49.1476 15.7126C54.9934 24.8988 51.2911 39.6517 49.5132 49.4301C48.699 53.9084 47.6276 58.3711 47.3602 62.9171C47.1054 67.2483 38.5783 59.2537 37.8543 58.5297C36.6926 57.3681 35.5649 56.3809 34.7669 54.8736C33.6558 52.7749 33.1638 55.273 32.3701 56.7017C31.4939 58.2789 30.6256 61.7883 29.0796 62.7546C27.7581 63.5805 26.978 59.6171 25.7485 58.1641C22.8254 54.7096 21.4471 49.1617 18.2738 54.8736C17.4332 56.3867 16.0048 57.5038 15.1864 58.936C13.6089 61.6966 13.5551 56.6734 12.8303 55.7673C12.45 55.2921 11.4061 52.5661 10.8397 54.5486C10.2898 56.4733 10.0093 57.6816 8.60541 59.2609C6.44955 61.6863 5.10031 64.304 2.02441 65.8419" />
<path d="M23.23 17.581C23.23 20.4234 23.4839 23.4308 26.8861 23.4308C28.9184 23.4308 29.2041 23.6996 29.9735 21.9684C30.284 21.2698 31.2404 18.6312 31.6391 18.3122C34.3513 16.1425 29.8134 11.9338 27.2517 12.5031C25.0898 12.9835 21.7676 18.3838 21.7676 20.5059" />
<path d="M41.5107 16.8501C36.049 16.8501 29.1591 27.8184 37.489 27.8184C41.2351 27.8184 42.9083 27.2612 43.6638 23.1061C44.2598 19.8278 43.562 18.2414 40.7795 16.8501" />
<path d="M29.0802 30.7429C28.0146 31.9417 25.0724 41.9684 28.674 40.9394C30.1152 40.5276 30.5426 31.5993 30.5426 30.0117" />
<path d="M3.48686 63.6483C3.48686 56.5454 3.30074 49.4972 4.17746 42.4835C4.79176 37.569 7.16646 33.0483 7.91481 28.184C8.73366 22.8615 12.0269 17.246 14.2927 12.4627C16.2158 8.40288 19.8264 3.88146 24.8548 3.68806C28.8572 3.53412 35.913 1.22838 39.6824 3.32245C44.611 6.0606 46.2888 11.2202 49.1476 15.7126C54.9934 24.8988 51.2911 39.6517 49.5132 49.4301C48.699 53.9084 47.6276 58.3711 47.3602 62.9171C47.1054 67.2483 38.5783 59.2537 37.8543 58.5297C36.6926 57.3681 35.5649 56.3809 34.7669 54.8736C33.6558 52.7749 33.1638 55.273 32.3701 56.7017C31.4939 58.2789 30.6256 61.7883 29.0796 62.7546C27.7581 63.5805 26.978 59.6171 25.7485 58.1641C22.8254 54.7096 21.4471 49.1617 18.2738 54.8736C17.4332 56.3867 16.0048 57.5038 15.1864 58.936C13.6089 61.6966 13.5551 56.6734 12.8303 55.7673C12.45 55.2921 11.4061 52.5661 10.8397 54.5486C10.2898 56.4733 10.0093 57.6816 8.60541 59.2609C6.44955 61.6863 5.10031 64.304 2.02441 65.8419" />
<path d="M23.23 17.581C23.23 20.4234 23.4839 23.4308 26.8861 23.4308C28.9184 23.4308 29.2041 23.6996 29.9735 21.9684C30.284 21.2698 31.2404 18.6312 31.6391 18.3122C34.3513 16.1425 29.8134 11.9338 27.2517 12.5031C25.0898 12.9835 21.7676 18.3838 21.7676 20.5059" />
<path d="M41.5107 16.8501C36.049 16.8501 29.1591 27.8184 37.489 27.8184C41.2351 27.8184 42.9083 27.2612 43.6638 23.1061C44.2598 19.8278 43.562 18.2414 40.7795 16.8501" />
<path d="M29.0802 30.7429C28.0146 31.9417 25.0724 41.9684 28.674 40.9394C30.1152 40.5276 30.5426 31.5993 30.5426 30.0117" />
</svg>
