<svg width="72" height="42" viewBox="0 0 72 42" stroke="currentColor" stroke-width="3" stroke-linecap="round" fill="none" xmlns="http://www.w3.org/2000/svg">
<path d="M4.77246 9.39222C4.77246 14.8966 8.49131 22.7396 11.9594 14.9364C13.8014 10.7919 6.24378 7.3736 4.77246 10.3162" />
<path d="M36.1896 2C31.3163 2 25.3355 8.46824 32.9554 8.46824C35.9382 8.46824 45.8563 2.92403 38.0376 2.92403" />
<path d="M2 35.2653C11.6693 39.8156 27.5245 41.1148 37.986 38.4994C45.4961 36.6219 52.626 35.4418 58.7768 30.0291C62.8842 26.4146 65.2078 20.8163 66.6824 15.6552C67.648 12.2756 67.9973 6.22942 70.3785 3.84814" />
<path d="M36.1896 2C31.3163 2 25.3355 8.46824 32.9554 8.46824C35.9382 8.46824 45.8563 2.92403 38.0376 2.92403" />
<path d="M2 35.2653C11.6693 39.8156 27.5245 41.1148 37.986 38.4994C45.4961 36.6219 52.626 35.4418 58.7768 30.0291C62.8842 26.4146 65.2078 20.8163 66.6824 15.6552C67.648 12.2756 67.9973 6.22942 70.3785 3.84814" />
<path d="M4.77246 9.39222C4.77246 14.8966 8.49131 22.7396 11.9594 14.9364C13.8014 10.7919 6.24378 7.3736 4.77246 10.3162" />
</svg>
