<svg width="65" height="62" viewBox="0 0 65 62" stroke="currentColor" stroke-width="3" stroke-linecap="round" fill="none" xmlns="http://www.w3.org/2000/svg">
<path d="M12.3402 56.8367C6.18989 44.5362 2.17578 31.3218 2.17578 17.5653C2.17578 9.4839 10.4735 2.31868 18.8084 2.31868C22.5409 2.31868 25.9617 1.32745 27.8434 5.09079C29.6025 8.60906 28.9728 12.7566 28.9728 16.6412C28.9728 18.6981 26.1969 25.428 28.0487 21.2614C29.8959 17.1053 33.3663 14.6498 37.2891 12.6884C40.709 10.9784 44.5507 9.71096 48.3775 9.71096C53.3522 9.71096 55.128 11.163 59.0552 13.4071C67.4409 18.1989 60.7149 27.9084 54.8457 31.1691C51.0021 33.3044 47.6784 36.383 43.7573 38.5614C39.1932 41.097 34.3457 44.2744 29.8968 47.1343C26.1844 49.5209 22.1879 51.4684 18.3464 53.6026C15.5171 55.1744 13.1839 58.2629 10.4921 59.6088" />
<path d="M12.3402 56.8367C6.18989 44.5362 2.17578 31.3218 2.17578 17.5653C2.17578 9.4839 10.4735 2.31868 18.8084 2.31868C22.5409 2.31868 25.9617 1.32745 27.8434 5.09079C29.6025 8.60906 28.9728 12.7566 28.9728 16.6412C28.9728 18.6981 26.1969 25.428 28.0487 21.2614C29.8959 17.1053 33.3663 14.6498 37.2891 12.6884C40.709 10.9784 44.5507 9.71096 48.3775 9.71096C53.3522 9.71096 55.128 11.163 59.0552 13.4071C67.4409 18.1989 60.7149 27.9084 54.8457 31.1691C51.0021 33.3044 47.6784 36.383 43.7573 38.5614C39.1932 41.097 34.3457 44.2744 29.8968 47.1343C26.1844 49.5209 22.1879 51.4684 18.3464 53.6026C15.5171 55.1744 13.1839 58.2629 10.4921 59.6088" />
</svg>
