<svg width="83" height="55" viewBox="0 0 83 55" stroke="currentColor" stroke-width="3" stroke-linecap="round" fill="none" xmlns="http://www.w3.org/2000/svg">
<path d="M2.31543 3.99996C7.3167 3.79991 11.8301 0.586678 16.9399 2.21252C21.1527 3.55298 25.9897 5.62846 25.7145 10.581C25.415 15.9733 15.2353 14.9054 12.5525 18.2588C9.6659 21.8671 14.7462 27.7635 14.7462 31.7864" />
<path d="M14.0151 40.5612C14.0151 40.2426 15.0606 41.3599 16.2088 41.2924C16.5571 41.2719 18.7634 40.2003 17.6712 41.2924" />
<path d="M42.5327 6.92528C46.4045 6.92528 48.0156 6.73887 50.9011 8.38773C53.3648 9.79553 51.8454 14.9978 50.6168 16.4312C49.078 18.2265 48.428 20.5268 46.1888 21.7122C43.8421 22.9546 49.5477 26.0738 50.5762 28.1307" />
<path d="M50.5762 37.6362C51.5351 37.6362 52.6565 38.3108 51.3074 37.6362" />
<path d="M68.1255 15.6998C70.5816 15.6998 75.5372 14.7246 77.2658 16.8373C79.5501 19.6292 80.5563 23.1383 80.5563 26.6682C80.5563 30.7299 77.1048 35.2382 74.3409 38.0021C72.3994 39.9436 73.9753 41.254 73.9753 43.4863" />
<path d="M76.9004 52.992C76.9004 52.0096 77.2337 51.5942 77.6316 50.7983" />
<path d="M2.31543 3.99996C7.3167 3.79991 11.8301 0.586678 16.9399 2.21252C21.1527 3.55298 25.9897 5.62846 25.7145 10.581C25.415 15.9733 15.2353 14.9054 12.5525 18.2588C9.6659 21.8671 14.7462 27.7635 14.7462 31.7864" />
<path d="M42.5327 6.92528C46.4045 6.92528 48.0156 6.73887 50.9011 8.38773C53.3648 9.79553 51.8454 14.9978 50.6168 16.4312C49.078 18.2265 48.428 20.5268 46.1888 21.7122C43.8421 22.9546 49.5477 26.0738 50.5762 28.1307" />
<path d="M68.1255 15.6998C70.5816 15.6998 75.5372 14.7246 77.2658 16.8373C79.5501 19.6292 80.5563 23.1383 80.5563 26.6682C80.5563 30.7299 77.1048 35.2382 74.3409 38.0021C72.3994 39.9436 73.9753 41.254 73.9753 43.4863" />
<path d="M50.5762 37.6362C51.5351 37.6362 52.6565 38.3108 51.3074 37.6362" />
<path d="M14.0151 40.5612C14.0151 40.2426 15.0606 41.3599 16.2088 41.2924C16.5571 41.2719 18.7634 40.2003 17.6712 41.2924" />
<path d="M76.9004 52.992C76.9004 52.0096 77.2337 51.5942 77.6316 50.7983" />
</svg>
