<svg width="80" height="55" viewBox="0 0 80 55" stroke="currentColor" stroke-width="3" stroke-linecap="round" fill="none" xmlns="http://www.w3.org/2000/svg">
<path d="M28.6712 21.7429C24.7893 14.4104 10.3774 14.2172 5.67829 21.0523C2.25793 26.0274 1.61595 29.8892 1.61595 35.9611C1.61595 42.2671 1.07803 45.5008 6.36889 49.1637C17.386 56.791 38.4212 53.1838 41.6707 38.561C42.87 33.1642 37.3557 26.171 34.196 22.1085C32.1573 19.4874 29.6718 19.7288 27.2087 18.0868" />
<path d="M21.3594 30.5177C26.654 30.8118 29.1132 36.3055 32.3277 39.6986C32.9244 40.3284 33.4446 41.5269 34.237 40.5517C37.3499 36.7203 40.0797 32.7008 43.4585 29.0552C51.8467 20.0049 61.0888 11.5167 71.6512 5.08738C73.5756 3.916 79.9164 2 77.6635 2" />
<path d="M21.3594 30.5177C26.654 30.8118 29.1132 36.3055 32.3277 39.6986C32.9244 40.3284 33.4446 41.5269 34.237 40.5517C37.3499 36.7203 40.0797 32.7008 43.4585 29.0552C51.8467 20.0049 61.0888 11.5167 71.6512 5.08738C73.5756 3.916 79.9164 2 77.6635 2" />
<path d="M28.6712 21.7429C24.7893 14.4104 10.3774 14.2172 5.67829 21.0523C2.25793 26.0274 1.61595 29.8892 1.61595 35.9611C1.61595 42.2671 1.07803 45.5008 6.36889 49.1637C17.386 56.791 38.4212 53.1838 41.6707 38.561C42.87 33.1642 37.3557 26.171 34.196 22.1085C32.1573 19.4874 29.6718 19.7288 27.2087 18.0868" />
</svg>
