<svg width="125" height="48" viewBox="0 0 125 48" stroke="currentColor" stroke-width="3" stroke-linecap="round" fill="none" xmlns="http://www.w3.org/2000/svg">
<path d="M2 19.2226C2 18.2603 2 21.1429 2 21.6194C2 27.341 2.16473 10.0894 3.46244 4.51692C4.38999 0.533949 5.92539 1.80784 8.45913 4.67941C17.2682 14.663 21.4048 27.8721 27.4303 39.5343C28.3467 41.3081 28.9203 43.5384 29.9489 45.2216C29.9669 45.251 30.8982 37.3718 30.9239 37.0157C31.0718 34.9668 30.7163 19.5296 33.7675 20.1163C38.1653 20.962 41.1816 26.8073 45.914 26.413C50.6044 26.0221 53.2735 18.1661 54.4855 14.429C55.1705 12.3169 59.1269 19.3194 59.6853 20.1569C61.874 23.44 61.1511 19.9181 63.0164 19.3851C64.6816 18.9093 66.7858 21.6585 67.5663 22.5537C72.7871 28.5424 77.4457 34.9884 83.3282 40.3874C86.258 43.0764 89.5525 45.1791 93.5653 45.7091C98.4484 46.354 98.1638 40.7128 98.3588 37.1782C98.8746 27.8305 94.7626 23.9036 85.5218 23.4068C78.8576 23.0485 59.3142 28.1573 65.6976 26.2098C77.7846 22.5223 89.7145 16.5287 101.365 11.6666C108.443 8.71303 115.791 5.83506 122.652 2.4045" />
<path d="M2 19.2226C2 18.2603 2 21.1429 2 21.6194C2 27.341 2.16473 10.0894 3.46244 4.51692C4.38999 0.533949 5.92539 1.80784 8.45913 4.67941C17.2682 14.663 21.4048 27.8721 27.4303 39.5343C28.3467 41.3081 28.9203 43.5384 29.9489 45.2216C29.9669 45.251 30.8982 37.3718 30.9239 37.0157C31.0718 34.9668 30.7163 19.5296 33.7675 20.1163C38.1653 20.962 41.1816 26.8073 45.914 26.413C50.6044 26.0221 53.2735 18.1661 54.4855 14.429C55.1705 12.3169 59.1269 19.3194 59.6853 20.1569C61.874 23.44 61.1511 19.9181 63.0164 19.3851C64.6816 18.9093 66.7858 21.6585 67.5663 22.5537C72.7871 28.5424 77.4457 34.9884 83.3282 40.3874C86.258 43.0764 89.5525 45.1791 93.5653 45.7091C98.4484 46.354 98.1638 40.7128 98.3588 37.1782C98.8746 27.8305 94.7626 23.9036 85.5218 23.4068C78.8576 23.0485 59.3142 28.1573 65.6976 26.2098C77.7846 22.5223 89.7145 16.5287 101.365 11.6666C108.443 8.71303 115.791 5.83506 122.652 2.4045" />
</svg>
