<svg width="102" height="37" viewBox="0 0 102 37" stroke="currentColor" stroke-width="3" stroke-linecap="round" fill="none" xmlns="http://www.w3.org/2000/svg">
<path d="M2.08186 31.7433C2.08186 38.1296 1.46424 18.6573 3.62192 12.6466C5.2233 8.18564 8.37442 1.46474 14.2996 3.3036C20.5432 5.24127 24.3552 15.5468 27.7495 20.4496C30.3862 24.2581 37.3636 37.6598 43.6121 34.9261C47.8396 33.0766 50.2143 21.8917 51.877 18.1908C54.0906 13.264 56.8311 8.83729 59.68 4.27897C61.0205 2.13422 63.1311 1.50868 65.6349 2.37957C78.047 6.69684 88.731 16.2448 100.029 4.94633" />
<path d="M2.08186 31.7433C2.08186 38.1296 1.46424 18.6573 3.62192 12.6466C5.2233 8.18564 8.37442 1.46474 14.2996 3.3036C20.5432 5.24127 24.3552 15.5468 27.7495 20.4496C30.3862 24.2581 37.3636 37.6598 43.6121 34.9261C47.8396 33.0766 50.2143 21.8917 51.877 18.1908C54.0906 13.264 56.8311 8.83729 59.68 4.27897C61.0205 2.13422 63.1311 1.50868 65.6349 2.37957C78.047 6.69684 88.731 16.2448 100.029 4.94633" />
</svg>
