<svg width="70" height="59" viewBox="0 0 70 59" stroke="currentColor" stroke-width="3" stroke-linecap="round" fill="none" xmlns="http://www.w3.org/2000/svg">
<path d="M44.9624 5.61275C41.8259 5.61275 38.7178 4.16721 35.8221 3.05347C33.0181 1.97501 27.3904 2.33809 24.5288 3.05347C21.9758 3.69173 19.1818 3.97258 16.851 5.20652C12.9854 7.25302 10.7626 11.1822 7.83258 14.2249C3.47463 18.7505 1.82031 26.5667 1.82031 32.668C1.82031 42.6924 9.95252 48.2953 17.9072 53.5484C30.2929 61.7276 42.8844 53.7577 51.9497 44.6925C57.4683 39.1739 63.5061 33.6519 66.1679 26.087C67.1565 23.2772 68.8813 18.0956 67.3053 15.1186C65.5422 11.7883 60.7601 10.6796 57.7994 8.90325C56.305 8.00661 53.7021 6.34397 51.909 6.34397C48.2143 6.34397 44.9627 5.61275 41.3063 5.61275" />
<path d="M9.86328 29.0117H23.7565" />
<path d="M33.9941 11.4624V42.1737" />
<path d="M43.5 30.4742C43.5 27.4763 48.3431 25.576 50.2435 24.0557C53.3795 21.5469 57.3932 27.2481 57.3932 29.743" />
<path d="M44.9624 5.61275C41.8259 5.61275 38.7178 4.16721 35.8221 3.05347C33.0181 1.97501 27.3904 2.33809 24.5288 3.05347C21.9758 3.69173 19.1818 3.97258 16.851 5.20652C12.9854 7.25302 10.7626 11.1822 7.83258 14.2249C3.47463 18.7505 1.82031 26.5667 1.82031 32.668C1.82031 42.6924 9.95252 48.2953 17.9072 53.5484C30.2929 61.7276 42.8844 53.7577 51.9497 44.6925C57.4683 39.1739 63.5061 33.6519 66.1679 26.087C67.1565 23.2772 68.8813 18.0956 67.3053 15.1186C65.5422 11.7883 60.7601 10.6796 57.7994 8.90325C56.305 8.00661 53.7021 6.34397 51.909 6.34397C48.2143 6.34397 44.9627 5.61275 41.3063 5.61275" />
<path d="M33.9941 11.4624V42.1737" />
<path d="M43.5 30.4742C43.5 27.4763 48.3431 25.576 50.2435 24.0557C53.3795 21.5469 57.3932 27.2481 57.3932 29.743" />
<path d="M9.86328 29.0117H23.7565" />
</svg>
