<svg width="60" height="56" viewBox="0 0 60 56" stroke="currentColor" stroke-width="3" stroke-linecap="round" fill="none" xmlns="http://www.w3.org/2000/svg">
<path d="M47.8313 8.51658C39.9944 7.80413 33.5883 2.04834 25.2438 2.04834C17.556 2.04834 9.6605 7.0387 6.24978 14.0608C-0.328229 27.6037 0.671486 46.2204 16.6195 51.7408C32.3306 57.1793 52.3661 55.3637 56.8663 36.2376C59.2755 25.9987 58.6402 5.74448 45.0592 5.74448" />
<path d="M29.3506 12.2129V40.858" />
<path d="M10.8701 27.9214H19.1864" />
<path d="M37.8896 28.2336C37.8896 26.1006 42.2548 24.4102 43.9725 24.4102C47.1932 24.4102 49.5935 24.877 51.098 27.886" stroke="white" stroke-width="3" stroke-linecap="round"/>
<path d="M37.8896 27.5386H46.2318" />
<path d="M47.8313 8.51658C39.9944 7.80413 33.5883 2.04834 25.2438 2.04834C17.556 2.04834 9.6605 7.0387 6.24978 14.0608C-0.328229 27.6037 0.671486 46.2204 16.6195 51.7408C32.3306 57.1793 52.3661 55.3637 56.8663 36.2376C59.2755 25.9987 58.6402 5.74448 45.0592 5.74448" />
<path d="M29.3506 12.2129V40.858" />
<path d="M37.8896 28.2336C37.8896 26.1006 42.2548 24.4102 43.9725 24.4102C47.1932 24.4102 49.5935 24.877 51.098 27.886" stroke="white" stroke-width="3" stroke-linecap="round"/>
<path d="M37.8896 27.5386H46.2318" />
<path d="M10.8701 27.9214H19.1864" />
</svg>
