<svg
  xmlns="http://www.w3.org/2000/svg"
  viewBox="0 0 252 220"
  stroke="none"
  fill="currentColor"
  fill-rule="evenodd"
>
  <path d="
    M 124.361 16.750 C 124.044 17.712, 121.749 22.696, 119.261 27.825 L 114.737 37.150 112.368 38.050 L 110 38.950 109.986 42.225 C 109.951 50.686, 107.805 51.758, 99.419 47.504 C 96.714 46.131, 93.881 45.006, 93.125 45.004 L 91.750 45 92.440 48.250 C 94.575 58.310, 97.982 80.099, 97.990 83.750 L 98 88 96.575 88 C 95.327 88, 86.008 74.097, 85.995 72.215 C 85.992 71.822, 84.933 70.179, 83.640 68.563 L 81.291 65.627 79.645 68.313 C 78.740 69.791, 77.315 72.125, 76.477 73.500 C 74.454 76.820, 71.814 76.653, 67.583 72.939 L 64.097 69.878 62.161 70.914 L 60.226 71.949 54.863 70.526 C 51.913 69.744, 46.602 67.955, 43.060 66.552 C 33.842 62.899, 33.632 63.026, 36.936 70.261 C 38.001 72.592, 40.066 77.394, 41.525 80.931 L 44.178 87.362 43.588 90.309 L 42.999 93.256 46.603 97.246 L 50.208 101.236 48.354 103.054 C 47.334 104.053, 44.111 105.688, 41.191 106.685 C 34.288 109.045, 34.358 109.700, 42.048 114.671 C 45.596 116.966, 51.650 121.138, 55.500 123.944 C 59.350 126.750, 64.412 130.388, 66.750 132.029 C 71.925 135.662, 72.059 137.183, 67.453 140.029 C 65.503 141.234, 60.538 145.546, 56.421 149.610 C 52.303 153.675, 48.499 157, 47.967 157 C 43.368 157, 48.287 159.857, 54.750 160.939 C 65.181 162.686, 66.170 162.809, 76.250 163.606 L 85 164.297 85 166.482 C 85 167.683, 84.486 171.227, 83.857 174.357 C 83.229 177.487, 82.941 180.274, 83.218 180.551 C 84.338 181.671, 107.212 169.875, 114.104 164.624 C 118.164 161.531, 121.847 159, 122.289 159 C 123.192 159, 122.494 174.132, 120.856 190.099 L 119.768 200.698 120.919 202.849 L 122.070 205 125.380 205 C 127.364 205, 129.380 204.237, 130.413 203.096 L 132.136 201.192 131.110 191.346 C 130.545 185.931, 129.813 176.408, 129.483 170.184 L 128.884 158.868 130.692 159.849 C 131.686 160.388, 136.282 163.568, 140.904 166.915 C 145.527 170.262, 149.680 173, 150.135 173 C 150.589 173, 154.831 174.839, 159.561 177.086 C 169.573 181.842, 169.642 181.820, 168.143 174.357 C 167.514 171.227, 167 167.616, 167 166.333 L 167 164 171.949 164 C 174.671 164, 181.534 163.132, 187.199 162.071 C 192.865 161.011, 199.436 159.842, 201.801 159.475 C 204.167 159.107, 205.967 158.443, 205.801 157.999 C 205.331 156.739, 190.046 143.796, 184.681 140.115 L 179.863 136.809 181.659 134.824 C 183.927 132.318, 198.431 123.319, 207.833 118.584 C 216.470 114.234, 216.563 113.721, 209.347 110.233 C 206.237 108.730, 203.210 106.724, 202.618 105.776 L 201.543 104.052 205.198 100.276 L 208.853 96.500 208.339 93.905 L 207.826 91.309 213.100 80.675 C 219.477 67.817, 219.754 68.175, 206.118 71.649 L 195.069 74.465 192.153 73.364 L 189.238 72.263 186.369 74.462 C 180.795 78.734, 177.143 77.314, 172.797 69.186 C 170.395 64.694, 170.191 64.859, 163.402 76.786 C 160.048 82.679, 156.560 87.645, 155.652 87.823 L 154 88.147 154 83.751 C 154 80.057, 157.583 57.158, 159.634 47.750 C 160.374 44.355, 159.644 44.327, 152.849 47.490 C 143.999 51.610, 142.050 50.697, 142.014 42.411 L 142 39.321 139.588 38.222 L 137.176 37.123 131.838 26.073 C 126.434 14.885, 125.400 13.595, 124.361 16.750
    M 123.451 30.250 C 122.432 32.587, 120.339 36.140, 118.799 38.144 C 115.231 42.789, 115.239 42.851, 120 47.500 L 124 51.406 124 49.636 C 124 48.663, 122.875 46.392, 121.500 44.589 C 118.545 40.715, 118.170 38.423, 121.058 41.892 C 123.775 45.154, 124.828 43.672, 122.543 39.803 L 120.690 36.667 122.283 37.278 C 123.290 37.665, 124.039 37.267, 124.321 36.195 C 124.567 35.263, 124.820 59.587, 124.884 90.250 C 124.959 126.222, 125.351 146, 125.988 146 C 126.630 146, 126.893 126.238, 126.738 89.595 C 126.607 58.572, 126.838 33.399, 127.250 33.654 C 127.662 33.909, 128 34.977, 128 36.028 L 128 37.937 129.750 37.299 L 131.500 36.661 129.750 38.659 C 127.979 40.681, 127.364 44, 128.759 44 C 129.177 44, 130.108 43.056, 130.829 41.903 C 131.549 40.749, 132.395 40.062, 132.709 40.375 C 133.022 40.689, 132.091 42.503, 130.639 44.406 C 129.188 46.309, 128 48.663, 128 49.636 L 128 51.406 132 47.500 C 136.483 43.122, 136.791 42.026, 134.193 39.675 C 133.200 38.776, 131.092 35.331, 129.510 32.020 C 126.083 24.852, 125.836 24.779, 123.451 30.250
    M 114 47.545 C 114 48.945, 112.887 51.204, 111.527 52.564 L 109.053 55.038 105.802 54.465 L 102.550 53.892 104.949 56.446 C 107.715 59.390, 108.162 59.585, 107.362 57.500 C 106.118 54.259, 108.065 56.221, 109.500 59.654 C 110.339 61.663, 111.282 63.052, 111.594 62.739 C 111.906 62.427, 111.676 61.262, 111.081 60.151 C 109.757 57.678, 109.672 55.679, 110.924 56.453 C 111.431 56.767, 112.613 59.329, 113.549 62.148 C 115.784 68.876, 124 78.119, 124 73.904 C 124 73.302, 123.069 71.502, 121.932 69.904 C 120.794 68.307, 120.344 67, 120.932 67 C 121.519 67, 122 67.450, 122 68 C 122 68.550, 122.450 69, 123 69 C 124.983 69, 123.912 66.779, 119 60.708 C 112.564 52.754, 112.564 50.829, 119 58 L 123.936 63.500 123.968 61.405 C 123.986 60.253, 123.100 58.495, 122 57.500 C 120.900 56.505, 120 55.240, 120 54.690 C 120 54.140, 120.900 54.505, 122 55.500 C 125.668 58.820, 124.135 55.028, 119.750 49.936 C 114.922 44.330, 114 43.947, 114 47.545
    M 132.250 50.111 C 127.896 55.196, 126.414 58.746, 130 55.500 C 131.100 54.505, 132 54.140, 132 54.690 C 132 55.240, 131.100 56.505, 130 57.500 C 127.918 59.384, 127.261 63, 129 63 C 129.550 63, 130.013 62.663, 130.030 62.250 C 130.078 61.044, 137.937 52.397, 137.970 53.514 C 137.987 54.072, 135.750 57.310, 133 60.708 C 130.250 64.107, 128 67.418, 128 68.066 L 128 69.245 129.663 67.872 C 131.389 66.447, 131.347 66.681, 129.055 71.254 C 126.901 75.552, 128.662 75.736, 132.847 71.649 C 135.325 69.230, 137.256 66.030, 138.369 62.499 C 139.310 59.512, 140.561 56.771, 141.147 56.409 C 142.150 55.789, 141.852 57.510, 140.193 61.914 C 139.854 62.813, 140.086 63.065, 140.830 62.605 C 141.474 62.207, 142 61.320, 142 60.632 C 142 59.945, 142.676 58.509, 143.502 57.441 L 145.005 55.500 144.342 57.500 L 143.680 59.500 146.340 57.076 C 149.670 54.041, 149.656 53.919, 146.066 54.637 L 143.133 55.223 140.566 52.657 C 139.155 51.246, 138 48.945, 138 47.545 C 138 44.019, 137.136 44.404, 132.250 50.111
    M 98.428 54.500 C 100.151 61.181, 102.307 76.573, 102.396 82.826 L 102.500 90.153 100.536 91.593 C 98.272 93.254, 92 93.147, 92 91.449 C 92 90.820, 91.064 89.227, 89.919 87.907 C 88.775 86.588, 86.638 83.369, 85.169 80.755 C 82.079 75.252, 81.812 75.166, 78.217 78.500 C 75.180 81.316, 72.656 81.590, 69 79.500 C 65.246 77.354, 64.992 77.596, 65.584 82.750 C 66.447 90.270, 66.985 92.128, 68.097 91.440 C 68.669 91.087, 68.886 90.145, 68.580 89.347 C 68.269 88.537, 68.459 88.166, 69.011 88.507 C 69.555 88.843, 70 90.386, 70 91.937 C 70 94.625, 72.095 97.571, 73.213 96.454 C 73.504 96.163, 73.196 93.016, 72.528 89.462 C 71.860 85.908, 71.656 83, 72.074 83 C 72.981 83, 75 91.919, 75 95.927 C 75 97.482, 75.631 99.279, 76.403 99.919 L 77.806 101.083 78.279 99.792 C 78.540 99.081, 79.083 99.737, 79.485 101.250 C 79.888 102.763, 80.859 104, 81.643 104 L 83.069 104 82.384 98.837 C 82.007 95.998, 80.647 91.835, 79.362 89.587 C 78.076 87.339, 77.037 84.825, 77.052 84 C 77.067 83.175, 77.751 83.737, 78.572 85.250 C 80.071 88.014, 81.621 89.084, 80.744 86.750 C 80.486 86.063, 79.939 84.431, 79.530 83.125 L 78.786 80.750 79.893 81.434 C 80.502 81.810, 81 81.716, 81 81.226 C 81 80.735, 81.621 80.333, 82.379 80.333 C 83.229 80.333, 83.709 81.325, 83.629 82.917 C 83.558 84.338, 83.874 90.538, 84.331 96.695 L 85.161 107.889 86.739 109.195 L 88.316 110.500 87.814 102 C 87.537 97.325, 87.500 94.293, 87.731 95.262 C 87.962 96.231, 88.567 96.767, 89.076 96.453 C 89.614 96.121, 90 99.409, 90 104.319 L 90 112.755 91.464 113.970 L 92.928 115.185 93.253 104.843 L 93.578 94.500 93.789 105.595 L 94 116.690 96 118.500 L 98 120.310 98 112.398 C 98 108.047, 97.583 103.033, 97.074 101.257 C 96.564 99.480, 96.532 97.789, 97.002 97.499 C 98.395 96.638, 99.136 100.510, 99.155 108.754 C 99.165 113.014, 99.769 117.850, 100.497 119.500 C 101.225 121.150, 102.051 123.175, 102.331 124 C 102.612 124.825, 102.942 120.775, 103.064 115 L 103.286 104.500 104.106 115.913 C 104.557 122.190, 105.393 127.793, 105.963 128.363 L 107 129.400 107.151 119.950 L 107.301 110.500 107.997 119.949 C 108.415 125.626, 109.153 129.551, 109.846 129.782 C 110.481 129.994, 111.079 130.917, 111.177 131.833 C 111.274 132.750, 111.644 130.350, 112 126.500 L 112.647 119.500 112.823 126.200 L 113 132.901 114.389 133.700 C 115.152 134.140, 116 135.400, 116.273 136.500 C 116.545 137.600, 116.875 135.350, 117.006 131.500 L 117.244 124.500 118.105 130.399 C 118.915 135.951, 121.528 141.805, 122.682 140.651 C 122.969 140.364, 122.483 139.100, 121.602 137.842 C 119.373 134.660, 119.599 133.328, 122 135.500 C 123.100 136.495, 124 136.851, 124 136.290 C 124 135.729, 123.100 134.126, 122 132.727 C 119.632 129.717, 119.371 128.233, 121.524 130.020 C 122.362 130.716, 123.349 130.984, 123.717 130.616 C 124.277 130.057, 114.655 119.179, 111.529 116.836 C 110.995 116.436, 110.894 115.773, 111.304 115.363 C 111.714 114.953, 114.415 116.953, 117.306 119.809 C 120.197 122.664, 122.886 125, 123.281 125 C 124.726 125, 123.946 122.261, 122 120.500 C 120.900 119.505, 120 118.240, 120 117.690 C 120 117.140, 120.900 117.505, 122 118.500 L 124 120.310 124 118.817 C 124 117.996, 120.214 113.878, 115.587 109.666 C 110.960 105.454, 105.675 100.094, 103.842 97.754 L 100.509 93.500 104.004 96.355 C 105.927 97.926, 110.931 102.538, 115.124 106.605 C 119.317 110.672, 123.029 114, 123.374 114 C 124.965 114, 123.718 111.104, 121.010 108.510 C 117.745 105.381, 117.735 103.545, 121 106.500 C 122.107 107.502, 123.316 108.017, 123.688 107.646 C 124.891 106.443, 118.078 100.401, 110.444 95.901 C 103.245 91.657, 99.903 88.347, 106 91.500 C 109.680 93.403, 109.767 92.695, 106.399 88.279 C 101.858 82.325, 104.464 83.738, 109.917 90.186 C 114.803 95.964, 121.527 101.908, 123.250 101.972 C 125.045 102.039, 123.676 99.568, 119.363 94.957 C 116.813 92.231, 115.154 90, 115.676 90 C 116.198 90, 117.919 91.350, 119.500 93 C 121.081 94.650, 122.740 96, 123.187 96 C 125.535 96, 122.993 92.444, 113.539 82.500 C 107.787 76.450, 103.063 70.962, 103.041 70.304 C 103.018 69.646, 107.343 73.584, 112.651 79.054 C 117.959 84.524, 122.684 89, 123.151 89 C 124.858 89, 123.928 86.340, 121.041 82.962 C 117.181 78.447, 117.154 76.815, 121 80.500 L 124 83.374 124 81.309 C 124 80.012, 119.153 74.275, 110.956 65.872 C 103.782 58.518, 98.144 53.400, 98.428 54.500
    M 140.885 66.062 C 134.073 73.281, 128.347 80.158, 128.160 81.344 L 127.819 83.500 130.714 80.750 C 135.096 76.588, 135.620 77.457, 131.578 82.180 C 128.244 86.075, 127.023 89, 128.732 89 C 129.135 89, 133.860 84.621, 139.232 79.269 C 152.263 66.287, 151.748 68.766, 138.547 82.570 C 129.074 92.476, 126.517 96, 128.804 96 C 129.246 96, 131.134 94.425, 133 92.500 C 134.866 90.575, 136.819 89, 137.341 89 C 137.863 89, 135.975 91.448, 133.145 94.440 C 128.395 99.463, 126.890 102.041, 128.750 101.972 C 130.590 101.904, 137.406 95.748, 141.989 90.013 C 147.023 83.716, 149.223 83.396, 144.449 89.656 C 141.772 93.166, 142.274 94.016, 145.559 91.532 C 147.822 89.820, 149 89.618, 149 90.941 C 149 91.459, 146.237 93.355, 142.861 95.155 C 136.036 98.793, 127.090 106.386, 128.244 107.562 C 128.653 107.980, 129.893 107.502, 131 106.500 C 134.265 103.545, 134.255 105.381, 130.990 108.510 C 128.195 111.188, 127.044 114.005, 128.750 113.996 C 129.162 113.994, 134.141 109.494, 139.814 103.996 C 145.487 98.498, 150.362 94, 150.648 94 C 151.717 94, 144.865 101.778, 136.573 109.978 C 131.858 114.641, 128 118.873, 128 119.383 C 128 119.893, 128.900 119.495, 130 118.500 C 131.100 117.505, 132 117.140, 132 117.690 C 132 118.240, 131.100 119.505, 130 120.500 C 128.052 122.263, 127.274 125, 128.721 125 C 129.118 125, 132.043 122.427, 135.221 119.281 C 143.117 111.467, 142.553 114.155, 134.514 122.648 C 130.947 126.417, 128.022 129.838, 128.014 130.250 C 127.993 131.385, 129.451 131.149, 130.800 129.800 C 132.749 127.851, 132.170 129.969, 130 132.727 C 128.900 134.126, 128 135.729, 128 136.290 C 128 136.851, 128.900 136.495, 130 135.500 C 132.401 133.328, 132.627 134.660, 130.398 137.842 C 129.517 139.100, 129.006 140.339, 129.263 140.596 C 130.363 141.696, 133.144 135.498, 133.917 130.226 L 134.756 124.500 135.014 131.500 C 135.156 135.350, 135.467 137.488, 135.706 136.250 C 135.944 135.012, 136.681 134, 137.342 134 C 138.131 134, 138.650 131.678, 138.849 127.258 C 139.250 118.311, 139.980 117.912, 140.079 126.583 C 140.122 130.388, 140.415 132.825, 140.729 132 C 141.043 131.175, 141.788 130.183, 142.384 129.796 C 142.980 129.410, 143.740 124.910, 144.072 119.796 L 144.676 110.500 144.838 119.950 L 145 129.400 146.037 128.363 C 146.607 127.793, 147.443 122.190, 147.894 115.913 L 148.714 104.500 148.993 115 C 149.147 120.775, 149.472 124.453, 149.716 123.174 C 149.960 121.894, 150.686 121.050, 151.330 121.299 L 152.500 121.751 152.185 112.528 L 151.870 103.305 153.316 99.902 L 154.761 96.500 154.232 108.250 C 153.941 114.713, 154.058 120, 154.491 120 C 156.933 120, 157.950 115.866, 158.181 105 L 158.425 93.500 158.747 104.344 L 159.070 115.187 160.535 113.971 L 162 112.755 162 104.618 L 162 96.481 164.060 95.195 L 166.119 93.909 165.060 95.889 C 164.477 96.978, 164 100.411, 164 103.518 L 164 109.167 165.216 108.761 C 165.947 108.518, 166.956 104.192, 167.742 97.939 C 169.172 86.565, 171.105 78.460, 171.735 81.195 C 171.987 82.287, 172.700 82.669, 173.743 82.269 L 175.360 81.648 173.680 84.046 C 171.351 87.372, 171.567 88.741, 173.967 85.861 C 176.913 82.325, 176.398 84.982, 173.142 90.115 C 170.032 95.019, 168.191 103.382, 169.978 104.486 C 170.599 104.870, 171.518 103.813, 172.157 101.979 L 173.263 98.807 174.090 100.145 C 175.390 102.249, 176.505 100.162, 177.908 93 C 178.608 89.425, 179.616 85.825, 180.148 85 L 181.115 83.500 180.412 87.500 C 180.026 89.700, 179.600 93.300, 179.466 95.500 L 179.223 99.500 175.470 102.500 C 170.248 106.674, 127.674 149.008, 128.185 149.518 C 128.414 149.747, 138.478 140.160, 150.550 128.213 C 172.598 106.394, 186.077 94.732, 186.787 96.860 C 186.996 97.487, 188.142 98.064, 189.333 98.142 C 190.525 98.220, 189.735 98.557, 187.578 98.892 C 185.421 99.226, 183.471 100.063, 183.245 100.750 L 182.833 102 189.167 102.063 L 195.500 102.127 193 103.144 C 191.625 103.704, 187.907 103.952, 184.739 103.695 C 179.035 103.232, 176.387 104.364, 179.122 106.096 L 180.500 106.969 177.710 106.985 C 174.967 107, 169 110.578, 169 112.207 C 169 113.283, 174.301 111.995, 175.139 110.716 C 175.491 110.180, 177.288 109.962, 179.132 110.233 C 181.067 110.517, 184.797 109.930, 187.946 108.847 C 194.346 106.645, 197.062 106.994, 192 109.369 L 188.500 111.011 191.157 110.510 C 192.619 110.234, 194.536 109.732, 195.418 109.393 L 197.023 108.777 196.404 110.389 L 195.786 112 198.393 112 C 201.526 112, 201.605 111.605, 199 109 C 196.482 106.482, 196.482 103.219, 199 100 C 201.933 96.250, 201.606 96, 193.778 96 L 186.556 96 188.811 93.750 L 191.066 91.500 191.783 92.629 C 192.177 93.250, 194.756 94.065, 197.514 94.440 L 202.527 95.123 203.913 90.311 C 204.676 87.665, 206.395 83.303, 207.734 80.617 L 210.168 75.735 207.334 76.358 C 205.775 76.701, 201.236 77.538, 197.246 78.217 L 189.991 79.452 189.583 80.976 C 189.358 81.814, 188.881 84.235, 188.522 86.355 L 187.870 90.210 189.185 89.773 C 189.908 89.533, 190.894 88.023, 191.375 86.418 C 191.856 84.813, 192.655 82.600, 193.150 81.500 L 194.049 79.500 193.550 82.750 C 192.914 86.882, 194.777 87.051, 196.306 83 C 197.441 79.992, 199 78.951, 199 81.200 L 199 82.400 200.200 81.200 C 200.860 80.540, 202.031 80, 202.802 80 C 203.573 80, 199.010 84.050, 192.663 89 C 181.798 97.473, 178.451 99.649, 180.743 96.750 C 181.287 96.063, 182.206 94.150, 182.787 92.500 L 183.842 89.500 183.921 91.917 C 184.051 95.901, 185.230 93.443, 186.545 86.447 L 187.781 79.870 186.140 80.597 C 185.238 80.997, 182.920 81.513, 180.988 81.744 L 177.476 82.165 173.772 78.567 L 170.067 74.969 168.712 77.234 C 167.967 78.480, 165.927 81.892, 164.179 84.816 C 162.430 87.740, 161 90.533, 161 91.021 C 161 92.391, 153.874 93.409, 152.087 92.294 C 148.257 89.905, 148.373 79.542, 152.451 59.929 C 153.186 56.393, 153.671 53.373, 153.529 53.219 C 153.387 53.064, 147.697 58.843, 140.885 66.062
    M 46.606 81.750 L 49.952 91.500 55.078 91.806 L 60.204 92.112 59.774 90.806 C 59.537 90.088, 58.254 89.374, 56.922 89.220 C 55.590 89.066, 53.375 88.657, 52 88.311 L 49.500 87.683 53.500 86.938 L 57.500 86.194 65.621 93.847 C 70.087 98.056, 73.800 101.743, 73.871 102.041 C 74.033 102.720, 56.928 101.262, 56.201 100.534 C 55.125 99.458, 56.635 99.321, 62.750 99.941 L 69 100.574 69 99.415 C 69 98.777, 67.088 97.916, 64.750 97.501 L 60.500 96.746 62.990 96.080 C 67.451 94.888, 57.858 93.203, 50.677 93.918 C 50.225 93.963, 50.788 95.186, 51.927 96.635 C 53.067 98.084, 54 100.521, 54 102.051 L 54 104.833 51.250 106.885 L 48.500 108.937 52.500 108.953 L 56.500 108.969 55 108 L 53.500 107.031 54.816 107.015 C 55.539 107.007, 57.040 107.486, 58.151 108.081 C 59.262 108.676, 60.420 108.913, 60.724 108.609 C 61.029 108.305, 60.090 107.605, 58.639 107.053 C 57.187 106.501, 56 105.582, 56 105.011 C 56 104.401, 57.547 104.651, 59.750 105.617 C 67.067 108.825, 70.244 109.709, 73.208 109.364 L 76.208 109.015 75.674 110.406 L 75.140 111.798 78.820 112.257 C 83.322 112.819, 84.130 112.275, 81.498 110.452 C 80.399 109.691, 78.983 108.627, 78.351 108.089 C 77.719 107.550, 75.694 106.675, 73.851 106.145 C 72.008 105.614, 71.250 105.140, 72.167 105.090 C 73.083 105.041, 74.017 104.450, 74.241 103.777 C 74.877 101.869, 80.598 106.971, 102.459 128.941 C 113.437 139.974, 122.815 149, 123.301 149 C 124.153 149, 82.845 107.897, 77.251 103.179 C 75.738 101.903, 70.900 97.398, 66.500 93.169 C 62.100 88.940, 56.373 83.572, 53.772 81.240 C 51.172 78.908, 49.683 77, 50.463 77 C 51.244 77, 52.190 77.498, 52.566 78.107 L 53.250 79.214 54.071 77.885 L 54.892 76.556 55.446 78.278 C 55.751 79.225, 56.211 80.675, 56.469 81.500 C 57.230 83.936, 58.837 83.216, 59.256 80.250 L 59.645 77.500 60.428 81.612 C 62.093 90.353, 64.635 90.237, 63.540 81.470 L 62.837 75.849 61.391 76.403 C 60.596 76.709, 56.470 75.848, 52.222 74.492 C 47.975 73.135, 44.221 72.020, 43.880 72.013 C 43.539 72.006, 44.765 76.388, 46.606 81.750
    M 50.576 81.123 C 50.950 81.728, 50.775 82.521, 50.186 82.885 C 49.597 83.249, 50.626 84.019, 52.471 84.597 L 55.828 85.648 54.164 83.366 C 52.472 81.047, 49.305 79.067, 50.576 81.123
    M 197.085 87.121 C 191 91.966, 191.021 92.154, 197.532 91.066 C 200.500 90.570, 201.393 90.188, 199.750 90.118 C 194.822 89.907, 197.200 87.021, 202.332 86.985 L 204.500 86.969 203.122 86.096 C 202.364 85.616, 202.053 84.723, 202.431 84.112 C 203.613 82.200, 202.431 82.865, 197.085 87.121
    M 53.186 116.639 C 57.759 119.741, 64.113 124.047, 67.308 126.210 C 77.871 133.361, 78.862 138.019, 70.953 143.346 C 66.066 146.637, 55.616 155.954, 56.185 156.512 C 56.358 156.682, 58.188 157.137, 60.250 157.522 C 63.926 158.209, 64.997 157.397, 63.022 155.422 C 61.559 153.959, 88.931 149.827, 105.500 149.010 L 119.500 148.320 112.500 148.067 C 99.925 147.613, 87.600 148.740, 69.083 152.036 C 66.104 152.566, 63.472 152.805, 63.233 152.567 C 62.306 151.639, 64.144 150.118, 65.543 150.655 L 67.023 151.223 66.360 149.495 L 65.697 147.767 67.783 148.884 C 68.930 149.498, 70.643 150, 71.589 150 L 73.310 150 71.500 148 C 69.400 145.679, 70.607 145.388, 73.441 147.532 C 74.509 148.339, 76.309 148.986, 77.441 148.968 L 79.500 148.937 76.635 146.417 C 72.765 143.015, 73.756 142.470, 78.254 145.526 C 80.256 146.887, 82.663 148, 83.602 148 L 85.310 148 83.500 146 C 81.394 143.673, 82.729 143.328, 85.559 145.468 C 87.793 147.158, 91 147.472, 91 146 C 91 145.450, 90.662 144.988, 90.250 144.973 C 89.054 144.930, 81.786 137.881, 82.353 137.314 C 82.635 137.032, 85.685 139.082, 89.130 141.870 C 94.561 146.263, 98.615 148.215, 95.183 144.783 C 92.946 142.546, 94.001 141.653, 96.314 143.826 C 98.437 145.820, 102 146.813, 102 145.410 C 102 145.086, 100.987 143.976, 99.750 142.944 L 97.500 141.067 99.076 141.033 C 99.942 141.015, 101.708 142.125, 103 143.500 C 105.348 146, 108 146.829, 108 145.063 C 108 144.548, 109.463 143.945, 111.250 143.723 L 114.500 143.320 109.500 143.018 L 104.500 142.716 108.500 142 L 112.500 141.284 107 141.072 L 101.500 140.859 103.500 140.068 C 104.600 139.633, 106.017 139.470, 106.649 139.707 C 107.281 139.943, 108.095 139.656, 108.458 139.068 L 109.118 138 97.809 137.875 L 86.500 137.750 91 136.949 C 93.475 136.509, 97.975 136.043, 101 135.914 L 106.500 135.680 103 135.269 C 101.075 135.042, 99.050 134.373, 98.500 133.782 L 97.500 132.706 99.091 133.260 C 99.966 133.565, 101.316 133.413, 102.091 132.923 C 102.957 132.374, 98.226 132.025, 89.809 132.015 C 81.778 132.006, 75.863 131.587, 75.500 131 C 75.100 130.353, 79.364 130, 87.563 130 L 100.245 130 99 128.500 C 98.315 127.675, 96.235 127, 94.378 127 C 90.586 127, 89.786 125.373, 93.250 124.706 C 94.487 124.467, 89.425 124.179, 82 124.066 C 63.801 123.788, 60.407 122.162, 77.833 122.070 L 91.167 122 90.752 120.750 L 90.337 119.500 79.669 119.216 C 66.638 118.869, 65.230 117, 78 117 C 82.950 117, 87 116.602, 87 116.117 C 87 114.907, 83.349 114.030, 78.250 114.014 L 74 114 74 112.500 L 74 111 59.436 111 L 44.872 111 53.186 116.639
    M 177 112.732 C 177 113.276, 174.672 113.997, 171.827 114.334 C 168.981 114.671, 166.191 115.409, 165.627 115.973 L 164.600 117 172.800 117 C 177.600 117, 181 117.415, 181 118 C 181 118.596, 177.207 119, 171.622 119 L 162.245 119 160.879 120.646 L 159.513 122.292 174.225 121.793 C 182.316 121.518, 188.726 121.635, 188.467 122.053 C 188.209 122.470, 187.098 122.577, 185.999 122.289 C 184.882 121.997, 184 122.259, 184 122.883 L 184 124 170.250 124.136 C 162.688 124.211, 157.519 124.468, 158.765 124.708 C 161.834 125.298, 160.570 127, 157.063 127 C 155.513 127, 153.685 127.675, 153 128.500 L 151.755 130 164.437 130 C 172.636 130, 176.900 130.353, 176.500 131 C 176.138 131.586, 170.323 132, 162.441 132 C 155.048 132, 149 132.382, 149 132.850 C 149 133.318, 150.908 133.509, 153.241 133.276 C 158.859 132.714, 157.497 133.919, 151.348 134.951 L 146.500 135.765 151.500 135.940 C 154.250 136.036, 158.300 136.488, 160.500 136.943 L 164.500 137.770 153.500 137.915 L 142.500 138.061 144.258 139.085 C 145.225 139.648, 146.431 139.852, 146.939 139.538 C 147.446 139.224, 148.144 139.425, 148.490 139.984 C 148.878 140.612, 147.281 141.054, 144.309 141.142 L 139.500 141.284 143.500 142 L 147.500 142.716 143 143.008 L 138.500 143.300 141.250 143.716 C 142.762 143.945, 144 144.553, 144 145.066 C 144 146.805, 146.485 145.932, 149.937 142.980 C 153.971 139.532, 155.389 139.893, 151.996 143.504 L 149.651 146 151.511 146 C 152.534 146, 154.413 145.022, 155.686 143.826 C 157.999 141.653, 159.054 142.546, 156.817 144.783 C 153.385 148.215, 157.439 146.263, 162.870 141.870 C 170.166 135.965, 172.220 135.876, 165.543 141.753 C 159.859 146.757, 160.613 149.877, 166.441 145.468 C 169.271 143.328, 170.606 143.673, 168.500 146 L 166.690 148 168.441 148 C 169.403 148, 171.386 147.174, 172.846 146.164 C 177.763 142.763, 178.515 142.674, 175.563 145.845 L 172.626 149 174.563 148.968 C 175.628 148.951, 177.374 148.276, 178.441 147.468 C 181.271 145.328, 182.606 145.673, 180.500 148 L 178.690 150 180.411 150 C 181.357 150, 183.070 149.498, 184.217 148.884 L 186.303 147.767 185.640 149.495 L 184.977 151.223 186.239 150.756 C 186.932 150.499, 188.400 151.193, 189.500 152.298 C 190.600 153.403, 190.916 153.974, 190.203 153.566 C 188.207 152.424, 173 150.178, 173 151.025 C 173 151.436, 175.137 152.072, 177.750 152.437 C 180.363 152.802, 183.989 153.358, 185.810 153.673 L 189.120 154.245 188.591 155.623 L 188.063 157 190.781 156.930 C 192.277 156.891, 194.375 156.517, 195.445 156.098 L 197.389 155.337 188.945 149.080 C 184.300 145.638, 179.496 142.344, 178.269 141.759 C 170.383 138.002, 177.240 129.525, 196.315 119.451 C 201.163 116.891, 204.988 114.669, 204.815 114.513 C 204.642 114.358, 200.900 113.949, 196.500 113.605 C 192.100 113.261, 185.912 112.701, 182.750 112.361 C 179.206 111.979, 177 112.121, 177 112.732
    M 139.500 148 L 132.500 148.500 147 149.234 C 154.975 149.637, 163.975 150.182, 167 150.445 L 172.500 150.921 168.500 149.969 C 162.213 148.472, 147.178 147.452, 139.500 148
    M 96.065 154.536 C 90.854 159.411, 89.048 159.585, 93.500 154.783 C 98.244 149.667, 95.295 149.472, 89.511 154.519 C 84.621 158.786, 82.557 159.115, 86.500 155 L 89.374 152 87.383 152 C 85.498 152, 79 157.714, 79 159.372 C 79 159.799, 81.254 160.029, 84.008 159.882 C 90.289 159.549, 91.065 160.340, 90.011 166 C 89.048 171.176, 89.556 172.328, 91.582 169.557 L 93 167.618 91.904 166.940 C 91.279 166.554, 92.139 165.799, 93.904 165.183 C 97.740 163.846, 97.958 162.778, 94.250 163.488 C 92.737 163.778, 93.750 163.147, 96.500 162.085 L 101.500 160.155 98 159.979 L 94.500 159.804 98.680 158.652 C 104.219 157.126, 105.243 155.933, 100.374 156.679 L 96.500 157.273 99.427 154.147 C 104.171 149.080, 101.577 149.380, 96.065 154.536
    M 120 152.500 C 118.495 154.314, 116.628 154.501, 117.515 152.750 C 117.863 152.063, 117.440 152.374, 116.574 153.441 C 115.708 154.509, 115 155.746, 115 156.191 C 115 156.636, 114.592 157, 114.094 157 C 113.595 157, 113.375 155.988, 113.604 154.750 L 114.021 152.500 112.539 155.673 C 110.706 159.599, 109.043 160.776, 109.604 157.751 L 110.021 155.500 108.539 158.673 C 107.014 161.937, 104.531 164.385, 105.618 161.552 C 106.689 158.763, 105.091 159.923, 103.425 163.146 L 101.798 166.291 101.016 165.026 L 100.234 163.760 99.367 165.223 C 98.890 166.027, 97.263 167.483, 95.750 168.458 C 91.515 171.187, 92.493 171.994, 97.250 169.696 C 102.529 167.146, 122 153.155, 122 151.912 C 122 150.611, 121.428 150.779, 120 152.500
    M 129.812 152.252 C 133.085 156.249, 155.785 171, 158.661 171 C 159.061 171, 157.866 169.877, 156.006 168.504 C 154.146 167.132, 152.265 165.444, 151.827 164.754 L 151.031 163.500 151.015 164.872 L 151 166.245 149.500 165 C 148.675 164.315, 148 163.162, 148 162.437 C 148 161.711, 147.474 160.793, 146.830 160.395 L 145.660 159.672 146.353 161.477 L 147.046 163.283 145.621 162.100 C 144.837 161.450, 143.876 159.699, 143.484 158.209 L 142.771 155.500 142.013 157.500 L 141.255 159.500 139.709 156 L 138.163 152.500 138.042 155 L 137.920 157.500 136.295 154.500 C 135.321 152.701, 134.496 152.020, 134.235 152.800 L 133.800 154.099 131.150 152.375 L 128.500 150.651 129.812 152.252
    M 152.563 154.134 L 155.500 157.268 151.038 156.588 C 145.476 155.741, 146.275 156.712, 152.665 158.568 L 157.500 159.973 154.250 159.659 C 149.582 159.210, 150.246 160.385, 155.750 162.313 C 158.363 163.228, 159.262 163.748, 157.750 163.469 C 154.045 162.786, 154.260 163.846, 158.096 165.183 L 161.193 166.263 159.846 167.095 L 158.500 167.928 160.226 169.654 C 162.628 172.056, 163.047 171.157, 161.903 166.064 C 160.686 160.647, 161.299 160.002, 167.814 159.856 C 170.666 159.791, 173 159.436, 173 159.066 C 173 157.591, 166.286 152, 164.515 152 L 162.626 152 165.500 155 C 169.446 159.119, 167.274 158.783, 162.271 154.500 C 156.469 149.534, 153.150 149.974, 158.500 155 C 159.875 156.292, 161 157.814, 161 158.383 C 161 158.951, 159.070 157.523, 156.712 155.208 C 151.695 150.284, 148.077 149.348, 152.563 154.134
    M 76.174 155.314 C 74.978 156.587, 74 157.937, 74 158.314 C 74 159.961, 76.856 158.759, 79.500 156 L 82.374 153 80.361 153 C 79.254 153, 77.370 154.042, 76.174 155.314
    M 171 153.826 C 171 155.338, 175.602 159, 177.502 159 L 179.374 159 176.500 156 C 173.763 153.144, 171 152.051, 171 153.826
    M 125 169.860 C 125 178.584, 124.714 187.809, 124.364 190.360 L 123.728 195 126 195 L 128.272 195 127.636 190.360 C 127.286 187.809, 127 178.584, 127 169.860 C 127 159.953, 126.625 154, 126 154 C 125.375 154, 125 159.953, 125 169.860
    M 123.570 197.678 C 123.206 198.627, 123.594 200.022, 124.463 200.892 L 126 202.429 127.537 200.892 C 129.414 199.015, 128.467 196, 126 196 C 125.018 196, 123.924 196.755, 123.570 197.678
  "/>
</svg>
