<svg xmlns="http://www.w3.org/2000/svg" viewBox="0 0 1381 262" fill="currentColor">
  <path d="M108.647 49.583C109.423 49.4893 110.303 49.807 111.293 50.5414C112.277 51.281 113.063 52.1664 113.647 53.208C114.24 54.2393 114.511 55.1664 114.459 55.9997C114.418 56.833 113.803 57.3018 112.626 57.3955C103.178 58.3851 93.6779 59.5622 84.1258 60.9372C78.6258 75.3122 73.8029 89.8851 69.6675 104.646C69.4696 105.531 68.9279 105.927 68.0425 105.833C67.1519 105.734 66.1883 105.291 65.1467 104.5C64.1154 103.708 63.2821 102.817 62.6467 101.833C62.0061 100.843 61.8394 99.9164 62.1467 99.0414C65.5894 86.833 69.4696 74.6768 73.7925 62.5622C63.1675 64.2445 52.4904 66.1664 41.7717 68.333C35.6571 83.9737 30.1936 99.8122 25.3758 115.854C26.2613 117.239 26.5633 118.375 26.2717 119.25C25.48 122.208 24.0477 124.864 21.98 127.229C21.0894 128.213 20.0269 128.338 18.7925 127.604C17.5686 126.864 16.5113 125.802 15.6258 124.416C14.7508 123.041 14.4592 121.906 14.7508 121.021C19.4696 104.005 24.9279 87.182 31.1258 70.5414C23.0529 72.2237 15.0321 74.0414 7.06335 75.9997C6.18835 76.1976 5.25605 75.9737 4.27168 75.333C3.2821 74.6976 2.39668 73.8903 1.60501 72.9164C0.823764 71.932 0.381054 70.9945 0.27168 70.1039C0.172721 69.2185 0.568554 68.6768 1.45918 68.4789C12.4852 65.7185 23.6102 63.2028 34.8342 60.9372C39.8446 48.2445 45.2561 35.8487 51.0633 23.7497C51.5633 22.7653 52.2769 22.3487 53.2092 22.4997C54.1363 22.6403 55.0946 23.1039 56.0842 23.8955C57.0686 24.6872 57.855 25.5778 58.4383 26.5622C59.0321 27.5362 59.1363 28.4164 58.7508 29.208C54.1258 38.9476 49.7404 48.833 45.605 58.8747C56.1311 56.9164 66.6571 55.1455 77.1883 53.5622C82.6988 39.4945 88.8029 25.7185 95.5008 12.2289C95.9852 11.2445 96.7196 10.8278 97.7092 10.9789C98.6936 11.1195 99.6779 11.583 100.668 12.3747C101.652 13.1664 102.418 14.083 102.959 15.1247C103.501 16.156 103.569 17.0101 103.168 17.6872C97.5686 28.9112 92.4019 40.3747 87.6675 52.083C94.6675 51.208 101.657 50.3747 108.647 49.583Z" />
  <path d="M111.296 80.1456C111.682 83.9789 111.364 87.7446 110.338 91.4373C109.307 95.1196 107.614 98.4373 105.255 101.396C103.088 104.255 100.447 106.104 97.3379 106.937C94.2389 107.771 91.3171 106.656 88.5671 103.604C86.1087 100.854 85.0775 97.8539 85.4629 94.6039C85.8535 91.3539 87.1296 88.2081 89.2962 85.1664C91.4629 82.1144 93.9733 79.3852 96.8171 76.9789C99.6764 74.5623 102.286 72.7654 104.65 71.5831C105.635 71.0831 106.739 71.281 107.963 72.1664C109.197 73.0571 110.156 74.1664 110.838 75.4998C111.531 76.8227 111.536 77.8748 110.859 78.6664C111.051 79.156 111.197 79.6456 111.296 80.1456ZM101.255 90.0206C102.14 88.0623 102.781 85.9998 103.171 83.8331C101.697 85.1144 100.369 86.4894 99.1921 87.9581C97.7181 89.8331 96.4889 91.8539 95.5046 94.0206C95.2129 94.5102 94.9629 94.9998 94.7546 95.4998C94.5566 95.9894 94.3639 96.4737 94.1712 96.9581C94.1712 97.0727 94.14 97.3227 94.0879 97.7081C94.0462 98.0987 93.9785 98.4373 93.8796 98.7289C94.4629 98.2446 95.0254 97.8279 95.5671 97.4789C96.1087 97.1352 96.6296 96.7185 97.1296 96.2289C98.7962 94.3539 100.171 92.2862 101.255 90.0206Z" />
  <path d="M155.149 81.4581C156.024 80.5831 156.951 80.3435 157.941 80.729C158.925 81.1196 159.659 81.8071 160.149 82.7915C160.649 83.781 160.451 84.7185 159.566 85.604C156.217 89.2446 152.253 92.5415 147.67 95.4998C143.097 98.4477 138.451 100.651 133.732 102.125C131.467 102.818 129.279 103.187 127.17 103.229C125.055 103.281 123.159 102.323 121.482 100.354C119.816 98.3019 118.789 96.0415 118.399 93.5831C117.998 91.1144 118.086 88.5988 118.67 86.0415C119.368 82.5988 120.326 79.1821 121.545 75.7915C122.779 72.3904 123.987 69.0154 125.17 65.6665C127.529 58.6821 129.993 51.6977 132.566 44.7081C135.217 37.531 137.946 30.3488 140.753 23.1665C143.555 15.9738 146.482 8.83313 149.524 1.74979C149.925 0.864376 150.592 0.468542 151.524 0.562292C152.451 0.661251 153.409 1.10396 154.399 1.89563C155.383 2.68729 156.17 3.60396 156.753 4.64563C157.347 5.67688 157.451 6.57792 157.066 7.35396C153.816 15.1352 150.659 22.9373 147.607 30.7706C144.566 38.5935 141.612 46.4373 138.753 54.3123C135.904 62.0779 133.196 69.8956 130.628 77.7706C130.138 79.0519 129.482 80.7029 128.649 82.729C127.816 84.7446 127.071 86.8644 126.42 89.0831C125.779 91.2915 125.566 93.3279 125.774 95.1873C129.409 94.604 133.243 93.531 137.274 91.9581C141.316 90.3748 144.951 88.604 148.191 86.6456C151.441 84.6769 153.758 82.9477 155.149 81.4581Z" />
  <path d="M211.088 80.7288C212.072 79.9371 213.13 79.8121 214.255 80.3538C215.39 80.8954 216.255 81.7079 216.838 82.7913C217.432 83.8746 217.286 84.8121 216.4 85.6038C212.953 88.6454 209.484 91.6454 205.984 94.6038C202.494 97.5621 198.786 100.171 194.859 102.437C193.078 103.52 191.135 104.526 189.025 105.458C186.911 106.385 184.775 106.708 182.609 106.416C180.343 106.218 178.369 105.333 176.692 103.75C175.025 102.177 173.843 100.312 173.15 98.1454C172.76 96.7704 172.614 95.4475 172.713 94.1663C172.807 92.8902 173.052 91.661 173.442 90.4788C169.51 93.036 165.775 95.9683 162.234 99.2704C158.692 102.562 154.661 105.088 150.13 106.854C149.145 107.255 148.088 107.083 146.963 106.333C145.828 105.593 144.916 104.635 144.234 103.458C143.541 102.276 143.291 101.192 143.484 100.208C144.473 95.7808 146.171 91.4735 148.588 87.2913C150.994 83.1142 154.015 79.6454 157.65 76.8954C160.609 74.7288 163.734 73.8694 167.025 74.3121C170.317 74.76 173.046 76.3538 175.213 79.1038C176.005 78.8121 176.796 78.5204 177.588 78.2288C178.572 78.0204 179.703 78.3642 180.984 79.2496C181.76 79.8485 182.494 80.5621 183.192 81.3954C183.885 82.2288 184.281 83.0413 184.38 83.8329C184.473 84.3225 184.427 84.7652 184.234 85.1663C184.135 86.3485 183.885 87.4788 183.484 88.5621C183.093 89.635 182.697 90.7652 182.296 91.9579C181.906 93.0308 181.614 94.1038 181.421 95.1871C181.223 96.2704 180.984 97.4058 180.692 98.5829C180.786 98.5829 180.859 98.5829 180.9 98.5829C180.953 98.5829 181.031 98.5829 181.13 98.5829C183.296 98.2913 185.802 97.4579 188.65 96.0829C191.51 94.7079 194.39 93.0621 197.296 91.1454C200.197 89.2183 202.88 87.3225 205.338 85.4579C207.796 83.5829 209.713 82.01 211.088 80.7288ZM157.796 90.6246C159.765 89.0413 161.682 87.4944 163.546 85.9788C165.421 84.4527 167.39 83.0517 169.463 81.7704C169.364 81.7704 169.317 81.7704 169.317 81.7704C169.119 81.7704 168.869 81.8017 168.567 81.8538C168.275 81.8954 167.984 81.9683 167.692 82.0621C166.9 82.26 166.135 82.6038 165.4 83.1038C164.661 83.5933 163.994 84.0777 163.4 84.5621C162.328 85.4527 161.348 86.3902 160.463 87.3746C159.572 88.3642 158.781 89.3485 158.088 90.3329C157.989 90.4319 157.942 90.51 157.942 90.5621C157.942 90.6038 157.89 90.6246 157.796 90.6246Z" />
  <path d="M249.771 28.0206C250.563 27.4372 251.469 27.3435 252.5 27.7289C253.542 28.1195 254.5 28.7602 255.375 29.6456C256.261 30.5362 256.881 31.4997 257.23 32.5414C257.573 33.5727 257.355 34.3279 256.563 34.8122C254.782 36.3956 253.381 38.3487 252.355 40.6664C251.323 42.9737 250.318 45.2081 249.334 47.3747C247.36 51.6977 245.485 55.9737 243.709 60.2081C241.75 64.8331 239.881 69.4581 238.105 74.0831C236.339 78.7081 234.615 83.3852 232.938 88.1039C232.646 89.0935 232.027 89.5154 231.084 89.3747C230.152 89.2237 229.193 88.7602 228.209 87.9789C227.235 87.1872 226.422 86.3018 225.771 85.3122C225.131 84.3279 224.964 83.3904 225.271 82.4997C227.032 77.5831 228.875 72.6664 230.792 67.7497C232.719 62.8227 234.714 57.9477 236.771 53.1247C238.839 48.307 240.959 43.5362 243.125 38.8122C244.011 36.8435 244.922 34.8956 245.855 32.9789C246.797 31.0518 248.105 29.3956 249.771 28.0206ZM220.834 92.6872C221.428 91.7029 222.214 91.307 223.188 91.4997C224.172 91.6977 225.157 92.1872 226.146 92.9789C227.131 93.7706 227.865 94.6612 228.355 95.6456C228.855 96.6352 228.907 97.4685 228.521 98.1456C225.948 102.479 224.469 106.958 224.084 111.583C224.084 112.76 223.667 113.375 222.834 113.416C222 113.468 221.063 113.177 220.021 112.541C218.99 111.901 218.105 111.109 217.355 110.166C216.615 109.234 216.25 108.38 216.25 107.604C216.652 101.989 218.178 97.0206 220.834 92.6872Z" />
  <path d="M372.592 18.8747C373.577 20.5414 373.848 22.2654 373.405 24.0414C372.957 25.8227 372.223 27.5727 371.197 29.2914C370.165 31.0154 369.259 32.6143 368.467 34.0831C366.993 36.932 365.54 39.807 364.113 42.7081C362.681 45.6143 361.228 48.5414 359.759 51.4997C355.811 59.3747 352.139 67.3956 348.738 75.5622C345.348 83.7289 342.52 92.0727 340.259 100.583C337.993 109.093 336.717 117.781 336.426 126.646C336.426 127.823 336.009 128.463 335.176 128.562C334.342 128.656 333.405 128.385 332.363 127.75C331.332 127.109 330.452 126.317 329.717 125.375C328.978 124.442 328.613 123.531 328.613 122.646C328.905 113.297 330.249 104.093 332.655 95.0414C335.072 85.9893 338.051 77.1352 341.592 68.4789C343.467 64.0518 345.431 59.6664 347.488 55.3331C349.556 50.9997 351.676 46.6768 353.842 42.3539C354.926 40.1872 356.03 37.9997 357.155 35.7914C358.29 33.5727 359.405 31.3747 360.488 29.2081C360.889 28.5154 361.238 27.8747 361.53 27.2914C361.822 26.6977 362.113 26.057 362.405 25.3747C360.639 26.2654 358.967 27.0987 357.384 27.8747C353.551 30.0414 349.811 32.7029 346.176 35.8539C339.092 42.0518 333.478 49.3331 329.342 57.7081C328.952 58.5831 328.264 58.9529 327.28 58.8122C326.29 58.6612 325.306 58.1977 324.322 57.4164C323.332 56.6247 322.572 55.7393 322.03 54.7497C321.488 53.7654 321.415 52.8747 321.822 52.0831C324.572 46.3747 328.009 41.1404 332.134 36.3747C336.27 31.5987 340.952 27.3904 346.176 23.7497C347.743 22.7654 349.707 21.5102 352.072 19.9789C354.431 18.4529 356.915 17.1768 359.53 16.1456C362.139 15.1039 364.598 14.7081 366.905 14.9581C369.223 15.2081 371.118 16.5154 372.592 18.8747Z" />
  <path d="M387.953 37.1873C389.422 36.8852 390.771 37.3227 391.995 38.4998C393.229 39.6821 394.047 40.8644 394.453 42.0414C395.437 44.8071 395.312 47.3487 394.078 49.6664C392.838 51.9737 391.291 54.0623 389.432 55.9373C388.833 56.6196 388.015 56.7914 386.974 56.4581C385.943 56.1144 384.984 55.4946 384.099 54.6039C383.224 53.7185 382.609 52.7602 382.265 51.7289C381.916 50.6873 382.041 49.8279 382.64 49.1456C383.224 48.5518 383.786 47.9321 384.328 47.2914C384.87 46.656 385.39 45.9894 385.89 45.2914C384.901 44.4164 384.161 43.4164 383.661 42.2914C383.172 41.156 383.276 40.1873 383.974 39.3956C385.057 38.3123 386.38 37.5779 387.953 37.1873Z" />
  <path d="M482.132 81.3121C483.116 80.4371 484.121 80.2704 485.152 80.8121C486.194 81.3538 486.908 82.1194 487.298 83.1038C487.699 84.0777 487.455 84.9579 486.569 85.7496C483.027 88.5985 479.382 91.4058 475.632 94.1663C471.892 96.9163 468.059 99.4267 464.132 101.687C462.642 102.573 461.038 103.437 459.319 104.27C457.595 105.104 455.85 105.52 454.09 105.52C452.215 105.63 450.491 105.114 448.923 103.979C447.35 102.854 446.319 101.354 445.819 99.4788C445.527 98.6871 445.429 97.9058 445.527 97.1246C445.621 96.3329 445.767 95.5413 445.965 94.7496C445.965 94.7496 445.965 94.7288 445.965 94.6871C445.965 94.635 445.965 94.6038 445.965 94.6038C445.475 94.8017 445.137 94.9475 444.944 95.0413C444.246 95.4475 443.554 95.9163 442.861 96.4579C442.179 96.9996 441.491 97.5152 440.798 97.9996C439.423 98.9892 438.069 99.9683 436.736 100.958C435.413 101.942 434.059 102.921 432.673 103.895C431.59 104.588 430.429 104.588 429.194 103.895C427.97 103.213 426.965 102.255 426.173 101.02C425.392 99.7965 425.152 98.6454 425.444 97.5621C425.736 95.9788 426.074 94.3538 426.465 92.6871C426.866 91.01 427.267 89.3329 427.673 87.6663C427.767 87.2808 427.887 86.8433 428.027 86.3538C428.179 85.8538 428.304 85.3538 428.402 84.8538C427.804 85.26 427.205 85.635 426.611 85.9788C426.027 86.3121 425.491 86.635 425.007 86.9371C421.757 88.7027 418.554 90.6663 415.402 92.8329C412.554 94.9058 409.777 97.0985 407.069 99.4163C404.361 101.718 401.777 104.104 399.319 106.562C398.434 107.354 397.397 107.448 396.215 106.854C395.038 106.27 394.007 105.385 393.132 104.208C392.246 103.026 391.85 101.989 391.944 101.104C392.934 93.3277 395.194 86.0933 398.736 79.3954C399.225 78.51 399.955 78.1402 400.944 78.2913C401.929 78.4475 402.913 78.9163 403.902 79.7079C404.887 80.4892 405.642 81.3694 406.173 82.3538C406.715 83.3433 406.788 84.2235 406.402 84.9996C405.72 86.2913 405.033 87.6767 404.34 89.1454C407.684 86.4944 411.199 84.0621 414.882 81.8538C418.574 79.635 422.345 77.635 426.194 75.8538C428.652 74.7704 431.033 74.8225 433.34 75.9996C435.658 77.1819 436.965 79.2027 437.257 82.0621C437.449 83.2444 437.402 84.4735 437.111 85.7496C436.819 87.0308 436.517 88.26 436.215 89.4371C437.298 88.6454 438.33 87.9579 439.319 87.3746C440.705 86.5829 442.158 86.0204 443.673 85.6871C445.199 85.3433 446.757 85.51 448.34 86.1871C449.908 86.885 451.257 87.9683 452.382 89.4371C453.517 90.911 454.184 92.4892 454.382 94.1663C454.382 94.7496 454.382 95.4371 454.382 96.2288C455.366 96.036 456.991 95.4267 459.257 94.3954C461.517 93.3538 464.054 92.1246 466.861 90.7079C469.663 89.2808 472.444 87.7288 475.194 86.0621C477.955 84.385 480.267 82.8017 482.132 81.3121Z" />
  <path d="M593.443 80.7288C594.427 79.9371 595.485 79.8121 596.61 80.3538C597.745 80.8954 598.61 81.7079 599.193 82.7913C599.787 83.8746 599.641 84.8121 598.755 85.6038C595.308 88.6454 591.839 91.6454 588.339 94.6038C584.849 97.5621 581.141 100.171 577.214 102.437C575.433 103.52 573.49 104.526 571.38 105.458C569.266 106.385 567.13 106.708 564.964 106.416C562.698 106.218 560.724 105.333 559.047 103.75C557.38 102.177 556.198 100.312 555.505 98.1454C555.115 96.7704 554.969 95.4475 555.068 94.1663C555.162 92.8902 555.407 91.661 555.797 90.4788C551.865 93.036 548.13 95.9683 544.589 99.2704C541.047 102.562 537.016 105.088 532.485 106.854C531.5 107.255 530.443 107.083 529.318 106.333C528.183 105.593 527.271 104.635 526.589 103.458C525.896 102.276 525.646 101.192 525.839 100.208C526.828 95.7808 528.526 91.4735 530.943 87.2913C533.349 83.1142 536.37 79.6454 540.005 76.8954C542.964 74.7288 546.089 73.8694 549.38 74.3121C552.672 74.76 555.401 76.3538 557.568 79.1038C558.36 78.8121 559.151 78.5204 559.943 78.2288C560.927 78.0204 562.058 78.3642 563.339 79.2496C564.115 79.8485 564.849 80.5621 565.547 81.3954C566.24 82.2288 566.636 83.0413 566.735 83.8329C566.828 84.3225 566.782 84.7652 566.589 85.1663C566.49 86.3485 566.24 87.4788 565.839 88.5621C565.448 89.635 565.052 90.7652 564.651 91.9579C564.261 93.0308 563.969 94.1038 563.776 95.1871C563.578 96.2704 563.339 97.4058 563.047 98.5829C563.141 98.5829 563.214 98.5829 563.255 98.5829C563.308 98.5829 563.386 98.5829 563.485 98.5829C565.651 98.2913 568.157 97.4579 571.005 96.0829C573.865 94.7079 576.745 93.0621 579.651 91.1454C582.552 89.2183 585.235 87.3225 587.693 85.4579C590.151 83.5829 592.068 82.01 593.443 80.7288ZM540.151 90.6246C542.12 89.0413 544.037 87.4944 545.901 85.9788C547.776 84.4527 549.745 83.0517 551.818 81.7704C551.719 81.7704 551.672 81.7704 551.672 81.7704C551.474 81.7704 551.224 81.8017 550.922 81.8538C550.63 81.8954 550.339 81.9683 550.047 82.0621C549.255 82.26 548.49 82.6038 547.755 83.1038C547.016 83.5933 546.349 84.0777 545.755 84.5621C544.683 85.4527 543.703 86.3902 542.818 87.3746C541.927 88.3642 541.136 89.3485 540.443 90.3329C540.344 90.4319 540.297 90.51 540.297 90.5621C540.297 90.6038 540.245 90.6246 540.151 90.6246Z" />
  <path d="M669.178 93.7288C670.553 94.6038 671.386 95.708 671.678 97.0413C671.98 98.3747 671.766 99.3642 671.032 99.9997C670.293 100.635 669.037 100.364 667.261 99.1872C665.787 98.3017 664.162 97.9528 662.386 98.1455C660.621 98.3434 658.85 98.7392 657.074 99.333C659.24 102.375 660.371 105.885 660.47 109.875C660.563 113.859 660.371 117.823 659.886 121.77C659.188 127.281 658.105 132.672 656.636 137.937C655.162 143.198 652.553 147.948 648.803 152.187C648.418 152.672 647.881 152.838 647.199 152.687C646.506 152.547 645.907 152.38 645.407 152.187C641.865 150.02 639.36 147.281 637.886 143.979C636.418 140.687 635.605 137.114 635.449 133.27C635.298 129.437 635.569 125.573 636.261 121.687C636.959 117.797 637.694 114.13 638.47 110.687C640.345 102.922 642.959 95.4267 646.303 88.1872C649.652 80.9528 653.49 73.9892 657.824 67.2913C658.308 66.6142 659.016 66.4163 659.949 66.708C660.891 66.9997 661.829 67.5934 662.761 68.4788C663.688 69.3694 664.376 70.3278 664.824 71.3538C665.266 72.3851 665.246 73.2913 664.761 74.083C661.22 79.5986 658.063 85.208 655.303 90.9163C657.662 90.5309 659.975 90.5309 662.24 90.9163C664.501 91.3069 666.813 92.2444 669.178 93.7288ZM652.803 111.437C652.897 110.062 652.996 108.166 653.095 105.75C653.188 103.333 652.501 101.635 651.032 100.666C650.626 101.75 650.204 102.88 649.761 104.062C649.319 105.239 648.902 106.422 648.511 107.604C647.428 111.047 646.501 114.51 645.72 118C644.928 121.5 644.334 125.02 643.928 128.562C643.834 129.448 643.668 130.776 643.428 132.541C643.178 134.317 643.053 136.187 643.053 138.145C643.053 140.114 643.298 141.791 643.782 143.166C645.855 140.317 647.459 137.27 648.595 134.02C649.72 130.77 650.579 127.375 651.178 123.833C651.563 121.859 651.876 119.817 652.115 117.708C652.365 115.593 652.595 113.505 652.803 111.437Z" />
  <path d="M732.657 80.8748C733.543 79.9894 734.532 79.7915 735.615 80.2915C736.699 80.7811 737.459 81.5623 737.907 82.6457C738.35 83.729 738.178 84.7186 737.386 85.604C734.428 88.6457 731.418 91.6769 728.365 94.6874C725.324 97.6874 722.079 100.318 718.636 102.583C716.97 103.76 715.246 104.646 713.47 105.229C711.688 105.823 709.871 105.531 708.011 104.354C706.037 103.172 704.73 101.614 704.095 99.6874C703.454 97.7707 703.282 95.729 703.574 93.5624C703.574 93.4686 703.574 93.3696 703.574 93.2707C703.574 93.1769 703.621 93.078 703.72 92.979C701.355 95.1457 698.949 97.2186 696.49 99.1874C694.032 101.146 691.428 102.917 688.678 104.5C686.204 105.969 683.709 106.833 681.199 107.083C678.699 107.333 676.464 106.125 674.49 103.458C672.824 101.193 672.24 98.4946 672.74 95.354C673.23 92.203 674.282 89.1561 675.907 86.2082C677.532 83.2499 679.131 80.8332 680.699 78.9582C681.282 78.2655 682.084 78.0936 683.115 78.4373C684.157 78.7863 685.121 79.4061 686.011 80.2915C686.897 81.1821 687.537 82.1405 687.928 83.1665C688.313 84.1978 688.22 85.0571 687.636 85.7499C686.553 87.0311 685.615 88.3853 684.824 89.8124C684.043 91.2446 683.355 92.6978 682.761 94.1665C682.079 95.6405 681.584 96.9165 681.282 97.9999C682.459 97.4165 683.615 96.7082 684.74 95.8749C685.876 95.0311 686.99 94.2082 688.074 93.4165C691.709 90.5728 695.178 87.5988 698.47 84.4998C701.772 81.3905 705.1 78.3123 708.449 75.2707C709.433 74.3853 710.537 74.3071 711.761 75.0415C712.996 75.7811 714.032 76.7915 714.865 78.0832C715.709 79.3644 715.98 80.4894 715.678 81.4582C715.095 83.6248 714.48 85.7915 713.845 87.9582C713.204 90.1249 712.636 92.2915 712.136 94.4582C712.037 94.8488 711.938 95.2915 711.845 95.7915C713.912 95.2915 716.272 94.1613 718.928 92.3957C721.595 90.6196 724.157 88.6457 726.615 86.479C729.074 84.3124 731.084 82.4478 732.657 80.8748Z" />
  <path d="M767.065 81.4581C767.94 80.5831 768.867 80.3435 769.857 80.729C770.841 81.1196 771.575 81.8071 772.065 82.7915C772.565 83.781 772.367 84.7185 771.482 85.604C768.133 89.2446 764.169 92.5415 759.586 95.4998C755.013 98.4477 750.367 100.651 745.648 102.125C743.383 102.818 741.195 103.187 739.086 103.229C736.971 103.281 735.075 102.323 733.398 100.354C731.732 98.3019 730.706 96.0415 730.315 93.5831C729.914 91.1144 730.002 88.5988 730.586 86.0415C731.284 82.5988 732.242 79.1821 733.461 75.7915C734.695 72.3904 735.903 69.0154 737.086 65.6665C739.445 58.6821 741.909 51.6977 744.482 44.7081C747.133 37.531 749.862 30.3488 752.669 23.1665C755.471 15.9738 758.398 8.83313 761.44 1.74979C761.841 0.864376 762.508 0.468542 763.44 0.562292C764.367 0.661251 765.325 1.10396 766.315 1.89563C767.299 2.68729 768.086 3.60396 768.669 4.64563C769.263 5.67688 769.367 6.57792 768.982 7.35396C765.732 15.1352 762.575 22.9373 759.523 30.7706C756.482 38.5935 753.528 46.4373 750.669 54.3123C747.82 62.0779 745.112 69.8956 742.544 77.7706C742.054 79.0519 741.398 80.7029 740.565 82.729C739.732 84.7446 738.987 86.8644 738.336 89.0831C737.695 91.2915 737.482 93.3279 737.69 95.1873C741.325 94.604 745.159 93.531 749.19 91.9581C753.232 90.3748 756.867 88.604 760.107 86.6456C763.357 84.6769 765.674 82.9477 767.065 81.4581Z" />
  <path d="M801.462 81.4581C802.337 80.5831 803.264 80.3435 804.254 80.729C805.238 81.1196 805.972 81.8071 806.462 82.7915C806.962 83.781 806.764 84.7185 805.879 85.604C802.53 89.2446 798.566 92.5415 793.983 95.4998C789.41 98.4477 784.764 100.651 780.045 102.125C777.78 102.818 775.592 103.187 773.483 103.229C771.368 103.281 769.472 102.323 767.795 100.354C766.129 98.3019 765.102 96.0415 764.712 93.5831C764.311 91.1144 764.399 88.5988 764.983 86.0415C765.681 82.5988 766.639 79.1821 767.858 75.7915C769.092 72.3904 770.3 69.0154 771.483 65.6665C773.842 58.6821 776.306 51.6977 778.879 44.7081C781.53 37.531 784.259 30.3488 787.066 23.1665C789.868 15.9738 792.795 8.83313 795.837 1.74979C796.238 0.864376 796.905 0.468542 797.837 0.562292C798.764 0.661251 799.722 1.10396 800.712 1.89563C801.696 2.68729 802.483 3.60396 803.066 4.64563C803.66 5.67688 803.764 6.57792 803.379 7.35396C800.129 15.1352 796.972 22.9373 793.92 30.7706C790.879 38.5935 787.925 46.4373 785.066 54.3123C782.217 62.0779 779.509 69.8956 776.941 77.7706C776.451 79.0519 775.795 80.7029 774.962 82.729C774.129 84.7446 773.384 86.8644 772.733 89.0831C772.092 91.2915 771.879 93.3279 772.087 95.1873C775.722 94.604 779.556 93.531 783.587 91.9581C787.629 90.3748 791.264 88.604 794.504 86.6456C797.754 84.6769 800.071 82.9477 801.462 81.4581Z" />
  <path d="M829.067 79.8331C830.244 79.4476 831.255 79.6768 832.088 80.5206C832.921 81.3539 833.385 82.3643 833.484 83.5414C833.578 84.7237 832.989 85.557 831.713 86.0414C826.099 88.2081 821.031 91.0622 816.505 94.6039C817.197 96.7706 817.401 98.9372 817.109 101.104C816.703 103.463 815.739 105.823 814.213 108.187C812.697 110.547 810.807 112.172 808.546 113.062C806.281 113.948 803.921 113.359 801.463 111.291C798.796 109.026 797.494 106.635 797.546 104.125C797.588 101.609 798.546 99.1247 800.421 96.6664C802.296 94.2081 804.609 91.8487 807.359 89.5831C806.276 88.307 805.161 87.1039 804.026 85.9789C802.901 84.8435 801.942 83.4893 801.151 81.9164C800.276 80.2393 799.838 78.3435 799.838 76.2289C799.838 74.1195 800.411 72.3487 801.546 70.9164C802.671 69.4893 804.51 68.8226 807.067 68.9164C808.151 69.0153 809.182 69.4893 810.171 70.3331C811.156 71.1664 811.89 72.0778 812.38 73.0622C812.671 73.7445 812.786 74.557 812.734 75.4997C812.692 76.432 812.13 76.8956 811.046 76.8956C809.38 76.7028 808.369 77.0726 808.026 77.9997C807.677 78.932 807.677 79.9893 808.026 81.1664C808.369 82.3487 808.838 83.3331 809.421 84.1247C809.724 84.5153 810.072 84.9112 810.463 85.3122C810.849 85.7028 811.197 86.0935 811.505 86.4789C815.239 84.7185 818.703 83.3435 821.901 82.3539C825.093 81.3695 827.484 80.531 829.067 79.8331Z" />
  <path d="M903.619 42.9371C904.504 43.4267 905.415 44.1871 906.348 45.2288C907.275 46.26 907.692 47.3121 907.598 48.3954C907.499 49.4788 907.056 50.0985 906.264 50.2496C905.483 50.3902 904.65 50.2183 903.764 49.7288C899.915 47.76 895.874 46.4319 891.639 45.7496C887.415 45.0569 883.186 44.5621 878.952 44.2704C870.587 43.7704 862.181 43.5725 853.723 43.6663C853.624 43.6663 853.52 43.6663 853.41 43.6663C853.311 43.6663 853.264 43.6663 853.264 43.6663C848.942 53.2235 844.983 62.9267 841.389 72.7704C837.79 82.6038 834.936 92.5933 832.827 102.729C830.712 112.864 829.759 123.198 829.952 133.729C829.952 134.906 829.556 135.546 828.764 135.645C827.973 135.739 827.067 135.468 826.035 134.833C825.009 134.192 824.098 133.401 823.306 132.458C822.514 131.526 822.119 130.625 822.119 129.75C821.827 114.776 823.754 100.156 827.889 85.8954C832.014 71.635 837.025 57.7079 842.931 44.1246C828.764 44.9058 814.744 46.6246 800.869 49.2913C799.983 49.4892 799.025 49.2444 797.994 48.5621C796.952 47.8694 796.067 47.0308 795.327 46.0413C794.593 45.0569 794.176 44.1194 794.077 43.2288C793.983 42.3433 794.379 41.8017 795.264 41.6038C803.723 40.036 812.238 38.76 820.806 37.7704C829.363 36.786 837.973 36.1975 846.639 35.9996C848.207 32.5569 849.775 29.1402 851.348 25.7496C852.931 22.3485 854.556 18.9735 856.223 15.6246C856.608 14.7392 857.296 14.3694 858.285 14.5204C859.27 14.6767 860.254 15.1454 861.244 15.9371C862.228 16.7183 862.994 17.5985 863.535 18.5829C864.077 19.5725 864.15 20.4527 863.764 21.2287C862.567 23.6871 861.41 26.1246 860.285 28.5413C859.16 30.9579 857.999 33.3485 856.806 35.7079C862.025 35.7079 867.369 35.8069 872.827 35.9996C878.296 36.1975 883.665 36.8121 888.931 37.8538C894.192 38.885 899.087 40.5777 903.619 42.9371Z" />
  <path d="M905.97 80.7288C906.955 79.9371 908.012 79.8121 909.137 80.3538C910.272 80.8954 911.137 81.7079 911.72 82.7913C912.314 83.8746 912.168 84.8121 911.283 85.6038C907.835 88.6454 904.366 91.6454 900.866 94.6038C897.377 97.5621 893.668 100.171 889.741 102.437C887.96 103.52 886.017 104.526 883.908 105.458C881.793 106.385 879.658 106.708 877.491 106.416C875.226 106.218 873.252 105.333 871.574 103.75C869.908 102.177 868.726 100.312 868.033 98.1454C867.642 96.7704 867.496 95.4475 867.595 94.1663C867.689 92.8902 867.934 91.661 868.324 90.4788C864.392 93.036 860.658 95.9683 857.116 99.2704C853.574 102.562 849.543 105.088 845.012 106.854C844.028 107.255 842.97 107.083 841.845 106.333C840.71 105.593 839.798 104.635 839.116 103.458C838.423 102.276 838.173 101.192 838.366 100.208C839.356 95.7808 841.054 91.4735 843.47 87.2913C845.877 83.1142 848.897 79.6454 852.533 76.8954C855.491 74.7288 858.616 73.8694 861.908 74.3121C865.199 74.76 867.929 76.3538 870.095 79.1038C870.887 78.8121 871.679 78.5204 872.47 78.2288C873.455 78.0204 874.585 78.3642 875.866 79.2496C876.642 79.8485 877.377 80.5621 878.074 81.3954C878.767 82.2288 879.163 83.0413 879.262 83.8329C879.356 84.3225 879.309 84.7652 879.116 85.1663C879.017 86.3485 878.767 87.4788 878.366 88.5621C877.976 89.635 877.58 90.7652 877.179 91.9579C876.788 93.0308 876.496 94.1038 876.304 95.1871C876.106 96.2704 875.866 97.4058 875.574 98.5829C875.668 98.5829 875.741 98.5829 875.783 98.5829C875.835 98.5829 875.913 98.5829 876.012 98.5829C878.179 98.2913 880.684 97.4579 883.533 96.0829C886.392 94.7079 889.272 93.0621 892.179 91.1454C895.08 89.2183 897.762 87.3225 900.22 85.4579C902.679 83.5829 904.595 82.01 905.97 80.7288ZM852.679 90.6246C854.647 89.0413 856.564 87.4944 858.429 85.9788C860.304 84.4527 862.272 83.0517 864.345 81.7704C864.246 81.7704 864.199 81.7704 864.199 81.7704C864.002 81.7704 863.752 81.8017 863.449 81.8538C863.158 81.8954 862.866 81.9683 862.574 82.0621C861.783 82.26 861.017 82.6038 860.283 83.1038C859.543 83.5933 858.877 84.0777 858.283 84.5621C857.21 85.4527 856.231 86.3902 855.345 87.3746C854.455 88.3642 853.663 89.3485 852.97 90.3329C852.871 90.4319 852.824 90.51 852.824 90.5621C852.824 90.6038 852.772 90.6246 852.679 90.6246Z" />
  <path d="M951.883 80.8745C952.967 80.3902 953.972 80.4943 954.904 81.187C955.847 81.8693 956.388 82.7027 956.529 83.687C956.68 84.6766 956.118 85.4579 954.842 86.0412C950.508 88.0152 946.123 89.9579 941.696 91.8745C937.263 93.7912 932.842 95.7391 928.425 97.7079C926.159 98.6975 923.743 99.7495 921.175 100.875C918.618 102.01 916.008 102.697 913.342 102.937C910.685 103.187 908.18 102.572 905.821 101.104C903.17 99.4266 901.503 97.2079 900.821 94.4579C900.128 91.7079 900.227 88.885 901.112 85.9787C901.987 83.0777 903.414 80.5204 905.383 78.312C907.352 76.0933 909.664 74.6141 912.321 73.8745C914.987 73.1245 917.743 73.5933 920.592 75.2704C921.383 75.76 922.263 76.4943 923.237 77.4787C924.222 78.4683 924.664 79.5516 924.571 80.7287C924.472 81.7183 924.008 82.3068 923.175 82.4995C922.342 82.6975 921.529 82.5516 920.737 82.062C918.862 80.9787 917.138 80.9318 915.571 81.9162C913.998 82.9058 912.675 84.3068 911.592 86.1245C910.508 87.9475 909.717 89.5412 909.217 90.9162C908.534 92.7912 908.388 93.9527 908.779 94.3954C909.164 94.8277 909.467 95.0412 909.675 95.0412C911.435 94.8485 914.112 94.2391 917.696 93.2079C921.289 92.1662 925.227 90.911 929.508 89.437C933.8 87.9683 937.956 86.4683 941.987 84.937C946.029 83.411 949.326 82.0568 951.883 80.8745Z" />
  <path d="M982.005 17.5413C982.391 16.6559 983.078 16.2861 984.068 16.4372C985.052 16.5934 986.036 17.0622 987.026 17.8538C988.01 18.6351 988.776 19.5153 989.318 20.4997C989.859 21.4892 989.927 22.3695 989.526 23.1455C981.068 40.3851 973.094 57.9528 965.609 75.8538C967.677 74.1872 969.891 72.7913 972.255 71.6663C974.615 70.5309 976.927 70.4528 979.193 71.4372C980.177 71.8278 981.135 72.6403 982.068 73.8747C983.01 75.0986 983.338 76.3017 983.047 77.4788C982.057 81.4267 980.213 84.8486 977.505 87.7497C974.797 90.6559 971.526 92.7913 967.693 94.1663C968.078 96.9163 969.135 99.3955 970.859 101.604C972.578 103.823 974.818 105.526 977.568 106.708C978.552 107.093 978.948 107.755 978.755 108.687C978.557 109.63 978.036 110.567 977.193 111.5C976.359 112.442 975.427 113.187 974.401 113.729C973.37 114.271 972.463 114.385 971.672 114.083C967.724 112.317 964.745 109.812 962.734 106.562C960.719 103.312 959.661 99.7705 959.568 95.9372C957.203 99.1872 955.286 102.484 953.818 105.833C953.411 106.916 952.625 107.302 951.443 107C950.167 106.802 948.838 105.942 947.463 104.416C946.088 102.885 945.646 101.531 946.13 100.354C956.656 72.1195 968.615 44.5153 982.005 17.5413Z" />
  <path d="M1106.01 15.1871C1107.29 15.5777 1108.49 16.4111 1109.61 17.6871C1110.75 18.9683 1111.22 20.1454 1111.03 21.2288C1111.03 21.4371 1110.98 21.6402 1110.88 21.8329C1103.3 36.6975 1095.97 51.635 1088.88 66.6454C1081.8 81.6454 1075.55 97.0204 1070.13 112.77C1069.84 113.755 1069.22 114.171 1068.28 114.02C1067.35 113.864 1066.39 113.421 1065.41 112.687C1064.43 111.948 1063.65 111.062 1063.05 110.02C1062.47 108.989 1062.32 108.031 1062.61 107.145C1063.7 104.005 1064.8 100.838 1065.93 97.6454C1067.06 94.4371 1068.27 91.3069 1069.55 88.2496C1065.81 92.1975 1061.75 95.7913 1057.36 99.0413C1052.99 102.276 1048.09 104.88 1042.68 106.854C1041.69 107.255 1040.63 107.083 1039.51 106.333C1038.37 105.593 1037.48 104.635 1036.84 103.458C1036.21 102.276 1035.98 101.192 1036.18 100.208C1037.17 95.7808 1038.84 91.4736 1041.2 87.2913C1043.56 83.1142 1046.57 79.6454 1050.22 76.8954C1052.77 74.9267 1055.52 74.0152 1058.47 74.1663C1061.43 74.3069 1063.99 75.3642 1066.16 77.3329C1066.74 76.6402 1067.28 75.9996 1067.78 75.4163C1074.86 66.3642 1081.26 56.7913 1086.97 46.7079C1092.68 36.6142 1098.08 26.4475 1103.2 16.2079C1103.31 16.1142 1103.36 16.0152 1103.36 15.9163C1103.75 15.3329 1104.34 15.0413 1105.13 15.0413C1105.43 15.0413 1105.72 15.0933 1106.01 15.1871ZM1048.13 94.3121C1050.8 92.635 1053.31 90.7392 1055.68 88.6246C1058.04 86.5152 1060.3 84.2808 1062.47 81.9163C1062.27 81.8225 1062.12 81.7704 1062.01 81.7704C1061.72 81.7704 1061.43 81.8017 1061.13 81.8538C1060.84 81.8954 1060.54 81.9683 1060.24 82.0621C1059.46 82.26 1058.7 82.6038 1057.95 83.1038C1057.21 83.5933 1056.55 84.0777 1055.97 84.5621C1054.98 85.4527 1054.04 86.3902 1053.16 87.3746C1052.26 88.3642 1051.43 89.3486 1050.66 90.3329C1049.76 91.6142 1048.93 92.9371 1048.13 94.3121Z" />
  <path d="M1133.46 81.1662C1134.45 80.3902 1135.53 80.2704 1136.71 80.8121C1137.89 81.3537 1138.72 82.1662 1139.21 83.2496C1139.71 84.3225 1139.47 85.1558 1138.48 85.7496C1132.68 89.5829 1126.7 93.4735 1120.55 97.4162C1114.39 101.343 1108.02 104.489 1101.44 106.854C1098.98 107.739 1096.57 108.109 1094.21 107.958C1091.84 107.817 1089.77 106.614 1088 104.354C1086.23 101.989 1085.61 99.3642 1086.15 96.4579C1086.69 93.5569 1087.81 90.7808 1089.48 88.1246C1091.15 85.4579 1092.83 83.2392 1094.5 81.4579C1095.97 79.7912 1097.74 78.2704 1099.82 76.8954C1101.88 75.5204 1104.02 74.7392 1106.23 74.5412C1108.44 74.3329 1110.48 75.2652 1112.36 77.3329C1114.04 78.9996 1114.72 80.6767 1114.42 82.3537C1114.13 84.0204 1113.22 85.5725 1111.69 86.9996C1110.16 88.4319 1108.36 89.7392 1106.3 90.9162C1104.24 92.0985 1102.24 93.135 1100.32 94.0204C1098.4 94.911 1096.9 95.6454 1095.82 96.2287C1095.33 97.3121 1094.94 98.3954 1094.65 99.4787C1096.82 99.1871 1099.62 98.4058 1103.07 97.1246C1106.51 95.8329 1110.17 94.26 1114.05 92.3954C1117.93 90.5204 1121.6 88.6037 1125.05 86.6454C1128.49 84.6767 1131.3 82.8485 1133.46 81.1662Z" />
  <path d="M1152.38 69.8121C1152.67 68.8277 1153.28 68.4111 1154.21 68.5621C1155.14 68.7027 1156.09 69.1402 1157.08 69.8746C1158.07 70.6142 1158.85 71.4996 1159.44 72.5413C1160.03 73.5725 1160.19 74.4788 1159.9 75.2705C1158.71 78.5205 1157.36 81.6767 1155.83 84.7288C1154.3 87.7705 1152.61 90.7705 1150.75 93.7288C1148.88 96.7705 1146.9 99.5725 1144.83 102.125C1144.15 103.109 1143.36 104.067 1142.48 105C1141.59 105.942 1140.51 106.562 1139.23 106.854C1137.35 107.145 1135.78 106.698 1134.5 105.52C1133.22 104.338 1132.27 102.859 1131.63 101.083C1130.99 99.3225 1130.67 97.7027 1130.67 96.2288C1130.57 92.7861 1130.87 89.3694 1131.56 85.9788C1132.24 82.5777 1133.22 79.3486 1134.5 76.2913C1134.9 75.3225 1135.57 74.9111 1136.5 75.0621C1137.43 75.2027 1138.41 75.6663 1139.44 76.458C1140.48 77.2392 1141.27 78.1194 1141.81 79.1038C1142.35 80.0934 1142.48 80.9788 1142.19 81.7705C1141.49 83.4371 1140.88 85.1142 1140.33 86.7913C1139.79 88.458 1139.38 90.1246 1139.08 91.7913C1139.08 92.1975 1139.03 92.6455 1138.94 93.1455C1138.84 93.635 1138.74 94.1663 1138.65 94.7496C1138.84 94.3642 1139.03 94.0205 1139.23 93.7288C1139.42 93.4267 1139.61 93.1767 1139.81 92.9788C1141.59 90.5205 1143.21 88.0621 1144.69 85.6038C1146.16 83.0517 1147.53 80.4475 1148.81 77.7913C1150.1 75.1246 1151.29 72.4684 1152.38 69.8121Z" />
  <path d="M1205.06 81.1662C1206.05 80.3902 1207.13 80.2704 1208.31 80.8121C1209.49 81.3537 1210.32 82.1662 1210.81 83.2496C1211.31 84.3225 1211.07 85.1558 1210.08 85.7496C1204.28 89.5829 1198.3 93.4735 1192.14 97.4162C1185.99 101.343 1179.62 104.489 1173.04 106.854C1170.58 107.739 1168.17 108.109 1165.81 107.958C1163.44 107.817 1161.37 106.614 1159.6 104.354C1157.83 101.989 1157.21 99.3642 1157.75 96.4579C1158.29 93.5569 1159.41 90.7808 1161.08 88.1246C1162.75 85.4579 1164.43 83.2392 1166.1 81.4579C1167.57 79.7912 1169.34 78.2704 1171.42 76.8954C1173.48 75.5204 1175.62 74.7392 1177.83 74.5412C1180.04 74.3329 1182.08 75.2652 1183.96 77.3329C1185.63 78.9996 1186.32 80.6767 1186.02 82.3537C1185.73 84.0204 1184.82 85.5725 1183.29 86.9996C1181.76 88.4319 1179.96 89.7392 1177.89 90.9162C1175.84 92.0985 1173.84 93.135 1171.92 94.0204C1170 94.911 1168.5 95.6454 1167.42 96.2287C1166.93 97.3121 1166.54 98.3954 1166.25 99.4787C1168.42 99.1871 1171.22 98.4058 1174.67 97.1246C1178.11 95.8329 1181.77 94.26 1185.64 92.3954C1189.53 90.5204 1193.2 88.6037 1196.64 86.6454C1200.09 84.6767 1202.89 82.8485 1205.06 81.1662Z" />
  <path d="M1239.62 81.4581C1240.5 80.5831 1241.42 80.3435 1242.41 80.729C1243.4 81.1196 1244.13 81.8071 1244.62 82.7915C1245.12 83.781 1244.92 84.7185 1244.04 85.604C1240.69 89.2446 1236.72 92.5415 1232.14 95.4998C1227.57 98.4477 1222.92 100.651 1218.2 102.125C1215.94 102.818 1213.75 103.187 1211.64 103.229C1209.53 103.281 1207.63 102.323 1205.95 100.354C1204.29 98.3019 1203.26 96.0415 1202.87 93.5831C1202.47 91.1144 1202.56 88.5988 1203.14 86.0415C1203.84 82.5988 1204.8 79.1821 1206.02 75.7915C1207.25 72.3904 1208.46 69.0154 1209.64 65.6665C1212 58.6821 1214.46 51.6977 1217.04 44.7081C1219.69 37.531 1222.42 30.3488 1225.22 23.1665C1228.03 15.9738 1230.95 8.83313 1234 1.74979C1234.4 0.864376 1235.06 0.468542 1236 0.562292C1236.92 0.661251 1237.88 1.10396 1238.87 1.89563C1239.85 2.68729 1240.64 3.60396 1241.22 4.64563C1241.82 5.67688 1241.92 6.57792 1241.54 7.35396C1238.29 15.1352 1235.13 22.9373 1232.08 30.7706C1229.04 38.5935 1226.08 46.4373 1223.22 54.3123C1220.38 62.0779 1217.67 69.8956 1215.1 77.7706C1214.61 79.0519 1213.95 80.7029 1213.12 82.729C1212.29 84.7446 1211.54 86.8644 1210.89 89.0831C1210.25 91.2915 1210.04 93.3279 1210.25 95.1873C1213.88 94.604 1217.71 93.531 1221.75 91.9581C1225.79 90.3748 1229.42 88.604 1232.66 86.6456C1235.91 84.6769 1238.23 82.9477 1239.62 81.4581Z" />
  <path d="M1257.48 80.1456C1257.86 83.9789 1257.54 87.7446 1256.52 91.4373C1255.49 95.1196 1253.79 98.4373 1251.43 101.396C1249.27 104.255 1246.63 106.104 1243.52 106.937C1240.42 107.771 1237.5 106.656 1234.75 103.604C1232.29 100.854 1231.26 97.8539 1231.64 94.6039C1232.03 91.3539 1233.31 88.2081 1235.48 85.1664C1237.64 82.1144 1240.15 79.3852 1243 76.9789C1245.86 74.5623 1248.47 72.7654 1250.83 71.5831C1251.81 71.0831 1252.92 71.281 1254.14 72.1664C1255.38 73.0571 1256.34 74.1664 1257.02 75.4998C1257.71 76.8227 1257.72 77.8748 1257.04 78.6664C1257.23 79.156 1257.38 79.6456 1257.48 80.1456ZM1247.43 90.0206C1248.32 88.0623 1248.96 85.9998 1249.35 83.8331C1247.88 85.1144 1246.55 86.4894 1245.37 87.9581C1243.9 89.8331 1242.67 91.8539 1241.68 94.0206C1241.39 94.5102 1241.14 94.9998 1240.93 95.4998C1240.74 95.9894 1240.54 96.4737 1240.35 96.9581C1240.35 97.0727 1240.32 97.3227 1240.27 97.7081C1240.23 98.0987 1240.16 98.4373 1240.06 98.7289C1240.64 98.2446 1241.21 97.8279 1241.75 97.4789C1242.29 97.1352 1242.81 96.7185 1243.31 96.2289C1244.98 94.3539 1246.35 92.2862 1247.43 90.0206Z" />
  <path d="M1301.18 71.2705C1303.14 73.1455 1304.25 75.3695 1304.5 77.9372C1304.75 80.4945 1304.42 82.9528 1303.54 85.3122C1302.35 88.2601 1300.6 91.307 1298.29 94.458C1295.98 97.6143 1293.27 100.271 1290.16 102.437C1287.06 104.604 1283.79 105.687 1280.35 105.687C1279.47 105.687 1278.52 105.213 1277.47 104.271C1276.44 103.338 1275.68 102.38 1275.18 101.396C1270.86 108.088 1267.03 115.073 1263.68 122.354C1260.34 129.646 1257.39 136.979 1254.83 144.354C1254.53 145.338 1253.91 145.781 1252.97 145.687C1252.05 145.588 1251.09 145.146 1250.1 144.354C1249.12 143.562 1248.3 142.651 1247.66 141.625C1247.03 140.593 1246.85 139.687 1247.14 138.896C1251.09 127.479 1254.97 116.062 1258.81 104.646C1262.64 93.2289 1266.53 81.8122 1270.47 70.3955C1270.77 69.4112 1271.38 68.9945 1272.31 69.1455C1273.25 69.2862 1274.21 69.7497 1275.18 70.5414C1276.17 71.333 1276.95 72.2237 1277.54 73.208C1278.13 74.182 1278.29 75.1143 1278 75.9997C1277.51 77.4893 1277.02 78.9685 1276.52 80.4372C1276.03 81.9112 1275.54 83.3851 1275.04 84.8539C1276.62 82.8018 1278.32 80.7862 1280.14 78.8122C1281.96 76.8435 1283.9 75.0205 1285.97 73.3539C1288.33 71.2862 1290.79 69.7862 1293.35 68.8539C1295.9 67.9112 1298.52 68.7185 1301.18 71.2705ZM1295.56 80.583C1295.77 80.083 1295.92 79.5726 1296.02 79.0414C1296.11 78.4997 1296.21 77.9789 1296.31 77.4789C1295.9 77.6768 1295.56 77.9268 1295.27 78.2289C1294.88 78.5205 1294.46 78.8435 1294.02 79.1872C1293.57 79.5205 1293.15 79.8435 1292.77 80.1455C1290.99 81.6195 1289.31 83.2185 1287.72 84.9372C1286.15 86.6612 1284.63 88.406 1283.16 90.1664C1281.29 92.432 1279.42 94.9476 1277.56 97.708C1280.21 97.4164 1282.71 96.3122 1285.08 94.3955C1287.44 92.4685 1289.53 90.2237 1291.35 87.6664C1293.17 85.1143 1294.57 82.7497 1295.56 80.583Z" />
  <path d="M1351.51 81.1662C1352.49 80.3902 1353.58 80.2704 1354.76 80.8121C1355.94 81.3537 1356.77 82.1662 1357.26 83.2496C1357.76 84.3225 1357.51 85.1558 1356.53 85.7496C1350.72 89.5829 1344.74 93.4735 1338.59 97.4162C1332.44 101.343 1326.07 104.489 1319.49 106.854C1317.03 107.739 1314.62 108.109 1312.26 107.958C1309.88 107.817 1307.82 106.614 1306.05 104.354C1304.27 101.989 1303.65 99.3642 1304.2 96.4579C1304.74 93.5569 1305.85 90.7808 1307.53 88.1246C1309.2 85.4579 1310.87 83.2392 1312.55 81.4579C1314.02 79.7912 1315.79 78.2704 1317.86 76.8954C1319.93 75.5204 1322.07 74.7392 1324.28 74.5412C1326.49 74.3329 1328.53 75.2652 1330.4 77.3329C1332.08 78.9996 1332.77 80.6767 1332.47 82.3537C1332.18 84.0204 1331.26 85.5725 1329.74 86.9996C1328.21 88.4319 1326.41 89.7392 1324.34 90.9162C1322.28 92.0985 1320.29 93.135 1318.36 94.0204C1316.45 94.911 1314.95 95.6454 1313.86 96.2287C1313.37 97.3121 1312.99 98.3954 1312.7 99.4787C1314.86 99.1871 1317.66 98.4058 1321.11 97.1246C1324.56 95.8329 1328.22 94.26 1332.09 92.3954C1335.98 90.5204 1339.64 88.6037 1343.09 86.6454C1346.53 84.6767 1349.34 82.8485 1351.51 81.1662Z" />
  <path d="M1379.57 80.2914C1380.05 81.0726 1380.22 81.8851 1380.07 82.7289C1379.93 83.5622 1379.32 84.0309 1378.23 84.1247C1377.44 84.1247 1376.7 83.906 1376 83.458C1375.32 83.0153 1374.69 82.4528 1374.11 81.7705C1373.12 81.7705 1371.79 82.3643 1370.11 83.5414C1368.44 84.7237 1367.31 85.5101 1366.71 85.8955C1365.63 86.6872 1364.59 87.5518 1363.61 88.4789C1362.63 89.4112 1361.66 90.3695 1360.67 91.3539C1356.43 95.8851 1353.09 100.802 1350.63 106.125C1350.05 107.401 1349.07 107.739 1347.69 107.146C1346.31 106.562 1345.1 105.573 1344.07 104.187C1343.03 102.812 1342.71 101.635 1343.11 100.666C1344.68 96.2393 1346.33 91.8851 1348.05 87.6039C1349.77 83.3122 1351.42 78.9528 1352.98 74.5205C1353.38 73.5518 1354.13 73.1872 1355.21 73.4372C1356.3 73.6768 1357.38 74.2862 1358.46 75.2705C1359.55 76.2601 1360.28 77.2914 1360.67 78.3747C1364.01 75.807 1367.38 74.4059 1370.78 74.1664C1374.18 73.9164 1377.11 75.958 1379.57 80.2914Z" />
  <path d="M50.7739 160.509C51.2583 159.623 52.0135 159.253 53.0448 159.404C54.0864 159.561 55.0708 160.029 56.0031 160.821C56.9458 161.602 57.6906 162.483 58.2323 163.467C58.7739 164.457 58.7948 165.337 58.2948 166.113C54.2635 172.811 50.5031 179.727 47.0031 186.863C43.5135 194.003 40.2427 201.259 37.1906 208.634C39.0656 206.873 41.0552 205.545 43.1698 204.654C45.2792 203.769 47.4667 204.061 49.7323 205.529C51.8989 206.92 53.3208 208.696 54.0031 210.863C54.6958 213.019 54.8989 215.3 54.6073 217.717C54.3156 220.134 53.8677 222.425 53.2739 224.592C52.1906 228.134 50.3208 231.207 47.6698 233.8C45.0135 236.41 41.7167 237.618 37.7739 237.425C36.8989 237.425 35.9875 237.009 35.0448 236.175C34.1125 235.342 33.3469 234.404 32.7531 233.363C32.1698 232.332 31.8989 231.425 31.9406 230.634C31.9927 229.842 32.6125 229.498 33.7948 229.592C36.6542 229.707 39.0448 228.821 40.9614 226.946C42.8781 225.071 44.2792 222.904 45.1698 220.446C45.5552 219.363 45.8208 218.279 45.9614 217.196C46.1125 216.113 46.2375 214.983 46.3364 213.8C46.0448 214.108 45.7531 214.358 45.4614 214.55C45.1698 214.748 44.8677 214.941 44.5656 215.134C36.4927 222.623 30.1958 231.279 25.6698 241.113C25.3781 241.998 24.7427 242.394 23.7531 242.3C22.7687 242.201 21.7896 241.759 20.8156 240.967C19.8312 240.175 19.0448 239.264 18.4614 238.238C17.8677 237.207 17.7635 236.3 18.1489 235.509C22.0812 222.524 26.7531 209.686 32.1698 196.988C37.5864 184.279 43.7844 172.123 50.7739 160.509Z" />
  <path d="M118.381 213.363C119.365 212.571 120.423 212.446 121.548 212.988C122.683 213.529 123.548 214.342 124.131 215.425C124.725 216.509 124.579 217.446 123.693 218.238C120.246 221.279 116.777 224.279 113.277 227.238C109.787 230.196 106.079 232.805 102.152 235.071C100.371 236.154 98.4278 237.16 96.3184 238.092C94.2039 239.019 92.0684 239.342 89.9018 239.05C87.6362 238.852 85.6622 237.967 83.9851 236.384C82.3184 234.811 81.1362 232.946 80.4434 230.779C80.0528 229.404 79.907 228.082 80.0059 226.8C80.0997 225.524 80.3445 224.295 80.7351 223.113C76.8028 225.67 73.0684 228.602 69.5268 231.904C65.9851 235.196 61.9539 237.722 57.4226 239.488C56.4382 239.889 55.3809 239.717 54.2559 238.967C53.1205 238.227 52.2091 237.269 51.5268 236.092C50.8341 234.91 50.5841 233.826 50.7768 232.842C51.7664 228.415 53.4643 224.108 55.8809 219.925C58.2872 215.748 61.308 212.279 64.9434 209.529C67.9018 207.363 71.0268 206.503 74.3184 206.946C77.6101 207.394 80.3393 208.988 82.5059 211.738C83.2976 211.446 84.0893 211.154 84.8809 210.863C85.8653 210.654 86.9955 210.998 88.2768 211.884C89.0528 212.483 89.7872 213.196 90.4851 214.029C91.1778 214.863 91.5737 215.675 91.6726 216.467C91.7664 216.957 91.7195 217.399 91.5268 217.8C91.4278 218.983 91.1778 220.113 90.7768 221.196C90.3862 222.269 89.9903 223.399 89.5893 224.592C89.1987 225.665 88.907 226.738 88.7143 227.821C88.5164 228.904 88.2768 230.04 87.9851 231.217C88.0789 231.217 88.1518 231.217 88.1934 231.217C88.2455 231.217 88.3237 231.217 88.4226 231.217C90.5893 230.925 93.0945 230.092 95.9434 228.717C98.8028 227.342 101.683 225.696 104.589 223.779C107.49 221.852 110.173 219.957 112.631 218.092C115.089 216.217 117.006 214.644 118.381 213.363ZM65.0893 223.259C67.058 221.675 68.9747 220.128 70.8393 218.613C72.7143 217.087 74.683 215.686 76.7559 214.404C76.657 214.404 76.6101 214.404 76.6101 214.404C76.4122 214.404 76.1622 214.436 75.8601 214.488C75.5684 214.529 75.2768 214.602 74.9851 214.696C74.1934 214.894 73.4278 215.238 72.6934 215.738C71.9539 216.227 71.2872 216.712 70.6934 217.196C69.6205 218.087 68.6414 219.024 67.7559 220.009C66.8653 220.998 66.0737 221.983 65.3809 222.967C65.282 223.066 65.2351 223.144 65.2351 223.196C65.2351 223.238 65.183 223.259 65.0893 223.259Z" />
  <path d="M146.294 212.467C147.471 212.082 148.481 212.311 149.315 213.155C150.148 213.988 150.612 214.998 150.71 216.175C150.804 217.358 150.216 218.191 148.94 218.675C143.325 220.842 138.257 223.696 133.731 227.238C134.424 229.405 134.627 231.571 134.335 233.738C133.929 236.097 132.966 238.457 131.44 240.821C129.924 243.181 128.033 244.806 125.773 245.696C123.507 246.582 121.148 245.993 118.69 243.925C116.023 241.66 114.721 239.269 114.773 236.759C114.815 234.243 115.773 231.759 117.648 229.3C119.523 226.842 121.835 224.483 124.585 222.217C123.502 220.941 122.388 219.738 121.252 218.613C120.127 217.477 119.169 216.123 118.377 214.55C117.502 212.873 117.065 210.977 117.065 208.863C117.065 206.754 117.638 204.983 118.773 203.55C119.898 202.123 121.737 201.457 124.294 201.55C125.377 201.649 126.408 202.123 127.398 202.967C128.382 203.8 129.117 204.712 129.606 205.696C129.898 206.379 130.013 207.191 129.96 208.134C129.919 209.066 129.356 209.53 128.273 209.53C126.606 209.337 125.596 209.707 125.252 210.634C124.903 211.566 124.903 212.623 125.252 213.8C125.596 214.983 126.065 215.967 126.648 216.759C126.95 217.149 127.299 217.545 127.69 217.946C128.075 218.337 128.424 218.727 128.731 219.113C132.466 217.352 135.929 215.977 139.127 214.988C142.32 214.004 144.71 213.165 146.294 212.467Z" />
  <path d="M185.845 213.801C186.829 213.024 187.913 212.905 189.095 213.446C190.272 213.988 191.105 214.801 191.595 215.884C192.095 216.957 191.85 217.79 190.866 218.384C185.058 222.217 179.079 226.108 172.928 230.051C166.772 233.978 160.407 237.123 153.824 239.488C151.366 240.373 148.954 240.743 146.595 240.592C144.22 240.452 142.152 239.248 140.386 236.988C138.61 234.623 137.991 231.998 138.532 229.092C139.074 226.191 140.189 223.415 141.866 220.759C143.532 218.092 145.209 215.873 146.886 214.092C148.355 212.426 150.126 210.905 152.199 209.53C154.267 208.155 156.407 207.373 158.616 207.176C160.824 206.967 162.866 207.899 164.741 209.967C166.418 211.634 167.105 213.311 166.803 214.988C166.511 216.655 165.6 218.207 164.074 219.634C162.543 221.066 160.746 222.373 158.678 223.551C156.621 224.733 154.626 225.769 152.699 226.655C150.782 227.545 149.282 228.28 148.199 228.863C147.709 229.946 147.324 231.03 147.032 232.113C149.199 231.821 152.001 231.04 155.449 229.759C158.892 228.467 162.553 226.894 166.428 225.03C170.314 223.155 173.98 221.238 177.428 219.28C180.871 217.311 183.678 215.483 185.845 213.801Z" />
  <path d="M245.049 147.821C246.325 148.212 247.528 149.045 248.653 150.321C249.789 151.602 250.263 152.779 250.07 153.863C250.07 154.071 250.018 154.274 249.924 154.467C242.341 169.332 235.008 184.269 227.924 199.279C220.841 214.279 214.591 229.654 209.174 245.404C208.883 246.389 208.263 246.806 207.32 246.654C206.388 246.498 205.429 246.056 204.445 245.321C203.471 244.582 202.685 243.696 202.091 242.654C201.508 241.623 201.362 240.665 201.653 239.779C202.737 236.639 203.841 233.472 204.966 230.279C206.101 227.071 207.31 223.941 208.591 220.884C204.851 224.832 200.789 228.425 196.403 231.675C192.028 234.91 187.133 237.514 181.716 239.488C180.731 239.889 179.674 239.717 178.549 238.967C177.414 238.227 176.523 237.269 175.883 236.092C175.247 234.91 175.023 233.826 175.216 232.842C176.205 228.415 177.877 224.108 180.237 219.925C182.601 215.748 185.606 212.279 189.258 209.529C191.81 207.561 194.56 206.649 197.508 206.8C200.466 206.941 203.028 207.998 205.195 209.967C205.778 209.274 206.32 208.634 206.82 208.05C213.903 198.998 220.299 189.425 226.008 179.342C231.716 169.248 237.122 159.082 242.237 148.842C242.346 148.748 242.403 148.649 242.403 148.55C242.789 147.967 243.383 147.675 244.174 147.675C244.466 147.675 244.758 147.727 245.049 147.821ZM187.174 226.946C189.841 225.269 192.351 223.373 194.716 221.259C197.075 219.149 199.341 216.915 201.508 214.55C201.31 214.457 201.159 214.404 201.049 214.404C200.758 214.404 200.466 214.436 200.174 214.488C199.883 214.529 199.58 214.602 199.278 214.696C198.497 214.894 197.737 215.238 196.987 215.738C196.247 216.227 195.591 216.712 195.008 217.196C194.018 218.087 193.08 219.024 192.195 220.009C191.304 220.998 190.471 221.983 189.695 222.967C188.804 224.248 187.966 225.571 187.174 226.946Z" />
  <path d="M317.678 213.946C318.564 213.17 319.574 213.003 320.699 213.446C321.835 213.878 322.647 214.613 323.137 215.654C323.637 216.686 323.439 217.592 322.553 218.384C320.189 220.358 317.751 222.3 315.241 224.217C312.741 226.134 310.204 227.983 307.637 229.759C305.48 231.134 303.22 232.555 300.845 234.029C298.48 235.498 296.074 236.535 293.616 237.134C291.657 237.425 289.814 237.123 288.095 236.238C286.376 235.363 284.97 234.113 283.887 232.488C282.803 230.863 282.262 229.066 282.262 227.092C282.168 223.842 283.053 220.477 284.928 216.988C286.793 213.488 288.506 210.363 290.074 207.613C290.668 206.727 291.454 206.378 292.428 206.571C293.413 206.769 294.397 207.259 295.387 208.05C296.371 208.842 297.105 209.733 297.595 210.717C298.095 211.691 298.147 212.524 297.762 213.217C296.48 215.384 295.303 217.582 294.22 219.8C293.137 222.009 292.147 224.248 291.262 226.509C291.064 227.092 290.814 227.733 290.512 228.425C292.579 228.134 295.288 227.207 298.637 225.634C301.98 224.05 305.397 222.207 308.887 220.092C312.387 217.967 315.314 215.92 317.678 213.946ZM304.407 198.592C303.808 199.774 302.793 200.071 301.366 199.488C299.949 198.894 298.699 197.936 297.616 196.613C296.532 195.279 296.23 194.071 296.72 192.988C297.605 191.227 298.246 189.925 298.637 189.092C299.038 188.248 299.241 187.821 299.241 187.821C299.824 186.936 300.605 186.566 301.595 186.717C302.579 186.873 303.538 187.342 304.47 188.134C305.397 188.915 306.137 189.795 306.678 190.779C307.22 191.769 307.293 192.649 306.907 193.425C306.907 193.425 306.751 193.753 306.449 194.404C306.157 195.045 305.475 196.441 304.407 198.592Z" />
  <path d="M377.759 213.217C378.842 212.717 379.827 212.816 380.717 213.509C381.603 214.207 382.119 215.066 382.259 216.092C382.41 217.123 381.848 217.936 380.572 218.529C376.832 220.404 373.139 222.399 369.488 224.509C365.848 226.623 362.207 228.811 358.572 231.071C356.405 232.457 354.092 233.957 351.634 235.571C349.176 237.196 346.619 238.352 343.967 239.05C341.395 239.634 339.155 238.936 337.238 236.967C335.322 235.009 334.556 232.748 334.947 230.196C335.155 228.727 335.53 227.274 336.072 225.842C336.613 224.415 337.223 222.962 337.905 221.488C329.447 226.212 322.061 232.305 315.759 239.779C314.983 240.764 313.978 240.889 312.738 240.154C311.504 239.415 310.447 238.363 309.572 236.988C308.686 235.613 308.337 234.477 308.53 233.592C309.52 229.858 310.853 226.191 312.53 222.592C314.197 218.998 316.02 215.477 317.988 212.029C318.478 211.144 319.207 210.774 320.197 210.925C321.181 211.082 322.16 211.55 323.134 212.342C324.119 213.123 324.853 214.029 325.342 215.071C325.842 216.102 325.895 216.957 325.509 217.634C325.509 217.748 325.478 217.852 325.426 217.946C325.384 218.045 325.311 218.144 325.217 218.238C331.91 213.613 339.139 210.123 346.905 207.759C347.988 207.358 349.119 207.582 350.301 208.425C351.478 209.259 352.389 210.295 353.03 211.529C353.681 212.753 353.707 213.904 353.113 214.988C351.832 217.061 350.624 219.149 349.488 221.259C348.363 223.373 347.259 225.509 346.176 227.675C351.285 225.123 356.551 222.665 361.967 220.3C367.384 217.941 372.645 215.582 377.759 213.217Z" />
  <path d="M525.096 147.675C525.596 146.79 526.356 146.42 527.388 146.571C528.414 146.712 529.419 147.175 530.408 147.967C531.393 148.759 532.127 149.649 532.617 150.634C533.117 151.608 533.122 152.488 532.638 153.28C527.804 161.352 522.898 169.446 517.929 177.571C512.971 185.686 507.83 193.727 502.513 201.696C497.789 208.587 492.94 215.457 487.971 222.3C482.997 229.134 477.658 235.655 471.95 241.863C469.685 244.321 467.054 246.826 464.054 249.384C461.054 251.936 457.877 253.613 454.533 254.405C451.283 255.097 448.398 254.509 445.888 252.634C443.388 250.759 441.544 248.394 440.367 245.55C438.877 242.102 438.164 238.389 438.221 234.405C438.273 230.42 438.544 226.655 439.033 223.113C439.518 219.071 440.252 215.04 441.242 211.009C442.226 206.967 443.356 203.03 444.638 199.196C446.997 191.519 449.851 184.04 453.2 176.759C456.544 169.467 460.336 162.378 464.575 155.488C465.06 154.811 465.768 154.613 466.7 154.905C467.643 155.196 468.554 155.79 469.429 156.675C470.315 157.566 471.002 158.53 471.492 159.571C471.992 160.602 471.997 161.55 471.513 162.425C463.148 175.915 456.658 190.28 452.033 205.53C450.95 208.78 449.981 212.061 449.138 215.363C448.304 218.655 447.643 222.024 447.158 225.467C446.752 227.441 446.476 229.462 446.325 231.53C446.185 233.582 446.117 235.597 446.117 237.571C446.117 238.165 446.117 239.123 446.117 240.446C446.117 241.78 446.211 243.082 446.408 244.363C446.601 245.639 446.997 246.425 447.596 246.717C448.289 247.217 449.346 247.118 450.763 246.425C452.19 245.743 453.565 244.91 454.888 243.925C456.221 242.936 457.185 242.248 457.783 241.863C458.961 240.873 460.117 239.842 461.242 238.759C462.377 237.675 463.492 236.592 464.575 235.509C466.935 233.05 469.169 230.519 471.283 227.905C473.408 225.295 475.497 222.665 477.554 220.009C486.414 208.592 494.685 196.759 502.367 184.509C510.044 172.248 517.622 159.967 525.096 147.675Z" />
  <path d="M565.987 213.363C566.972 212.571 568.029 212.446 569.154 212.988C570.289 213.529 571.154 214.342 571.737 215.425C572.331 216.509 572.185 217.446 571.3 218.238C567.852 221.279 564.383 224.279 560.883 227.238C557.394 230.196 553.685 232.805 549.758 235.071C547.977 236.154 546.034 237.16 543.925 238.092C541.81 239.019 539.675 239.342 537.508 239.05C535.243 238.852 533.269 237.967 531.592 236.384C529.925 234.811 528.743 232.946 528.05 230.779C527.659 229.404 527.513 228.082 527.612 226.8C527.706 225.524 527.951 224.295 528.342 223.113C524.409 225.67 520.675 228.602 517.133 231.904C513.592 235.196 509.56 237.722 505.029 239.488C504.045 239.889 502.987 239.717 501.862 238.967C500.727 238.227 499.816 237.269 499.133 236.092C498.441 234.91 498.191 233.826 498.383 232.842C499.373 228.415 501.071 224.108 503.487 219.925C505.894 215.748 508.914 212.279 512.55 209.529C515.508 207.363 518.633 206.503 521.925 206.946C525.217 207.394 527.946 208.988 530.112 211.738C530.904 211.446 531.696 211.154 532.487 210.863C533.472 210.654 534.602 210.998 535.883 211.884C536.659 212.483 537.394 213.196 538.092 214.029C538.784 214.863 539.18 215.675 539.279 216.467C539.373 216.957 539.326 217.399 539.133 217.8C539.034 218.983 538.784 220.113 538.383 221.196C537.993 222.269 537.597 223.399 537.196 224.592C536.805 225.665 536.513 226.738 536.321 227.821C536.123 228.904 535.883 230.04 535.592 231.217C535.685 231.217 535.758 231.217 535.8 231.217C535.852 231.217 535.93 231.217 536.029 231.217C538.196 230.925 540.701 230.092 543.55 228.717C546.409 227.342 549.289 225.696 552.196 223.779C555.097 221.852 557.779 219.957 560.237 218.092C562.696 216.217 564.612 214.644 565.987 213.363ZM512.696 223.259C514.664 221.675 516.581 220.128 518.446 218.613C520.321 217.087 522.289 215.686 524.362 214.404C524.263 214.404 524.217 214.404 524.217 214.404C524.019 214.404 523.769 214.436 523.467 214.488C523.175 214.529 522.883 214.602 522.592 214.696C521.8 214.894 521.034 215.238 520.3 215.738C519.56 216.227 518.894 216.712 518.3 217.196C517.227 218.087 516.248 219.024 515.362 220.009C514.472 220.998 513.68 221.983 512.987 222.967C512.888 223.066 512.842 223.144 512.842 223.196C512.842 223.238 512.789 223.259 512.696 223.259Z" />
  <path d="M625.921 213.217C627.004 212.717 627.988 212.816 628.879 213.509C629.765 214.207 630.28 215.066 630.421 216.092C630.572 217.123 630.009 217.936 628.733 218.529C624.994 220.404 621.301 222.399 617.65 224.509C614.009 226.623 610.369 228.811 606.733 231.071C604.567 232.457 602.254 233.957 599.796 235.571C597.337 237.196 594.78 238.352 592.129 239.05C589.556 239.634 587.317 238.936 585.4 236.967C583.483 235.009 582.718 232.748 583.108 230.196C583.317 228.727 583.692 227.274 584.233 225.842C584.775 224.415 585.384 222.962 586.067 221.488C577.608 226.212 570.223 232.305 563.921 239.779C563.145 240.764 562.14 240.889 560.9 240.154C559.666 239.415 558.608 238.363 557.733 236.988C556.848 235.613 556.499 234.477 556.692 233.592C557.681 229.858 559.015 226.191 560.692 222.592C562.358 218.998 564.181 215.477 566.15 212.029C566.64 211.144 567.369 210.774 568.358 210.925C569.343 211.082 570.322 211.55 571.296 212.342C572.28 213.123 573.015 214.029 573.504 215.071C574.004 216.102 574.056 216.957 573.671 217.634C573.671 217.748 573.64 217.852 573.587 217.946C573.546 218.045 573.473 218.144 573.379 218.238C580.072 213.613 587.301 210.123 595.067 207.759C596.15 207.358 597.28 207.582 598.462 208.425C599.64 209.259 600.551 210.295 601.192 211.529C601.843 212.753 601.869 213.904 601.275 214.988C599.994 217.061 598.785 219.149 597.65 221.259C596.525 223.373 595.421 225.509 594.337 227.675C599.447 225.123 604.712 222.665 610.129 220.3C615.546 217.941 620.806 215.582 625.921 213.217Z" />
  <path d="M671.394 213.509C672.477 213.024 673.483 213.128 674.415 213.821C675.358 214.503 675.899 215.337 676.04 216.321C676.191 217.311 675.628 218.092 674.352 218.675C670.019 220.649 665.634 222.592 661.206 224.509C656.774 226.425 652.352 228.373 647.936 230.342C645.67 231.331 643.253 232.384 640.686 233.509C638.128 234.644 635.519 235.331 632.852 235.571C630.196 235.821 627.691 235.206 625.331 233.738C622.68 232.061 621.014 229.842 620.331 227.092C619.639 224.342 619.738 221.519 620.623 218.613C621.498 215.712 622.925 213.154 624.894 210.946C626.863 208.727 629.175 207.248 631.831 206.509C634.498 205.759 637.253 206.227 640.102 207.904C640.894 208.394 641.774 209.128 642.748 210.113C643.733 211.102 644.175 212.186 644.081 213.363C643.983 214.352 643.519 214.941 642.686 215.134C641.852 215.331 641.04 215.186 640.248 214.696C638.373 213.613 636.649 213.566 635.081 214.55C633.509 215.54 632.186 216.941 631.102 218.759C630.019 220.581 629.227 222.175 628.727 223.55C628.045 225.425 627.899 226.587 628.29 227.029C628.675 227.462 628.977 227.675 629.186 227.675C630.946 227.483 633.623 226.873 637.206 225.842C640.8 224.8 644.738 223.545 649.019 222.071C653.311 220.602 657.467 219.102 661.498 217.571C665.54 216.045 668.837 214.691 671.394 213.509Z" />
  <path d="M689.704 212.78C690.089 216.613 689.772 220.379 688.746 224.071C687.714 227.754 686.022 231.071 683.662 234.03C681.496 236.889 678.855 238.738 675.746 239.571C672.647 240.405 669.725 239.29 666.975 236.238C664.516 233.488 663.485 230.488 663.871 227.238C664.261 223.988 665.537 220.842 667.704 217.8C669.871 214.748 672.381 212.019 675.225 209.613C678.084 207.196 680.694 205.399 683.058 204.217C684.042 203.717 685.147 203.915 686.371 204.8C687.605 205.691 688.563 206.8 689.246 208.134C689.938 209.457 689.944 210.509 689.266 211.3C689.459 211.79 689.605 212.28 689.704 212.78ZM679.662 222.655C680.548 220.696 681.188 218.634 681.579 216.467C680.105 217.748 678.777 219.123 677.6 220.592C676.126 222.467 674.897 224.488 673.912 226.655C673.621 227.144 673.371 227.634 673.162 228.134C672.964 228.623 672.772 229.108 672.579 229.592C672.579 229.707 672.548 229.957 672.496 230.342C672.454 230.733 672.386 231.071 672.287 231.363C672.871 230.879 673.433 230.462 673.975 230.113C674.516 229.769 675.037 229.353 675.537 228.863C677.204 226.988 678.579 224.92 679.662 222.655Z" />
  <path d="M751.557 213.509C752.442 212.623 753.432 212.425 754.515 212.925C755.598 213.415 756.359 214.196 756.807 215.279C757.249 216.363 757.077 217.352 756.286 218.238C753.327 221.279 750.317 224.311 747.265 227.321C744.223 230.321 740.978 232.951 737.536 235.217C735.869 236.394 734.145 237.279 732.369 237.863C730.588 238.457 728.77 238.165 726.911 236.988C724.937 235.806 723.629 234.248 722.994 232.321C722.353 230.404 722.182 228.363 722.473 226.196C722.473 226.102 722.473 226.003 722.473 225.904C722.473 225.811 722.52 225.712 722.619 225.613C720.254 227.779 717.848 229.852 715.39 231.821C712.932 233.779 710.327 235.55 707.577 237.134C705.103 238.602 702.609 239.467 700.098 239.717C697.598 239.967 695.364 238.759 693.39 236.092C691.723 233.826 691.14 231.128 691.64 227.988C692.129 224.837 693.182 221.79 694.807 218.842C696.432 215.884 698.03 213.467 699.598 211.592C700.182 210.899 700.984 210.727 702.015 211.071C703.057 211.42 704.02 212.04 704.911 212.925C705.796 213.816 706.437 214.774 706.827 215.8C707.213 216.832 707.119 217.691 706.536 218.384C705.452 219.665 704.515 221.019 703.723 222.446C702.942 223.878 702.254 225.332 701.661 226.8C700.978 228.274 700.484 229.55 700.182 230.634C701.359 230.05 702.515 229.342 703.64 228.509C704.775 227.665 705.89 226.842 706.973 226.05C710.609 223.207 714.077 220.233 717.369 217.134C720.671 214.024 723.999 210.946 727.348 207.904C728.333 207.019 729.437 206.941 730.661 207.675C731.895 208.415 732.932 209.425 733.765 210.717C734.609 211.998 734.879 213.123 734.577 214.092C733.994 216.259 733.379 218.425 732.744 220.592C732.103 222.759 731.536 224.925 731.036 227.092C730.937 227.483 730.838 227.925 730.744 228.425C732.812 227.925 735.171 226.795 737.827 225.029C740.494 223.253 743.057 221.279 745.515 219.113C747.973 216.946 749.984 215.082 751.557 213.509Z" />
  <path d="M770.318 202.446C770.61 201.462 771.22 201.045 772.152 201.196C773.079 201.337 774.037 201.774 775.027 202.509C776.011 203.248 776.798 204.134 777.381 205.175C777.975 206.207 778.131 207.113 777.839 207.904C776.657 211.154 775.303 214.311 773.777 217.363C772.246 220.404 770.553 223.404 768.693 226.363C766.818 229.404 764.845 232.207 762.777 234.759C762.095 235.743 761.308 236.701 760.423 237.634C759.532 238.576 758.449 239.196 757.173 239.488C755.298 239.779 753.72 239.332 752.443 238.154C751.167 236.972 750.209 235.493 749.568 233.717C748.933 231.957 748.61 230.337 748.61 228.863C748.516 225.42 748.813 222.003 749.506 218.613C750.188 215.212 751.167 211.983 752.443 208.925C752.845 207.957 753.511 207.545 754.443 207.696C755.371 207.837 756.35 208.3 757.381 209.092C758.423 209.873 759.214 210.753 759.756 211.738C760.298 212.727 760.423 213.613 760.131 214.404C759.433 216.071 758.818 217.748 758.277 219.425C757.735 221.092 757.318 222.759 757.027 224.425C757.027 224.832 756.975 225.279 756.881 225.779C756.782 226.269 756.683 226.8 756.589 227.384C756.782 226.998 756.975 226.654 757.173 226.363C757.365 226.061 757.558 225.811 757.756 225.613C759.532 223.154 761.157 220.696 762.631 218.238C764.1 215.686 765.475 213.082 766.756 210.425C768.048 207.759 769.235 205.102 770.318 202.446Z" />
  <path d="M823.005 213.801C823.989 213.024 825.073 212.905 826.255 213.446C827.432 213.988 828.265 214.801 828.755 215.884C829.255 216.957 829.01 217.79 828.026 218.384C822.219 222.217 816.239 226.108 810.088 230.051C803.932 233.978 797.567 237.123 790.984 239.488C788.526 240.373 786.114 240.743 783.755 240.592C781.38 240.452 779.312 239.248 777.547 236.988C775.771 234.623 775.151 231.998 775.692 229.092C776.234 226.191 777.349 223.415 779.026 220.759C780.692 218.092 782.37 215.873 784.047 214.092C785.515 212.426 787.286 210.905 789.359 209.53C791.427 208.155 793.567 207.373 795.776 207.176C797.984 206.967 800.026 207.899 801.901 209.967C803.578 211.634 804.265 213.311 803.963 214.988C803.672 216.655 802.76 218.207 801.234 219.634C799.703 221.066 797.906 222.373 795.838 223.551C793.781 224.733 791.786 225.769 789.859 226.655C787.942 227.545 786.442 228.28 785.359 228.863C784.87 229.946 784.484 231.03 784.192 232.113C786.359 231.821 789.161 231.04 792.609 229.759C796.052 228.467 799.713 226.894 803.588 225.03C807.474 223.155 811.14 221.238 814.588 219.28C818.031 217.311 820.838 215.483 823.005 213.801Z" />
  <path d="M851.064 212.925C851.548 213.707 851.715 214.519 851.564 215.363C851.423 216.196 850.814 216.665 849.73 216.759C848.939 216.759 848.194 216.54 847.501 216.092C846.819 215.649 846.189 215.087 845.605 214.405C844.616 214.405 843.282 214.998 841.605 216.175C839.939 217.358 838.803 218.144 838.209 218.53C837.126 219.321 836.09 220.186 835.105 221.113C834.131 222.045 833.152 223.004 832.168 223.988C827.928 228.519 824.584 233.436 822.126 238.759C821.543 240.035 820.564 240.373 819.189 239.78C817.803 239.196 816.595 238.207 815.564 236.821C814.522 235.446 814.204 234.269 814.605 233.3C816.178 228.873 817.824 224.519 819.543 220.238C821.267 215.946 822.913 211.587 824.48 207.155C824.881 206.186 825.626 205.821 826.709 206.071C827.793 206.311 828.876 206.92 829.959 207.905C831.043 208.894 831.777 209.925 832.168 211.009C835.511 208.441 838.881 207.04 842.272 206.8C845.673 206.55 848.605 208.592 851.064 212.925Z" />
  <path d="M869.812 220.592C871.281 220.207 872.63 220.628 873.854 221.863C875.088 223.087 875.906 224.29 876.312 225.467C877.296 228.217 877.171 230.748 875.937 233.05C874.697 235.368 873.15 237.467 871.291 239.342C870.692 240.035 869.874 240.207 868.833 239.863C867.801 239.514 866.843 238.868 865.958 237.925C865.083 236.993 864.468 236.035 864.124 235.05C863.775 234.076 863.9 233.243 864.499 232.55C865.083 231.967 865.645 231.358 866.187 230.717C866.729 230.082 867.249 229.415 867.749 228.717C866.76 227.832 866.02 226.821 865.52 225.696C865.031 224.561 865.135 223.592 865.833 222.8C866.916 221.733 868.239 220.998 869.812 220.592Z" />
  <path d="M1007.4 217.196C1007.99 216.519 1008.8 216.352 1009.83 216.696C1010.86 217.03 1011.82 217.644 1012.71 218.53C1013.59 219.42 1014.23 220.384 1014.63 221.425C1015.03 222.457 1014.88 223.311 1014.19 223.988C1010.55 228.03 1006.66 231.873 1002.52 235.509C998.396 239.144 994.115 242.592 989.688 245.842C985.948 248.493 981.964 251.222 977.73 254.03C973.49 256.832 969.11 258.873 964.584 260.155C961.042 261.238 957.521 261.41 954.021 260.675C950.532 259.936 947.61 258.04 945.251 254.988C943.376 252.623 942.188 249.946 941.688 246.946C941.198 243.946 941.053 240.894 941.251 237.8C941.459 234.701 941.803 231.774 942.292 229.009C943.761 219.373 946.542 209.977 950.626 200.821C954.719 191.67 959.573 183.108 965.188 175.134C967.839 171.29 970.688 167.524 973.73 163.842C976.782 160.149 980.131 156.821 983.771 153.863C985.839 152.295 988.105 150.795 990.563 149.363C993.021 147.936 995.553 147.102 998.167 146.863C1000.78 146.613 1003.31 147.477 1005.77 149.446C1008.82 152.003 1010.59 155.082 1011.08 158.675C1011.58 162.259 1011.58 165.873 1011.08 169.509C1009.71 179.457 1006.66 188.957 1001.94 198.009C1001.44 198.998 1000.69 199.394 999.709 199.196C998.735 199.003 997.756 198.509 996.771 197.717C995.782 196.925 995.021 196.04 994.48 195.05C993.938 194.066 993.86 193.186 994.251 192.405C996.417 188.462 998.235 184.378 999.709 180.155C1001.19 175.92 1002.28 171.587 1002.98 167.155C1003.27 165.394 1003.53 163.524 1003.77 161.55C1004.02 159.582 1003.95 157.712 1003.56 155.946C1003.37 155.155 1003.22 154.712 1003.13 154.613C1003.03 154.519 1002.58 154.467 1001.79 154.467C1001.5 154.566 1001.08 154.712 1000.54 154.905C1000 155.102 999.573 155.248 999.271 155.342C998.188 155.842 997.178 156.363 996.251 156.905C995.318 157.446 994.407 158.009 993.521 158.592C987.422 162.733 982.032 167.925 977.355 174.175C972.688 180.425 968.573 186.696 965.021 192.988C961.381 199.587 958.157 206.503 955.355 213.738C952.547 220.977 950.652 228.332 949.667 235.8C949.469 237.868 949.297 239.931 949.146 241.988C949.006 244.056 949.032 246.123 949.23 248.196C949.422 250.165 949.917 251.571 950.709 252.405C951.501 253.238 952.928 253.556 955.001 253.363C958.443 253.071 961.782 252.014 965.021 250.196C968.271 248.373 971.323 246.576 974.188 244.8C980.282 240.967 986.11 236.738 991.667 232.113C997.235 227.488 1002.48 222.519 1007.4 217.196Z" />
  <path d="M1063.79 213.363C1064.77 212.571 1065.83 212.446 1066.95 212.988C1068.09 213.529 1068.95 214.342 1069.54 215.425C1070.13 216.509 1069.99 217.446 1069.1 218.238C1065.65 221.279 1062.18 224.279 1058.68 227.238C1055.19 230.196 1051.49 232.805 1047.56 235.071C1045.78 236.154 1043.83 237.16 1041.72 238.092C1039.61 239.019 1037.47 239.342 1035.31 239.05C1033.04 238.852 1031.07 237.967 1029.39 236.384C1027.72 234.811 1026.54 232.946 1025.85 230.779C1025.46 229.404 1025.31 228.082 1025.41 226.8C1025.51 225.524 1025.75 224.295 1026.14 223.113C1022.21 225.67 1018.47 228.602 1014.93 231.904C1011.39 235.196 1007.36 237.722 1002.83 239.488C1001.84 239.889 1000.79 239.717 999.662 238.967C998.527 238.227 997.615 237.269 996.933 236.092C996.24 234.91 995.99 233.826 996.183 232.842C997.173 228.415 998.871 224.108 1001.29 219.925C1003.69 215.748 1006.71 212.279 1010.35 209.529C1013.31 207.363 1016.43 206.503 1019.72 206.946C1023.02 207.394 1025.75 208.988 1027.91 211.738C1028.7 211.446 1029.5 211.154 1030.29 210.863C1031.27 210.654 1032.4 210.998 1033.68 211.884C1034.46 212.483 1035.19 213.196 1035.89 214.029C1036.58 214.863 1036.98 215.675 1037.08 216.467C1037.17 216.957 1037.13 217.399 1036.93 217.8C1036.83 218.983 1036.58 220.113 1036.18 221.196C1035.79 222.269 1035.4 223.399 1035 224.592C1034.6 225.665 1034.31 226.738 1034.12 227.821C1033.92 228.904 1033.68 230.04 1033.39 231.217C1033.49 231.217 1033.56 231.217 1033.6 231.217C1033.65 231.217 1033.73 231.217 1033.83 231.217C1036 230.925 1038.5 230.092 1041.35 228.717C1044.21 227.342 1047.09 225.696 1050 223.779C1052.9 221.852 1055.58 219.957 1058.04 218.092C1060.5 216.217 1062.41 214.644 1063.79 213.363ZM1010.5 223.259C1012.46 221.675 1014.38 220.128 1016.25 218.613C1018.12 217.087 1020.09 215.686 1022.16 214.404C1022.06 214.404 1022.02 214.404 1022.02 214.404C1021.82 214.404 1021.57 214.436 1021.27 214.488C1020.97 214.529 1020.68 214.602 1020.39 214.696C1019.6 214.894 1018.83 215.238 1018.1 215.738C1017.36 216.227 1016.69 216.712 1016.1 217.196C1015.03 218.087 1014.05 219.024 1013.16 220.009C1012.27 220.998 1011.48 221.983 1010.79 222.967C1010.69 223.066 1010.64 223.144 1010.64 223.196C1010.64 223.238 1010.59 223.259 1010.5 223.259Z" />
  <path d="M1123.72 213.217C1124.8 212.717 1125.79 212.816 1126.68 213.509C1127.56 214.207 1128.08 215.066 1128.22 216.092C1128.37 217.123 1127.81 217.936 1126.53 218.529C1122.79 220.404 1119.1 222.399 1115.45 224.509C1111.81 226.623 1108.17 228.811 1104.53 231.071C1102.37 232.457 1100.05 233.957 1097.6 235.571C1095.14 237.196 1092.58 238.352 1089.93 239.05C1087.36 239.634 1085.12 238.936 1083.2 236.967C1081.28 235.009 1080.52 232.748 1080.91 230.196C1081.12 228.727 1081.49 227.274 1082.03 225.842C1082.58 224.415 1083.18 222.962 1083.87 221.488C1075.41 226.212 1068.02 232.305 1061.72 239.779C1060.95 240.764 1059.94 240.889 1058.7 240.154C1057.47 239.415 1056.41 238.363 1055.53 236.988C1054.65 235.613 1054.3 234.477 1054.49 233.592C1055.48 229.858 1056.81 226.191 1058.49 222.592C1060.16 218.998 1061.98 215.477 1063.95 212.029C1064.44 211.144 1065.17 210.774 1066.16 210.925C1067.14 211.082 1068.12 211.55 1069.1 212.342C1070.08 213.123 1070.81 214.029 1071.3 215.071C1071.8 216.102 1071.86 216.957 1071.47 217.634C1071.47 217.748 1071.44 217.852 1071.39 217.946C1071.35 218.045 1071.27 218.144 1071.18 218.238C1077.87 213.613 1085.1 210.123 1092.87 207.759C1093.95 207.358 1095.08 207.582 1096.26 208.425C1097.44 209.259 1098.35 210.295 1098.99 211.529C1099.64 212.753 1099.67 213.904 1099.08 214.988C1097.79 217.061 1096.59 219.149 1095.45 221.259C1094.33 223.373 1093.22 225.509 1092.14 227.675C1097.25 225.123 1102.51 222.665 1107.93 220.3C1113.35 217.941 1118.61 215.582 1123.72 213.217Z" />
  <path d="M1179.53 213.363C1180.51 212.571 1181.57 212.446 1182.69 212.988C1183.83 213.529 1184.69 214.342 1185.28 215.425C1185.87 216.509 1185.72 217.446 1184.84 218.238C1181.39 221.279 1177.92 224.279 1174.42 227.238C1170.93 230.196 1167.22 232.805 1163.3 235.071C1161.52 236.154 1159.57 237.16 1157.46 238.092C1155.35 239.019 1153.21 239.342 1151.05 239.05C1148.78 238.852 1146.81 237.967 1145.13 236.384C1143.46 234.811 1142.28 232.946 1141.59 230.779C1141.2 229.404 1141.05 228.082 1141.15 226.8C1141.25 225.524 1141.49 224.295 1141.88 223.113C1137.95 225.67 1134.21 228.602 1130.67 231.904C1127.13 235.196 1123.1 237.722 1118.57 239.488C1117.58 239.889 1116.53 239.717 1115.4 238.967C1114.27 238.227 1113.36 237.269 1112.67 236.092C1111.98 234.91 1111.73 233.826 1111.92 232.842C1112.91 228.415 1114.61 224.108 1117.03 219.925C1119.43 215.748 1122.45 212.279 1126.09 209.529C1129.05 207.363 1132.17 206.503 1135.46 206.946C1138.76 207.394 1141.49 208.988 1143.65 211.738C1144.44 211.446 1145.24 211.154 1146.03 210.863C1147.01 210.654 1148.14 210.998 1149.42 211.884C1150.2 212.483 1150.93 213.196 1151.63 214.029C1152.32 214.863 1152.72 215.675 1152.82 216.467C1152.91 216.957 1152.87 217.399 1152.67 217.8C1152.57 218.983 1152.32 220.113 1151.92 221.196C1151.53 222.269 1151.14 223.399 1150.74 224.592C1150.34 225.665 1150.05 226.738 1149.86 227.821C1149.66 228.904 1149.42 230.04 1149.13 231.217C1149.22 231.217 1149.3 231.217 1149.34 231.217C1149.39 231.217 1149.47 231.217 1149.57 231.217C1151.74 230.925 1154.24 230.092 1157.09 228.717C1159.95 227.342 1162.83 225.696 1165.74 223.779C1168.64 221.852 1171.32 219.957 1173.78 218.092C1176.24 216.217 1178.15 214.644 1179.53 213.363ZM1126.24 223.259C1128.2 221.675 1130.12 220.128 1131.99 218.613C1133.86 217.087 1135.83 215.686 1137.9 214.404C1137.8 214.404 1137.76 214.404 1137.76 214.404C1137.56 214.404 1137.31 214.436 1137.01 214.488C1136.71 214.529 1136.42 214.602 1136.13 214.696C1135.34 214.894 1134.57 215.238 1133.84 215.738C1133.1 216.227 1132.43 216.712 1131.84 217.196C1130.77 218.087 1129.79 219.024 1128.9 220.009C1128.01 220.998 1127.22 221.983 1126.53 222.967C1126.43 223.066 1126.38 223.144 1126.38 223.196C1126.38 223.238 1126.33 223.259 1126.24 223.259Z" />
  <path d="M1238.88 147.821C1240.15 148.212 1241.36 149.045 1242.48 150.321C1243.62 151.602 1244.09 152.779 1243.9 153.863C1243.9 154.071 1243.85 154.274 1243.75 154.467C1236.17 169.332 1228.84 184.269 1221.75 199.279C1214.67 214.279 1208.42 229.654 1203 245.404C1202.71 246.389 1202.09 246.806 1201.15 246.654C1200.22 246.498 1199.26 246.056 1198.27 245.321C1197.3 244.582 1196.51 243.696 1195.92 242.654C1195.34 241.623 1195.19 240.665 1195.48 239.779C1196.56 236.639 1197.67 233.472 1198.79 230.279C1199.93 227.071 1201.14 223.941 1202.42 220.884C1198.68 224.832 1194.62 228.425 1190.23 231.675C1185.86 234.91 1180.96 237.514 1175.54 239.488C1174.56 239.889 1173.5 239.717 1172.38 238.967C1171.24 238.227 1170.35 237.269 1169.71 236.092C1169.08 234.91 1168.85 233.826 1169.04 232.842C1170.03 228.415 1171.71 224.108 1174.06 219.925C1176.43 215.748 1179.43 212.279 1183.09 209.529C1185.64 207.561 1188.39 206.649 1191.34 206.8C1194.29 206.941 1196.86 207.998 1199.02 209.967C1199.61 209.274 1200.15 208.634 1200.65 208.05C1207.73 198.998 1214.13 189.425 1219.84 179.342C1225.54 169.248 1230.95 159.082 1236.06 148.842C1236.17 148.748 1236.23 148.649 1236.23 148.55C1236.62 147.967 1237.21 147.675 1238 147.675C1238.29 147.675 1238.59 147.727 1238.88 147.821ZM1181 226.946C1183.67 225.269 1186.18 223.373 1188.54 221.259C1190.9 219.149 1193.17 216.915 1195.34 214.55C1195.14 214.457 1194.99 214.404 1194.88 214.404C1194.59 214.404 1194.29 214.436 1194 214.488C1193.71 214.529 1193.41 214.602 1193.11 214.696C1192.33 214.894 1191.56 215.238 1190.81 215.738C1190.08 216.227 1189.42 216.712 1188.84 217.196C1187.85 218.087 1186.91 219.024 1186.02 220.009C1185.13 220.998 1184.3 221.983 1183.52 222.967C1182.63 224.248 1181.79 225.571 1181 226.946Z" />
  <path d="M1283.31 213.363C1284.29 212.571 1285.35 212.446 1286.48 212.988C1287.61 213.529 1288.48 214.342 1289.06 215.425C1289.65 216.509 1289.51 217.446 1288.62 218.238C1285.17 221.279 1281.71 224.279 1278.21 227.238C1274.72 230.196 1271.01 232.805 1267.08 235.071C1265.3 236.154 1263.36 237.16 1261.25 238.092C1259.13 239.019 1257 239.342 1254.83 239.05C1252.56 238.852 1250.59 237.967 1248.91 236.384C1247.25 234.811 1246.06 232.946 1245.37 230.779C1244.98 229.404 1244.84 228.082 1244.93 226.8C1245.03 225.524 1245.27 224.295 1245.66 223.113C1241.73 225.67 1238 228.602 1234.46 231.904C1230.91 235.196 1226.88 237.722 1222.35 239.488C1221.37 239.889 1220.31 239.717 1219.18 238.967C1218.05 238.227 1217.14 237.269 1216.46 236.092C1215.76 234.91 1215.51 233.826 1215.71 232.842C1216.69 228.415 1218.39 224.108 1220.81 219.925C1223.22 215.748 1226.24 212.279 1229.87 209.529C1232.83 207.363 1235.96 206.503 1239.25 206.946C1242.54 207.394 1245.27 208.988 1247.43 211.738C1248.23 211.446 1249.02 211.154 1249.81 210.863C1250.79 210.654 1251.92 210.998 1253.21 211.884C1253.98 212.483 1254.72 213.196 1255.41 214.029C1256.11 214.863 1256.5 215.675 1256.6 216.467C1256.69 216.957 1256.65 217.399 1256.46 217.8C1256.36 218.983 1256.11 220.113 1255.71 221.196C1255.31 222.269 1254.92 223.399 1254.52 224.592C1254.13 225.665 1253.84 226.738 1253.64 227.821C1253.44 228.904 1253.21 230.04 1252.91 231.217C1253.01 231.217 1253.08 231.217 1253.12 231.217C1253.17 231.217 1253.25 231.217 1253.35 231.217C1255.52 230.925 1258.02 230.092 1260.87 228.717C1263.73 227.342 1266.61 225.696 1269.52 223.779C1272.42 221.852 1275.1 219.957 1277.56 218.092C1280.02 216.217 1281.93 214.644 1283.31 213.363ZM1230.02 223.259C1231.99 221.675 1233.9 220.128 1235.77 218.613C1237.64 217.087 1239.61 215.686 1241.68 214.404C1241.59 214.404 1241.54 214.404 1241.54 214.404C1241.34 214.404 1241.09 214.436 1240.79 214.488C1240.5 214.529 1240.21 214.602 1239.91 214.696C1239.12 214.894 1238.36 215.238 1237.62 215.738C1236.88 216.227 1236.22 216.712 1235.62 217.196C1234.55 218.087 1233.57 219.024 1232.68 220.009C1231.79 220.998 1231 221.983 1230.31 222.967C1230.21 223.066 1230.16 223.144 1230.16 223.196C1230.16 223.238 1230.11 223.259 1230.02 223.259Z" />
  <path d="M1354.77 226.655C1354.77 227.045 1354.67 227.384 1354.48 227.675C1354.37 227.983 1354.12 228.186 1353.73 228.28C1352.84 228.962 1352.11 229.696 1351.52 230.488C1351.23 230.878 1350.84 231.071 1350.34 231.071C1349.85 231.071 1349.45 231.024 1349.15 230.925C1348.56 230.832 1348.02 230.587 1347.52 230.196C1347.03 229.795 1346.6 229.399 1346.21 229.009C1345.22 228.123 1344.59 227.134 1344.29 226.05C1344.09 225.175 1344.23 224.394 1344.73 223.696C1345.12 223.102 1345.61 222.561 1346.19 222.071C1346.78 221.587 1347.43 221.144 1348.13 220.738C1348.61 220.644 1349.15 220.691 1349.75 220.884C1350.14 220.983 1350.48 221.087 1350.77 221.196C1351.37 221.488 1351.89 221.858 1352.34 222.3C1352.78 222.748 1353.2 223.212 1353.59 223.696C1353.88 224.087 1354.15 224.55 1354.4 225.092C1354.65 225.634 1354.77 226.155 1354.77 226.655Z" />
</svg>
