<svg xmlns="http://www.w3.org/2000/svg" width="920" height="563" viewBox="0 0 920 563" version="1.1" fill="currentColor"><path d="M 21.007 48.642 C 21.029 51.521, 32.807 64.781, 45.839 76.598 C 51.542 81.769, 56.569 86, 57.010 86 C 58.219 86, 59.237 76.814, 58.307 74.300 C 57.404 71.861, 43.212 60.132, 33.062 53.439 C 26.615 49.187, 20.994 46.950, 21.007 48.642 M 66.753 87.261 L 67.121 96.500 78.115 107.315 C 84.162 113.263, 89.647 117.952, 90.305 117.734 C 91.100 117.470, 91.595 113.970, 91.784 107.271 L 92.068 97.205 81.784 89.278 C 76.128 84.919, 70.349 80.603, 68.943 79.687 L 66.385 78.022 66.753 87.261 M 648.323 79.623 C 644.189 80.567, 643.510 82.516, 644.767 89.831 C 647.912 108.123, 654.413 124.774, 664.186 139.573 C 680.128 163.711, 700.651 178.431, 733.263 189.119 C 739.993 191.324, 745.870 193.493, 746.323 193.937 C 747.694 195.284, 737.524 214.215, 731.192 222.103 C 723.767 231.353, 706.398 248.562, 698.623 254.371 C 691.406 259.764, 670.789 270.491, 658 275.508 C 652.775 277.558, 643.325 280.565, 637 282.192 C 626.965 284.772, 623.653 285.159, 611 285.225 C 601.410 285.275, 593.622 284.747, 588 283.665 C 579.320 281.994, 559.494 275.651, 545.956 270.214 C 528.402 263.164, 467.470 233.278, 422.696 209.758 C 379.083 186.847, 370.811 184.064, 344 183.284 C 323.950 182.700, 313.965 184.060, 300.673 189.186 C 291.273 192.811, 277.951 201.505, 268.996 209.858 L 262.500 215.917 268.250 221.041 C 273.287 225.531, 273.998 226.620, 273.983 229.833 C 273.935 239.942, 269.429 252.456, 262.330 262.197 C 257.810 268.400, 253.468 271, 247.632 271 C 245.084 271, 243.009 271.337, 243.020 271.750 C 243.151 276.719, 246.223 302.113, 247.077 305.285 C 247.697 307.588, 249.990 313.979, 252.173 319.486 C 263.456 347.959, 279.393 372.361, 302.963 397.250 C 312.513 407.335, 313.681 409.249, 307.018 403.894 C 304.892 402.186, 302.731 401.048, 302.216 401.367 C 299.258 403.195, 294.995 430.653, 295.008 447.801 C 295.021 466.309, 297.607 477.134, 306.065 494.079 C 310.552 503.068, 316.283 510, 319.228 510 C 321.024 510, 329.781 500.483, 337.629 490 C 344.735 480.509, 359.292 454.947, 360.551 449.750 C 360.917 448.238, 361.444 447, 361.722 447 C 362 447, 365.439 449.001, 369.364 451.447 C 378.839 457.352, 411.089 472.911, 423 477.324 C 443.718 484.999, 466.894 491.062, 489.500 494.720 C 505.140 497.251, 551.400 497.214, 564.500 494.661 C 578.584 491.916, 598.634 486.461, 608.536 482.679 C 685.874 453.146, 751.423 377.298, 775.478 289.506 C 782.270 264.719, 784.878 246.071, 785.690 216.500 C 786.007 204.950, 786.628 194.795, 787.071 193.933 C 787.611 192.880, 790.604 191.955, 796.187 191.116 C 836.397 185.073, 865.818 167.038, 886.900 135.511 C 894.602 123.993, 899.174 113.710, 902.602 100.196 C 905.603 88.365, 905.746 82.470, 903.066 81.035 C 900.204 79.504, 876.784 79.780, 863.666 81.499 C 845.115 83.931, 820.527 92.105, 809.139 99.627 C 801.342 104.777, 788.180 117.782, 781.441 126.996 C 778.221 131.398, 775.260 135, 774.860 135 C 774.460 135, 771.291 131.739, 767.816 127.754 C 757.639 116.079, 746.666 105.527, 739.983 100.988 C 725.641 91.249, 704.374 83.120, 687.742 81.020 C 678.304 79.828, 651.575 78.881, 648.323 79.623 M 103 118.881 L 103 131.763 106.750 134.610 C 108.813 136.176, 114.720 141.422, 119.878 146.269 C 125.035 151.116, 129.760 154.914, 130.378 154.709 C 131.122 154.461, 131.593 149.426, 131.776 139.773 L 132.052 125.209 128.276 122.276 C 121.098 116.699, 105.210 106, 104.107 106 C 103.355 106, 103 110.131, 103 118.881 M 144 152.432 L 144 168.864 147.250 171.108 C 149.037 172.342, 155.379 178.069, 161.343 183.835 C 169.692 191.907, 172.391 193.994, 173.077 192.909 C 173.568 192.134, 173.976 183.989, 173.985 174.809 L 174 158.118 168.137 152.957 C 161.561 147.169, 146.247 136, 144.886 136 C 144.399 136, 144 143.394, 144 152.432 M 186.667 168.667 C 186.300 169.033, 186 177.754, 186 188.046 L 186 206.759 190.750 210.600 C 193.363 212.713, 199.478 218.241, 204.339 222.885 C 211.202 229.442, 213.378 231.013, 214.074 229.915 C 214.566 229.137, 214.976 219.653, 214.985 208.841 L 215 189.181 201.750 178.594 C 194.463 172.771, 188.238 168.006, 187.917 168.004 C 187.596 168.002, 187.033 168.300, 186.667 168.667 M 227.989 218.250 C 227.983 227.738, 227.708 237.134, 227.378 239.130 C 226.819 242.505, 227.225 243.269, 233.139 249.981 C 236.637 253.953, 240.780 257.944, 242.344 258.851 L 245.188 260.500 249.474 255.664 C 256.191 248.085, 260.906 236.970, 260.976 228.551 C 260.994 226.298, 259.848 224.520, 256.116 221.017 C 251.490 216.673, 229.966 201, 228.627 201 C 228.282 201, 227.995 208.762, 227.989 218.250 M 764.035 241.270 C 757.564 261.828, 746.451 287.822, 738.381 301.273 C 733.323 309.703, 717.361 331.831, 709.841 340.835 C 703.086 348.924, 686.286 364.104, 676.675 370.804 C 668.870 376.245, 647.430 386.818, 634.899 391.406 C 623.269 395.664, 604.318 400.509, 593.678 401.945 C 583.834 403.273, 543.691 403.320, 538.972 402.009 C 535.483 401.039, 535.395 400.878, 531.122 387.651 C 526.243 372.544, 520.111 358.998, 514.240 350.356 C 506.246 338.588, 490.674 325.831, 475.336 318.486 C 455.989 309.220, 439.405 308.642, 419.666 316.544 L 413.143 319.156 412.478 325.360 C 412.113 328.772, 412.341 335.977, 412.985 341.371 C 413.629 346.765, 413.939 351.394, 413.675 351.658 C 412.725 352.609, 397.846 345.712, 389.262 340.342 C 376.645 332.450, 364.411 322.909, 349 308.944 C 334.268 295.595, 330.720 293.009, 327.125 293.004 C 325 293, 324.816 293.328, 325.372 296.111 C 326.810 303.300, 343.205 323.692, 359.116 338.083 C 378.761 355.850, 394.471 367.006, 415.417 378.063 C 421.971 381.523, 428.803 385.644, 430.599 387.221 C 434.234 390.413, 438 397.397, 438 400.947 C 438 403.062, 437.677 403.210, 434.250 402.660 C 425.884 401.318, 395.256 384.481, 376 370.638 C 363.640 361.752, 345.437 346.291, 338.093 338.441 C 327.558 327.179, 315.094 309.514, 309.368 297.731 L 306.565 291.962 285.032 292.231 L 263.500 292.500 263.584 298.500 C 263.795 313.635, 278.401 342.260, 299.048 368 C 316.725 390.038, 343.943 414.438, 370 431.605 C 406.372 455.568, 457.671 474.220, 497.500 477.964 C 519.887 480.069, 555.838 478.840, 573 475.383 C 593.791 471.196, 625.490 457.796, 643.371 445.634 C 668.450 428.577, 698.995 400.128, 714.141 379.720 C 731.854 355.855, 749.097 320.972, 757.916 291.165 C 764.633 268.460, 770.738 233.192, 768.221 231.637 C 767.687 231.306, 765.816 235.612, 764.035 241.270 M 345.299 251.960 C 337.434 256.755, 336.931 268.449, 344.378 273.328 C 353.211 279.116, 365.273 273.218, 365.273 263.111 C 365.273 253.069, 353.896 246.717, 345.299 251.960 M 281.120 297.545 C 277.954 298.920, 277.778 299.246, 278.339 302.701 C 279.618 310.584, 291.469 331.844, 303.032 347 C 315.623 363.503, 338.025 384.980, 358 399.699 C 383.972 418.836, 408.810 431.323, 444.500 443.187 C 483.489 456.148, 497.196 458.408, 537 458.438 C 560.343 458.456, 565.035 458.184, 576.381 456.152 C 591.996 453.355, 605.837 449.336, 620.500 443.341 C 640.145 435.308, 644 432.340, 644 425.250 C 644 421.829, 642.390 420, 639.378 420 C 638.156 420, 628.909 423.087, 618.828 426.859 C 583.392 440.120, 569.368 443.403, 548.500 443.321 C 511.538 443.176, 478.784 438.128, 447 427.678 C 401.010 412.556, 368.985 393.060, 335.919 360.052 C 316.815 340.981, 305.781 326.810, 297.462 310.659 C 294.301 304.522, 291.034 298.712, 290.202 297.750 C 288.380 295.641, 285.648 295.580, 281.120 297.545 M 436 326.611 C 428.821 327.800, 426.008 329.119, 425.389 331.586 C 424.228 336.211, 430.179 361.472, 434.383 369.770 C 437.740 376.393, 447.485 389.306, 454.417 396.314 C 465.631 407.651, 480.317 416.647, 494.549 420.896 C 502.768 423.349, 517.646 426, 523.198 426 C 526.472 426, 527.050 425.705, 526.633 424.250 C 526.358 423.288, 524.502 416.213, 522.509 408.530 C 512.624 370.408, 497.617 347.575, 473.923 334.606 C 463.979 329.164, 444.888 325.139, 436 326.611 M 544.750 418.678 C 542.317 419.330, 542.564 421.671, 545.250 423.417 C 550.471 426.813, 569.157 426.093, 574.989 422.272 L 577.481 420.639 574.990 419.978 C 571.780 419.125, 547.046 418.062, 544.750 418.678" stroke="none" fill-rule="evenodd"/></svg>
