<svg
  xmlns="http://www.w3.org/2000/svg"
  viewBox="0 0 611 611"
  stroke="none"
  fill="currentColor"
  fill-rule="evenodd"
>
  <path d="M 325.470 2.051 C 317.014 3.144, 307.669 6.446, 299.640 11.178 C 291.829 15.780, 290.284 17.243, 272.699 36.684 C 250.304 61.444, 238.998 67.529, 215.500 67.470 C 203.024 67.438, 202.275 67.283, 186.427 61.443 C 137.490 43.410, 97.546 74.873, 98.129 130.992 C 98.558 172.312, 89.300 187.543, 52.267 206.443 C -6.366 236.364, -15.486 286.490, 29.516 331.486 C 49.666 351.634, 56 364.940, 56 387.121 C 56 397.055, 55.895 397.574, 47.508 428.998 C 31.809 487.824, 69.428 530.663, 138 532.048 C 162.358 532.540, 168.459 532.953, 173 534.418 C 189.347 539.693, 204.341 551.828, 212.092 566.055 C 243.400 623.530, 297.635 628.825, 335.187 578.074 C 357.802 547.510, 385.124 537.345, 414.576 548.538 C 436.744 556.962, 436.785 556.972, 449.068 556.987 C 490.188 557.034, 516.760 524.030, 510.647 480.500 C 505.504 443.881, 520.208 421.381, 559.727 405.393 C 617.009 382.218, 629.188 325.975, 584.909 289.102 C 558.675 267.256, 552.162 242.637, 563.452 208 C 586.765 136.481, 552.094 88.526, 477.500 89.116 C 432.870 89.469, 416.092 80.382, 398.817 46.500 C 381.392 12.322, 357.588 -2.103, 325.470 2.051" />
</svg>
