<svg xmlns="http://www.w3.org/2000/svg" width="1024" height="1024" viewBox="0 0 1024 1024" version="1.1" fill="currentColor"><path d="M 752.500 60.029 C 740.736 60.932, 736.441 61.853, 724.435 66.047 C 695.267 76.238, 673.278 96.188, 659.185 125.244 C 654.255 135.409, 648.744 150.517, 647.450 157.417 C 646.657 161.642, 647.551 161.838, 655.432 159.170 L 660.363 157.500 665.971 144.500 C 674.083 125.694, 679.405 116.015, 685.859 108.331 C 700.708 90.651, 723.489 76.963, 743.157 73.905 C 755.224 72.029, 800.752 73.275, 815.334 75.880 C 829.253 78.367, 834.158 80.391, 823.500 79.250 C 810.706 77.880, 771.368 78.547, 760.988 80.311 C 721.175 87.075, 694.428 105.552, 678.447 137.332 C 673.125 147.915, 672.095 151, 673.883 151 C 674.369 151, 690.681 146, 710.133 139.888 C 774.175 119.767, 800.425 112.290, 830.500 105.604 C 853.676 100.451, 884.908 95.489, 903.395 94.023 C 917.502 92.904, 958.704 92.830, 963.500 93.915 C 966.156 94.516, 965.641 94.793, 959 96.326 C 954.875 97.279, 943.001 99.168, 932.614 100.524 C 920.331 102.127, 913.339 103.471, 912.614 104.367 C 912.001 105.125, 909.300 106.274, 906.612 106.922 C 903.923 107.569, 899.652 109.201, 897.120 110.549 C 894.588 111.897, 891.330 113, 889.880 113 C 887.192 113, 884.485 115.152, 885.675 116.342 C 886.037 116.704, 883.939 117, 881.012 117 C 875.753 117, 875.712 117.024, 877.500 119 C 879.154 120.827, 879.164 121, 877.624 121 C 876.696 121, 875.678 120.325, 875.362 119.500 C 874.638 117.613, 871.967 117.573, 869.454 119.410 C 867.563 120.793, 867.562 120.858, 869.418 122.910 C 871.616 125.338, 870.590 125.557, 864.941 123.864 C 862.856 123.240, 860.370 123.028, 859.416 123.394 C 857.885 123.981, 858.022 124.424, 860.591 127.184 C 862.921 129.687, 863.102 130.165, 861.500 129.585 C 858.172 128.381, 849.711 126.955, 849.161 127.506 C 848.878 127.789, 849.935 129.366, 851.510 131.010 C 854.662 134.301, 853.982 134.714, 848.872 132.614 C 844.177 130.684, 839 129.675, 839 130.690 C 839 131.157, 841.234 133.309, 843.965 135.472 C 846.695 137.635, 848.796 139.538, 848.633 139.701 C 848.470 139.863, 845.673 138.924, 842.418 137.613 C 839.163 136.303, 834.925 134.935, 833 134.575 L 829.500 133.920 834.750 138.710 C 837.638 141.345, 840.001 143.847, 840 144.270 C 840 144.694, 838.313 144.193, 836.250 143.157 C 831.278 140.661, 822.265 137.745, 820.912 138.196 C 820.319 138.394, 822.595 140.957, 825.969 143.892 C 829.344 146.827, 831.900 149.433, 831.649 149.684 C 831.399 149.935, 829.449 149.249, 827.317 148.162 C 822.458 145.683, 812.507 142.750, 810.408 143.178 C 809.392 143.385, 811.133 145.192, 815.269 148.224 C 823.935 154.578, 825.951 157.036, 820.011 154.006 C 814.712 151.302, 802.313 146.978, 800.075 147.052 C 798.960 147.090, 799.217 147.601, 800.954 148.802 C 805.624 152.033, 815.085 160.248, 814.645 160.689 C 814.401 160.932, 811.794 159.773, 808.851 158.113 C 802.522 154.544, 790.201 149.766, 788.653 150.282 C 788.055 150.482, 791.489 153.718, 796.283 157.474 C 801.077 161.230, 805 164.722, 805 165.235 C 805 165.747, 804.663 166.017, 804.250 165.833 C 803.837 165.650, 800.125 163.853, 796 161.839 C 788.111 157.989, 779.018 154.648, 778.322 155.345 C 778.095 155.571, 780.743 158.022, 784.205 160.791 C 794.359 168.911, 801.838 177.555, 792.641 170.540 C 787.131 166.337, 767.987 158.771, 768.007 160.804 C 768.011 161.187, 769.682 162.625, 771.721 164 C 777.507 167.901, 787.415 175.989, 788.261 177.503 C 788.682 178.255, 786.458 177.323, 783.317 175.432 C 778.339 172.434, 767.183 167.654, 760.250 165.549 C 756.737 164.482, 757.634 166.215, 762.271 169.454 C 769.429 174.453, 780.086 183.248, 779.589 183.745 C 779.329 184.004, 776.396 182.563, 773.070 180.543 C 766.464 176.530, 758.524 173.100, 750.042 170.596 C 743.673 168.715, 743.546 168.565, 756.500 178.285 C 765.874 185.320, 772.207 191, 770.677 191 C 770.307 191, 767.866 189.477, 765.252 187.616 C 758.370 182.715, 749.187 178.336, 741.079 176.089 C 737.185 175.010, 734 174.281, 734 174.469 C 734 174.656, 736.058 176.016, 738.573 177.490 C 743.900 180.612, 757.366 191.968, 756.622 192.711 C 756.343 192.990, 754.852 192.325, 753.308 191.234 C 746.967 186.752, 725.569 177.098, 724.452 178.215 C 724.175 178.492, 727.447 181.341, 731.724 184.547 C 739.698 190.523, 752 201.745, 752 203.043 C 752 203.443, 750.337 202.247, 748.305 200.386 C 746.273 198.524, 740.616 194.938, 735.735 192.417 C 727.123 187.969, 713.082 182.585, 712.254 183.413 C 712.030 183.637, 714.597 185.689, 717.960 187.973 C 725.460 193.066, 742.323 207.011, 741.716 207.618 C 741.472 207.861, 736.931 205.156, 731.623 201.607 C 722.325 195.391, 708.115 189.392, 704.540 190.173 C 703.688 190.360, 706.758 193.076, 711.693 196.500 C 716.448 199.800, 723.525 205.570, 727.420 209.322 C 735.257 216.873, 734.706 217.019, 725 209.964 C 721.425 207.366, 716.250 204.112, 713.500 202.733 C 707.126 199.538, 690.992 193.827, 691.026 194.778 C 691.040 195.175, 693.396 197.075, 696.260 199 C 703.166 203.640, 719.981 217.155, 722.500 220.091 L 724.500 222.422 721.500 220.505 C 705.886 210.529, 700.564 207.687, 690.542 203.973 C 679.664 199.942, 674.342 199.054, 680.657 202.325 C 687.563 205.902, 714.735 228.599, 713.540 229.793 C 713.232 230.102, 711.746 229.216, 710.240 227.824 C 706.207 224.100, 699.417 219.725, 691.500 215.747 C 683.958 211.958, 666.995 205.672, 666.269 206.398 C 666.025 206.642, 668.778 208.821, 672.385 211.241 C 680.165 216.461, 699.255 232.078, 698.625 232.708 C 698.383 232.950, 695.277 231.311, 691.723 229.067 C 680.497 221.977, 657.840 212.220, 654.887 213.204 C 654.279 213.407, 656.419 215.314, 659.641 217.442 C 672.779 226.120, 693.287 243, 690.692 243 C 690.307 243, 686.281 240.489, 681.746 237.421 C 671.424 230.436, 657.646 223.740, 648.227 221.130 C 641.056 219.143, 638.549 219.562, 643.665 221.893 C 650.488 225.002, 674.943 245.072, 677.162 249.383 C 677.967 250.948, 677.370 250.679, 674.875 248.355 C 665.766 239.867, 635.530 225, 627.376 225 C 626.402 225, 630.307 228.076, 636.053 231.835 C 646.563 238.712, 666 255.208, 666 257.251 C 666 257.855, 664.987 257.418, 663.750 256.281 C 660.091 252.918, 648.155 245.577, 638.500 240.752 C 628.473 235.740, 615 230.621, 615 231.823 C 615 232.252, 619.146 235.505, 624.213 239.052 C 637.430 248.303, 649.818 258.790, 654.945 265.068 C 658.801 269.788, 658.931 270.087, 655.941 267.346 C 650.044 261.942, 636.832 252.947, 629 249.006 C 620.626 244.791, 604.240 238.753, 602.632 239.289 C 602.058 239.481, 604.944 241.797, 609.044 244.436 C 620.374 251.729, 645.766 272.567, 644.664 273.669 C 644.435 273.898, 640.480 271.381, 635.874 268.075 C 631.268 264.770, 622.775 259.617, 617 256.626 C 606.472 251.172, 589.573 244.642, 587.648 245.284 C 587.083 245.472, 590.623 248.236, 595.516 251.425 C 610.646 261.287, 634.004 280.329, 632.642 281.691 C 632.400 281.933, 628.245 279.205, 623.409 275.629 C 612.434 267.514, 598.314 260.072, 586.172 256.004 C 572.073 251.281, 571.141 252.433, 583.211 259.664 C 598.998 269.123, 619.384 284.894, 617.854 286.463 C 617.498 286.828, 614.798 285.286, 611.854 283.037 C 604.335 277.295, 580.444 265.522, 569.142 261.989 C 563.919 260.356, 559.459 259.207, 559.231 259.435 C 559.003 259.664, 560.770 261.087, 563.158 262.599 C 588.596 278.704, 600.253 287.607, 609.500 297.992 C 613.809 302.832, 611.952 301.872, 605.500 295.923 C 596.362 287.500, 579.466 277.852, 565.500 273.084 C 555.325 269.610, 543.998 266.846, 544.005 267.839 C 544.007 268.202, 547.853 270.463, 552.551 272.863 C 563.045 278.223, 588.873 295.209, 587.317 295.728 C 586.694 295.935, 580.983 293.349, 574.625 289.981 C 568.268 286.613, 559.114 282.457, 554.283 280.746 C 545.888 277.772, 544.881 277.644, 531.500 277.840 C 523.800 277.952, 513.900 278.418, 509.500 278.875 C 505.100 279.333, 501.302 279.537, 501.060 279.330 C 500.097 278.506, 511.106 268.412, 521.500 260.592 C 549.327 239.655, 583.708 218.370, 616 202.089 C 653.883 182.988, 690.685 168.342, 752 147.968 C 802.603 131.153, 892.155 106, 901.420 106 C 903.195 106, 903.875 105.607, 903.409 104.853 C 902.902 104.032, 898.831 103.877, 889.100 104.307 C 853.954 105.860, 805.548 118.097, 714.500 148.443 C 663.211 165.538, 644.841 172.763, 612.500 188.561 C 571.671 208.504, 539.326 228.872, 497 261.293 C 467.868 283.607, 463.534 288.325, 460.594 300.927 C 459.773 304.448, 458.516 307.912, 457.800 308.626 C 457.085 309.340, 453.314 310.594, 449.420 311.413 C 439.117 313.578, 432.036 316.484, 423.793 321.928 C 407.214 332.877, 400.855 344.035, 397.536 368 C 396.364 376.464, 395.664 378.839, 393.930 380.250 C 391.122 382.534, 388.129 382.468, 385.564 380.066 C 384.307 378.889, 379.785 377.353, 374 376.139 C 332.969 367.532, 301.510 343.722, 285.109 308.862 C 278.930 295.729, 278 291.689, 278 277.983 C 278 268.835, 278.435 265.558, 280.441 259.580 C 287.128 239.662, 302.239 223.795, 326.314 211.414 C 339.094 204.841, 350.481 201.688, 367.500 200.010 C 390.565 197.735, 402.362 194.539, 418.500 186.191 C 428.525 181.005, 441.547 167.763, 446.347 157.874 C 457.547 134.796, 454.054 108.208, 437.633 91.560 C 427.144 80.927, 412.531 75.164, 398.939 76.303 C 390.224 77.032, 377.129 81.459, 370.148 86.034 C 367.041 88.070, 360.240 93.461, 355.034 98.014 C 345.094 106.706, 339.526 109.942, 334.446 109.978 C 330.066 110.010, 321.498 105.428, 317.998 101.182 L 315 97.544 315 100.624 C 315 105.585, 318.794 110.139, 326 113.827 C 337.571 119.751, 344.789 117.748, 362.218 103.780 C 370.961 96.774, 382.813 90.596, 390.620 88.975 C 401.247 86.769, 413.286 90.993, 422.697 100.227 C 429.957 107.352, 432.359 113.267, 432.348 124 C 432.332 140.327, 426.696 151.766, 413.894 161.452 C 401.900 170.527, 389.788 174.736, 367.507 177.569 C 352.023 179.539, 338.616 181.817, 335.757 182.966 C 333.502 183.872, 333.502 183.873, 336 183.967 C 338.117 184.046, 338.244 184.210, 336.826 185.038 C 335.905 185.575, 330.528 187.624, 324.878 189.590 C 312.416 193.929, 308.156 196.050, 296.449 203.750 C 276.899 216.607, 266.563 227.813, 257.941 245.500 C 251.170 259.391, 249.937 264.838, 249.894 281.039 C 249.856 295.587, 250.963 302.227, 255.556 315 C 265.424 342.444, 280.297 361.040, 312.342 385.999 C 320.833 392.612, 322.792 392.982, 349.500 393.026 C 369.611 393.058, 385.704 391.199, 405.492 386.556 C 408.787 385.783, 411.636 385.303, 411.823 385.489 C 412.724 386.390, 409.523 390.232, 405.652 392.895 C 399.716 396.980, 391.851 399.405, 376.072 402.015 C 363.987 404.015, 360.187 404.188, 338.072 403.750 C 314.842 403.290, 312.544 403.068, 296 399.690 C 265.211 393.404, 245.492 386.827, 221.806 374.943 C 196.285 362.139, 177.393 348.515, 157.891 328.852 C 131.678 302.422, 114.039 269.951, 111.044 242.611 C 109.074 224.637, 112.509 203.419, 119.554 190.045 C 125.926 177.947, 142.775 160.817, 153.578 155.454 C 174.652 144.993, 202.771 157.364, 211.259 180.832 C 214.190 188.934, 214.203 201.817, 211.288 208.220 C 208.620 214.081, 201.611 221.009, 195.292 224.034 C 180.362 231.178, 161.972 222.103, 161.751 207.482 C 161.673 202.308, 164.131 197.817, 169.347 193.606 C 172.868 190.764, 173.741 190.521, 179.632 190.748 C 185.705 190.983, 186.010 190.888, 185.041 189.076 C 183.276 185.778, 179.038 183.128, 174.424 182.436 C 170.782 181.890, 169.009 182.250, 164.520 184.447 C 154.117 189.536, 149.211 198.363, 150.274 210.081 C 151.623 224.963, 162.861 236.632, 179.222 240.141 C 199.613 244.514, 223.424 229.377, 230.150 207.765 C 232.454 200.364, 232.614 185.837, 230.485 177.460 C 225.263 156.918, 209.776 140.655, 188.724 133.605 C 181.686 131.249, 169.213 130.126, 160.319 131.049 C 143.456 132.799, 133.803 137.725, 118.924 152.173 C 107.596 163.174, 99.029 174.928, 92.487 188.448 C 84.284 205.399, 82.568 213.596, 82.531 236 C 82.496 256.937, 83.340 262.617, 89.132 280.415 C 110.030 344.639, 173.288 399.092, 253.500 421.904 C 272.148 427.207, 298.091 432.656, 310.856 433.950 C 325.218 435.406, 344.370 435.247, 357.958 433.558 C 373.693 431.602, 375.017 432.692, 363.500 438.120 C 355.551 441.866, 353.332 442.451, 344.500 443.125 C 339 443.544, 330.618 443.913, 325.872 443.944 C 319.476 443.985, 316.923 444.388, 316 445.500 C 315.007 446.697, 315.007 447.303, 316 448.500 C 317.399 450.186, 323.746 450.374, 336 449.091 C 340.125 448.660, 343.682 448.457, 343.905 448.641 C 345.890 450.284, 314.480 458.771, 296.233 461.521 C 277.147 464.398, 250.717 463.155, 229.117 458.365 C 206.300 453.304, 188.723 445.707, 160.943 428.900 C 134.811 413.090, 122.012 407.907, 105.457 406.433 C 85.222 404.631, 64.581 415.917, 55.913 433.525 C 53.044 439.354, 52.524 441.565, 52.181 449.405 C 51.809 457.914, 52.014 459.110, 55.295 467.608 C 57.227 472.610, 59.806 478.659, 61.025 481.049 C 63.860 486.606, 77.016 499.529, 84.152 503.767 C 92.453 508.697, 106.449 514.088, 112.592 514.722 C 119.888 515.475, 120.535 517, 113.559 517 C 103.860 517, 107.589 520.680, 118.256 521.636 C 125.076 522.246, 130 520.942, 130 518.525 C 130 517.325, 131.301 517, 136.102 517 C 140.239 517, 145.116 516.025, 151.242 513.972 C 166.036 509.016, 184.901 498.567, 182.817 496.484 C 182.540 496.206, 177.855 497.372, 172.406 499.074 C 157.674 503.676, 149.175 504.928, 132.500 504.952 C 118.523 504.972, 116.936 504.777, 109.223 502.092 C 92.846 496.392, 81.044 486.809, 74.643 474.013 C 71.294 467.318, 71.001 466.037, 71.010 458.116 C 71.018 451.175, 71.478 448.515, 73.378 444.435 C 78.686 433.036, 86.468 428.107, 100.475 427.272 C 114.379 426.443, 126.999 430.626, 143.751 441.614 C 161.854 453.489, 180.403 463.980, 191.812 468.799 C 221.935 481.521, 243.561 485.937, 276 485.991 C 293.320 486.020, 302 486.784, 302 488.279 C 302 488.829, 301.212 489.915, 300.250 490.692 C 298.654 491.979, 298.720 492.046, 301 491.449 C 309.588 489.201, 337.986 471.154, 357.500 455.544 C 371.392 444.431, 427.291 391.207, 432.092 384.522 C 435.681 379.524, 436.624 379.225, 434.961 383.611 C 431.986 391.459, 419.969 407.077, 405.558 421.826 C 363.561 464.807, 333.906 487.108, 299.677 501.449 C 281.021 509.265, 277.056 510.263, 212 523.512 C 176.102 530.823, 159.234 535.224, 144.257 541.190 C 102.274 557.912, 74.382 589.560, 72.325 622.807 C 70.619 650.377, 89.849 676.401, 119.500 686.650 C 126.841 689.187, 128.753 689.418, 142.720 689.457 C 160.202 689.506, 159.989 689.601, 163.970 680 C 165.225 676.975, 170.299 666.050, 175.247 655.723 C 183.699 638.081, 184.217 636.629, 183.810 631.723 C 183.245 624.915, 179.234 616.294, 173.981 610.595 C 163.573 599.304, 145.116 596.691, 135.487 605.146 C 131.756 608.422, 130.673 611.758, 133.750 610.496 C 137.310 609.036, 149.006 608.742, 153.498 609.999 C 159.224 611.602, 166.291 617.771, 168.378 622.987 C 171.122 629.845, 171.564 639.986, 169.385 646.070 C 164.240 660.429, 145.999 670.277, 130.349 667.146 C 117.058 664.486, 104.598 654.710, 98.743 642.347 C 95.696 635.914, 95.500 634.834, 95.500 624.479 C 95.500 614.076, 95.682 613.089, 98.735 606.887 C 103.844 596.510, 121.374 579.971, 136 571.729 C 148.274 564.813, 181.592 555.332, 210.500 550.530 C 245.819 544.662, 277.968 536.515, 295.551 528.978 C 297.998 527.929, 300 527.472, 300 527.961 C 300 528.451, 292.687 535.157, 283.750 542.865 C 233.746 585.985, 228.718 590.675, 215.685 606.336 C 188.139 639.437, 165.196 688.498, 157.853 730 C 156.126 739.764, 156.137 777.658, 157.871 788.500 C 161.904 813.722, 172.086 835.680, 188.907 855.432 C 197.033 864.975, 212.932 876.856, 216.142 875.786 C 216.759 875.580, 212.816 870.641, 207.381 864.809 C 187.198 843.151, 176.464 818.362, 173.765 787.178 C 171.272 758.377, 177.725 723.424, 190.073 698.849 C 201.895 675.320, 214.791 657.332, 233.982 637.604 C 261.585 609.229, 281.079 592.802, 328.500 557.953 C 370.475 527.107, 397.398 505.658, 416.250 488.044 C 420.512 484.061, 424 481.315, 424 481.941 C 424 483.673, 420.159 490.858, 415.948 497 C 410.852 504.434, 402.040 512.926, 382.739 529 C 367.547 541.651, 366.150 543.112, 360.514 552.226 C 357.206 557.576, 349.443 569.384, 343.263 578.466 C 323.255 607.868, 309.885 638.865, 298.583 682.049 C 293.897 699.954, 292.377 709.299, 290.947 729 C 287.598 775.127, 294.795 814.351, 315.113 860.709 C 327.894 889.871, 330.949 899.664, 330.983 911.591 C 330.992 914.941, 330.342 919.870, 329.537 922.544 C 327.815 928.264, 328.360 929.437, 331.135 925.985 C 335.776 920.212, 336.955 915.974, 336.978 904.980 C 337.003 892.823, 336.267 889.709, 325.964 858.404 C 317.041 831.291, 312.556 813.615, 310.638 798 C 304.771 750.224, 309.824 709.017, 327.147 663.387 C 339.857 629.908, 374.691 567.467, 378.555 571.239 C 378.971 571.646, 376.700 578.621, 373.508 586.739 C 362.765 614.064, 354.908 637.859, 351.624 653.016 C 351.278 654.615, 350.007 655.936, 348.135 656.643 C 342.662 658.709, 336 670.967, 336 678.970 C 336 682.852, 340.119 690.272, 343.224 691.981 C 345.668 693.327, 346.112 693.316, 347.554 691.874 C 348.438 690.991, 351.087 682.670, 353.440 673.384 C 363.785 632.572, 397.985 542.758, 414.659 512.617 C 425.709 492.642, 446.498 458.230, 456.112 444 C 469.132 424.727, 486 405.569, 486 410.054 C 486 412.172, 477.243 428.277, 464.066 450.390 C 437.626 494.764, 421.917 523.925, 408.439 553.654 C 368.195 642.421, 350.697 710.001, 353.926 764.199 C 355.204 785.644, 358.092 800.220, 365.549 822.843 C 374.154 848.955, 384.818 868.972, 399.501 886.574 C 422.108 913.675, 445.193 930.289, 473.500 939.831 C 489.446 945.207, 496.521 946.214, 518.500 946.239 C 540.623 946.264, 546.163 945.320, 561.573 938.905 C 575.914 932.935, 591.232 920.598, 600.567 907.500 C 605.649 900.369, 611.717 887.586, 613.621 880 C 616.760 867.496, 613.817 845.904, 607.760 837.005 C 605.282 833.363, 600.356 829.310, 599.477 830.190 C 599.171 830.495, 600.115 833.840, 601.574 837.623 C 603.895 843.639, 604.235 846.003, 604.291 856.500 C 604.422 880.999, 595.652 898.142, 576.182 911.446 C 550.562 928.951, 503.215 926.129, 468.400 905.021 C 447.621 892.423, 427.536 871.395, 413.501 847.544 C 400.860 826.063, 393.476 803.561, 389.859 775.500 C 387.921 760.468, 388.219 721.477, 390.393 705.500 C 397.503 653.253, 415.923 599.825, 450.555 531 C 464.417 503.451, 473.320 487.778, 485.489 469.500 C 494.164 456.469, 503 446.021, 503 448.794 C 503 449.454, 500.798 455.958, 498.106 463.247 C 492.758 477.728, 491.083 485.032, 488.047 507.105 C 485.347 526.740, 484.501 549.520, 485.884 565.344 C 487.026 578.408, 492.028 603.883, 496.565 619.740 C 504.908 648.897, 520.678 681.520, 538.021 705.500 C 578.367 761.285, 633.284 798.267, 689.500 807.512 C 701.207 809.437, 722.367 809.414, 733.553 807.463 C 755.072 803.710, 770.109 796.185, 782.187 783.124 C 789.491 775.226, 792.105 770.628, 794.457 761.540 C 796.403 754.024, 796.406 748.977, 794.469 741.542 C 791.002 728.230, 782.121 717.150, 770.248 711.322 C 765.050 708.770, 763.494 708.500, 754 708.500 C 744.720 708.500, 742.841 708.809, 737.825 711.160 C 725.615 716.884, 717.285 728.578, 716.252 741.444 C 714.953 757.638, 728.373 771.604, 737.604 763.664 C 740.417 761.244, 740.219 759.003, 737.191 758.996 C 733.586 758.988, 729.237 755.189, 727.437 750.474 C 725.900 746.449, 725.815 745.139, 726.846 741.285 C 728.438 735.335, 733.213 728.549, 738.071 725.334 C 743.571 721.695, 753.829 720.942, 760.080 723.720 C 770.798 728.482, 775.518 736.118, 774.772 747.487 C 773.946 760.085, 767.804 768.435, 754.704 774.771 C 744.995 779.467, 739.139 780.503, 722.500 780.470 C 705.104 780.435, 698.417 779.224, 677.888 772.393 C 660.491 766.603, 660.252 766.438, 661.805 761.255 C 664.396 752.609, 662.481 733.738, 658.162 725.356 C 655.921 721.006, 649.378 714.289, 648.366 715.300 C 648.001 715.665, 648.874 717.659, 650.305 719.732 C 656.867 729.233, 658.005 740.782, 653.393 751.059 C 651.959 754.254, 650.114 757.126, 649.292 757.441 C 642.589 760.014, 596.332 719.856, 577.675 695.267 C 557.190 668.269, 541.988 638.462, 530.483 602.731 C 522.127 576.780, 519.603 559.475, 519.656 528.500 C 519.697 504.987, 521.090 492.305, 525.024 479.626 C 528.105 469.696, 534.996 463.414, 533.664 471.750 C 529.496 497.832, 529.154 504.356, 531.572 511.715 C 535.824 524.664, 553.539 557.633, 564.768 573.500 C 572.172 583.960, 593.020 606.167, 603.905 615.187 C 635.404 641.289, 674.453 660.539, 712 668.474 C 737.757 673.917, 779.788 674.118, 804.500 668.916 C 849.263 659.494, 883.767 637.416, 909.277 601.876 C 926.728 577.564, 935.213 551.832, 935.287 523 C 935.333 505, 932.902 494.247, 924.911 477.111 C 914.102 453.931, 892.449 430.901, 869.869 418.569 C 844.129 404.511, 803.280 398.580, 772.613 404.447 C 762.785 406.327, 748.842 411.090, 737.290 416.512 C 699.450 434.274, 670.404 472.079, 667.348 507.545 C 666.608 516.131, 668.467 533.138, 670.926 540.286 C 675.175 552.635, 683.484 565.653, 692.007 573.316 C 697.938 578.649, 714.660 587.168, 724.011 589.621 C 733.500 592.110, 753.893 591.838, 764.500 589.081 C 776.458 585.973, 785.630 581.063, 792.861 573.899 C 803.820 563.041, 808.982 553.443, 811.058 540.064 C 814.838 515.704, 797.860 492.213, 775.094 490.305 C 764.949 489.454, 758.538 491.681, 750.973 498.685 C 743.176 505.904, 740.814 510.506, 740.217 519.641 C 739.820 525.721, 740.101 527.483, 742.105 531.495 C 744.708 536.708, 748.830 540.668, 752.650 541.627 C 756.475 542.587, 757.618 540.676, 755.226 537.318 C 745.353 523.453, 755.055 504.626, 772.121 504.531 C 779.717 504.490, 785.346 508.237, 789.250 515.936 C 792.601 522.543, 792.797 528.209, 789.990 537.298 C 785.587 551.552, 771.663 561.265, 752.500 563.451 C 745.392 564.261, 734.380 562.247, 727.861 558.944 C 718.192 554.045, 704.896 541.610, 700.834 533.666 C 699.756 531.557, 698.401 525.932, 697.823 521.166 C 694.285 491.968, 713.109 462.522, 745.829 446.073 C 755.620 441.151, 772.177 435.996, 782.128 434.770 C 793.459 433.375, 816.932 434.989, 828.500 437.958 C 848.101 442.988, 869.555 456.722, 880.622 471.323 C 886.502 479.081, 893.201 493.218, 895.632 503 C 898.332 513.864, 898.099 535.515, 895.164 546.500 C 886.278 579.756, 856.526 609.534, 818.943 622.789 C 780.884 636.213, 729.948 634.513, 690 618.488 C 660.156 606.516, 639.106 592.236, 615.397 567.879 C 593.621 545.508, 573.693 512.909, 566.976 488.671 C 565.895 484.769, 564.713 476.689, 564.350 470.717 L 563.691 459.860 572.252 451.433 L 580.813 443.005 586.156 445.493 C 593.048 448.701, 604.168 448.891, 615.590 445.994 C 624.989 443.611, 669.356 422.480, 691.078 410.041 C 738.215 383.050, 784.614 345.829, 824.240 303.220 C 841.848 284.287, 848.660 276.171, 863.483 256.468 C 882.359 231.376, 897.440 208.599, 901.936 198.392 L 904.090 193.500 897.452 200 C 889.072 208.205, 871.210 228.992, 854.847 249.580 C 820.549 292.735, 788.351 323.986, 742.500 358.623 C 722.241 373.928, 689.323 394.854, 671.500 403.758 C 659.254 409.876, 628.333 423.627, 624.867 424.497 C 623.220 424.911, 620.896 427.324, 618.206 431.416 C 613.557 438.487, 606.460 445.402, 604.864 444.416 C 603.546 443.601, 604.487 436.873, 607.102 428.405 C 613.177 408.737, 610.817 382.207, 601.159 361.597 C 590.840 339.578, 571.036 319.384, 548.415 307.813 C 532.607 299.727, 514.921 295, 500.477 295 C 492.477 295, 491.692 295.208, 483.656 299.446 C 479.019 301.892, 474.950 303.617, 474.613 303.280 C 472.051 300.718, 476.445 291.055, 481.770 287.540 C 494.121 279.388, 512.095 279.881, 540.463 289.151 C 570.448 298.950, 597.853 323.384, 612.579 353.448 C 620.155 368.915, 622.983 380.639, 623.058 396.878 C 623.089 403.820, 623.450 411.300, 623.859 413.500 L 624.604 417.500 627.739 414.212 C 629.888 411.958, 631.231 409.205, 632.008 405.462 C 633.421 398.657, 635 398.382, 635 404.941 C 635 410.511, 636.263 411.977, 638.960 409.536 C 641.567 407.177, 642.991 400.496, 643.058 390.307 C 643.089 385.463, 643.454 379.700, 643.868 377.500 C 644.494 374.178, 644.938 376.254, 646.490 389.743 C 648.332 405.760, 648.385 405.962, 650.324 404.243 C 654.675 400.386, 656.189 394.508, 656.760 379.252 C 657.058 371.297, 657.628 365.398, 658.026 366.144 C 658.948 367.869, 660.884 381.523, 661.410 390 C 661.807 396.408, 662.249 397.226, 664.787 396.251 C 667.890 395.061, 669.364 389.535, 669.787 377.500 C 670.447 358.753, 671.529 360.404, 674.539 384.750 C 674.982 388.335, 675.641 390, 676.619 390 C 679.143 390, 680.218 384.840, 680.757 370.128 C 681.047 362.224, 681.611 356.374, 682.011 357.128 C 682.411 357.883, 683.734 364.124, 684.950 370.997 C 686.166 377.871, 687.339 383.673, 687.557 383.890 C 687.774 384.107, 688.576 383.767, 689.339 383.134 C 691.359 381.457, 692.171 367.540, 691.036 354.047 C 690.506 347.748, 690.228 342.439, 690.417 342.250 C 690.985 341.682, 694.128 355.414, 695.876 366.093 C 696.774 371.586, 697.909 376.175, 698.397 376.290 C 698.885 376.406, 700.204 375.269, 701.327 373.763 C 703.147 371.325, 703.424 369.142, 703.856 353.763 C 704.333 336.810, 704.365 336.608, 705.603 342.500 C 706.297 345.800, 707.434 353.287, 708.129 359.139 L 709.394 369.778 711.772 368.694 C 715.753 366.880, 717.007 363.020, 716.934 352.800 C 716.897 347.685, 716.324 339.374, 715.660 334.331 C 714.996 329.288, 714.750 325.346, 715.114 325.570 C 716.107 326.184, 719.700 340.312, 721.426 350.391 C 722.264 355.281, 723.121 359.454, 723.331 359.665 C 724.346 360.680, 727.099 358.488, 727.759 356.140 C 728.166 354.688, 728.427 345.625, 728.338 336 C 728.222 323.550, 728.462 319.221, 729.168 321 C 730.602 324.609, 734.983 345.977, 734.992 349.405 C 735 352.228, 735.055 352.260, 736.962 350.534 C 740.472 347.358, 741.321 342.527, 740.649 329.568 C 740.305 322.931, 739.800 315.250, 739.528 312.500 C 739.035 307.516, 739.042 307.524, 741.579 315 C 742.978 319.125, 744.846 326.887, 745.729 332.250 C 746.613 337.613, 747.710 342, 748.168 342 C 748.625 342, 749.958 341.042, 751.130 339.870 C 753.172 337.828, 753.236 337.118, 752.672 322.620 C 752.349 314.304, 751.779 306.150, 751.405 304.500 C 751.032 302.850, 751.020 301.770, 751.380 302.100 C 752.290 302.936, 756.604 318.217, 758.056 325.750 C 759.016 330.732, 759.636 332, 761.111 332 C 763.889 332, 764.336 328.494, 763.770 311.126 C 763.198 293.533, 763.446 293.647, 768.809 313.425 C 770.289 318.884, 771.950 323.333, 772.500 323.313 C 774.262 323.247, 775.970 318.639, 775.985 313.909 C 775.993 311.384, 775.502 305.619, 774.894 301.099 C 772.973 286.829, 774.173 289.344, 779.980 311.763 C 780.991 315.667, 781.259 315.932, 783.168 314.910 C 785.137 313.857, 785.219 313.228, 784.647 303.647 C 784.314 298.066, 783.803 291.925, 783.512 290 C 782.990 286.551, 783.012 286.566, 785.056 291 C 786.197 293.475, 788.112 298.313, 789.312 301.750 C 790.512 305.188, 791.778 308, 792.125 308 C 792.473 308, 793.309 306.668, 793.983 305.040 C 794.978 302.638, 794.907 300.305, 793.603 292.659 C 792.720 287.477, 791.760 281.721, 791.470 279.868 C 791.181 278.016, 792.678 281.335, 794.799 287.244 C 796.919 293.153, 798.994 298.327, 799.409 298.742 C 799.824 299.157, 800.802 298.624, 801.582 297.557 C 803.381 295.096, 803.374 285.797, 801.564 276.500 C 800.815 272.650, 800.355 269.339, 800.542 269.142 C 801.063 268.595, 803.848 275.653, 806.300 283.732 C 807.510 287.719, 808.827 290.985, 809.227 290.991 C 809.627 290.996, 810.700 289.861, 811.613 288.468 C 813.269 285.940, 813.254 282.652, 811.529 270.500 C 811.032 267, 811.280 267.312, 813.515 273 C 814.920 276.575, 816.300 280.155, 816.582 280.956 C 816.967 282.048, 817.717 281.672, 819.574 279.456 C 821.674 276.951, 821.965 275.813, 821.480 272 C 821.166 269.525, 820.698 265.250, 820.441 262.500 L 819.973 257.500 822.413 264.226 C 825.712 273.322, 825.828 273.463, 828.218 271.315 C 830.009 269.706, 830.168 268.707, 829.623 262.500 C 829.285 258.650, 828.746 254.150, 828.426 252.500 C 827.517 247.817, 829.712 251.470, 831.580 257.750 C 833.174 263.107, 834.764 264.195, 837.022 261.473 C 837.931 260.378, 838.111 257.837, 837.657 252.473 C 837.310 248.363, 837.209 245, 837.432 245 C 837.656 245, 838.603 247.298, 839.535 250.106 L 841.231 255.213 843.241 253.204 C 844.346 252.099, 845.250 250.109, 845.250 248.781 C 845.250 246.967, 845.777 246.384, 847.375 246.434 C 849.253 246.492, 849.566 245.802, 850.066 240.500 C 850.589 234.965, 850.695 234.752, 851.441 237.750 C 851.886 239.537, 852.621 241, 853.074 241 C 853.836 241, 858.999 234.819, 859 233.906 C 859.001 233.338, 889.186 202.979, 898.180 194.500 C 903.922 189.087, 909.358 181.946, 922.160 163 C 947.461 125.555, 958.373 110.182, 965.234 102.317 C 968.680 98.367, 971.837 95.104, 972.250 95.067 C 975.072 94.814, 968.718 106.292, 948.482 138 C 942.340 147.625, 933.804 161.350, 929.513 168.500 C 919.543 185.115, 898.283 218.611, 886.671 236 C 865.635 267.503, 847.034 291.089, 822.202 317.750 L 810.792 330 814.646 330 C 824.440 329.999, 866.244 321.665, 878.456 317.278 C 887.959 313.864, 899.985 307.746, 908.544 301.970 C 919.526 294.560, 929.590 284, 925.670 284 C 923.904 284, 919 280.198, 919 278.829 C 919 278.264, 920.601 278.747, 922.557 279.901 C 924.514 281.056, 926.773 282, 927.579 282 C 929.477 282, 936.013 271.901, 941.494 260.500 C 949.344 244.169, 955.610 223.874, 961.506 195.683 C 963.327 186.974, 965.142 179.546, 965.539 179.175 C 967.271 177.554, 963.419 217.079, 960.391 232 C 956.557 250.893, 943.988 281.216, 935.043 293.154 C 921.386 311.380, 887.547 328.201, 854 333.440 C 841.667 335.366, 822.686 336.977, 812.174 336.990 C 803.877 337, 803.828 337.015, 798.174 341.378 C 795.053 343.786, 791.606 346.752, 790.513 347.968 C 788.531 350.176, 788.531 350.184, 790.513 351.698 C 793.300 353.826, 826.414 352.791, 845.310 349.985 C 885.884 343.960, 922.752 328.522, 940.163 310.268 C 957.479 292.114, 970.973 257.367, 977.117 215.118 C 979.080 201.614, 979.185 197.428, 978.826 146.618 C 978.549 107.343, 978.119 91.919, 977.258 90.382 C 976.605 89.217, 974.593 87.957, 972.786 87.581 C 963.171 85.583, 945.873 82.714, 924 79.490 C 910.525 77.504, 885.550 73.678, 868.500 70.988 C 800.499 60.258, 777.658 58.100, 752.500 60.029 M 906.212 104.150 C 908.039 104.818, 909.509 104.802, 910.712 104.101 C 912.135 103.273, 911.582 103.071, 908 103.109 C 903.846 103.154, 903.709 103.234, 906.212 104.150 M 105 149 C 103.165 150.835, 102.156 156, 103.632 156 C 103.980 156, 105.785 155.060, 107.645 153.911 C 111.156 151.740, 113.391 148.725, 112.298 147.631 C 110.983 146.316, 106.922 147.078, 105 149 M 155.916 160.250 C 144.525 166.165, 148.198 167.767, 164.172 163.850 L 172.941 161.699 179.491 163.850 C 186.871 166.272, 192.396 166.687, 191.757 164.770 C 191.115 162.845, 183.048 159.121, 177.114 158.009 C 167.473 156.203, 162.747 156.703, 155.916 160.250 M 88.599 163.496 C 83.063 168.626, 80.067 180.151, 83.524 183.020 C 84.362 183.716, 85.191 184.108, 85.366 183.893 C 91.910 175.804, 99.369 163.405, 98.518 162.030 C 97.287 160.038, 91.390 160.910, 88.599 163.496 M 297.521 187.130 C 287.094 190.101, 274.496 196.313, 272.395 199.521 C 271.408 201.027, 270.600 203.776, 270.600 205.630 C 270.600 212.358, 271.859 212.044, 288.217 201.235 C 296.623 195.681, 305.637 190.116, 308.250 188.869 C 310.863 187.622, 313 186.241, 313 185.801 C 313 184.376, 304.683 185.090, 297.521 187.130 M 71.627 193.031 C 68.500 196.748, 67.013 201.820, 67.006 208.795 C 67.001 213.120, 67.460 214.551, 69.508 216.599 C 70.888 217.979, 72.435 218.849, 72.947 218.533 C 73.853 217.973, 82 193.282, 82 191.097 C 82 190.488, 80.260 190, 78.089 190 C 74.962 190, 73.666 190.608, 71.627 193.031 M 366.500 203.878 C 361.623 204.921, 362.692 207.448, 368.160 207.801 C 373.212 208.128, 380.542 205.687, 379.513 204.021 C 378.832 202.919, 371.367 202.837, 366.500 203.878 M 348.942 205.948 C 343.846 207.495, 341.869 209.067, 342.189 211.318 C 342.449 213.144, 343.234 213.542, 347 213.760 C 352.543 214.080, 355.814 212.483, 358.287 208.248 L 360.184 205 355.842 205.086 C 353.454 205.133, 350.349 205.521, 348.942 205.948 M 254.950 217.664 C 248.980 223.058, 243 233.621, 243 238.773 C 243 241.859, 243.498 243.196, 244.934 243.965 C 245.998 244.534, 247.099 245, 247.382 245 C 248.074 245, 266 217.942, 266 216.896 C 266 215.825, 262.578 214, 260.569 214 C 259.709 214, 257.181 215.649, 254.950 217.664 M 64.273 225.706 C 62.940 227.740, 62.500 230.446, 62.500 236.601 C 62.500 246.156, 64.108 249, 69.510 249 L 72.711 249 73.348 242.250 C 74.450 230.585, 74.174 226.468, 72.171 224.655 C 69.457 222.199, 66.296 222.619, 64.273 225.706 M 236.750 251.080 C 230.093 254.958, 230.223 277, 236.903 277 C 239.541 277, 240.711 275.204, 242.478 268.443 C 244.977 258.882, 245.539 251.955, 243.899 250.917 C 242.049 249.745, 238.919 249.817, 236.750 251.080 M 65.955 254.554 C 63.766 257.191, 63.475 268.337, 65.459 273.533 C 68.164 280.614, 74.030 284.078, 77.085 280.397 C 78.196 279.059, 78.134 277.146, 76.707 268.781 C 75.767 263.274, 74.432 257.583, 73.742 256.134 C 72.234 252.973, 67.983 252.110, 65.955 254.554 M 232.190 286.298 C 229.318 289.355, 228.568 293.682, 229.993 298.974 C 232.077 306.712, 239.575 311.627, 242.999 307.501 C 243.968 306.334, 243.998 304.395, 243.138 298.751 C 241.231 286.237, 240.319 284, 237.127 284 C 235.521 284, 233.437 284.970, 232.190 286.298 M 909.578 288.343 C 910.230 290.041, 915.327 292.391, 917.086 291.805 C 918.429 291.357, 914.734 288.678, 911.256 287.579 C 909.522 287.030, 909.141 287.204, 909.578 288.343 M 74.174 291.750 C 70.282 299.343, 74.558 312.945, 82.269 317.500 C 84.654 318.909, 85.611 318.990, 88.031 317.987 C 89.627 317.326, 91.178 316.016, 91.476 315.076 C 92.416 312.115, 86.078 296.129, 82.229 291.750 C 81.382 290.788, 79.426 290, 77.880 290 C 76.212 290, 74.706 290.711, 74.174 291.750 M 898.586 296.365 C 899.298 298.220, 904.506 300.127, 906.632 299.311 C 907.831 298.851, 907.510 298.413, 905.289 297.479 C 899.383 294.996, 897.971 294.761, 898.586 296.365 M 471.613 316.113 C 466.708 317.265, 460.307 320.825, 459.398 322.908 C 458.106 325.866, 451.195 346.498, 451.416 346.734 C 451.536 346.863, 455.517 343.405, 460.262 339.049 C 472.009 328.266, 476.218 325.955, 471.006 333.150 C 465.949 340.131, 467.580 340.720, 474.250 334.323 C 480.254 328.565, 485 325.165, 485 326.622 C 485 327.003, 483.136 329.731, 480.859 332.683 C 478.581 335.635, 476.921 338.254, 477.170 338.503 C 477.418 338.752, 481.128 336.040, 485.413 332.478 C 495.924 323.738, 496.999 323.763, 491.927 332.628 C 490.236 335.583, 489.157 338, 489.528 338 C 489.899 338, 493.362 335.075, 497.223 331.500 C 505.989 323.383, 508.130 322.980, 504.426 330.143 C 503.561 331.816, 503.054 333.388, 503.301 333.634 C 504.236 334.570, 510.092 328.681, 509.572 327.327 C 508.749 325.182, 511.535 324.647, 516.768 325.946 C 523.827 327.698, 531.374 331.393, 540.701 337.664 C 545.295 340.753, 549.282 343.051, 549.562 342.772 C 550.180 342.153, 540.365 333.088, 533.500 327.937 C 527.104 323.138, 517.213 318.143, 510.642 316.393 C 504.770 314.829, 477.903 314.637, 471.613 316.113 M 240.073 318.635 C 238.654 320.438, 238.001 322.726, 238.004 325.885 C 238.010 333.949, 243.495 340.172, 250.787 340.389 L 254.500 340.500 254.230 336.233 C 253.752 328.678, 246.965 316, 243.398 316 C 242.709 316, 241.212 317.186, 240.073 318.635 M 91.667 325.667 C 90.179 327.155, 91.153 333.914, 93.548 338.721 C 96.413 344.469, 103.569 351.603, 107.448 352.576 C 110.874 353.436, 115 350.713, 115 347.591 C 115 344.357, 107.864 333.930, 102.296 329.029 C 98.009 325.256, 93.503 323.830, 91.667 325.667 M 512.667 327.667 C 511.750 328.583, 511.822 334.005, 512.750 333.978 C 513.163 333.966, 514.625 333.060, 516 331.965 C 518.446 330.018, 518.458 329.943, 516.559 328.487 C 514.407 326.839, 513.654 326.680, 512.667 327.667 M 433.244 333.052 C 430.962 334.730, 427.545 338.218, 425.652 340.802 C 422.145 345.589, 413.347 365.015, 412.288 370.308 C 411.747 373.016, 411.879 373.176, 414.102 372.504 C 421.374 370.307, 435.049 350.685, 439.308 336.337 C 441.510 328.920, 439.986 328.094, 433.244 333.052 M 255.174 349.314 C 252.464 352.200, 252.445 354.222, 255.078 359.661 C 259.097 367.962, 266.032 371.224, 271.040 367.169 C 272.776 365.763, 273.149 364.728, 272.643 362.713 C 271.949 359.948, 260.217 347, 258.406 347 C 257.824 347, 256.370 348.042, 255.174 349.314 M 116.974 358.532 C 113.930 362.199, 121.032 374.183, 129.619 379.871 C 135.516 383.777, 139.337 383.941, 141.666 380.388 C 143.310 377.879, 143.284 377.599, 141.013 373.318 C 137.214 366.157, 125.513 357, 120.162 357 C 119.108 357, 117.673 357.689, 116.974 358.532 M 539.979 361.878 C 530.250 363.304, 515.749 375.427, 510.527 386.500 C 500.046 408.724, 509.568 437.086, 529.682 443.554 C 542.209 447.583, 557.327 445.211, 567.213 437.666 C 572.321 433.767, 579.032 424.128, 582.059 416.340 C 585.313 407.968, 585.346 392.907, 582.127 384.753 C 575.753 368.607, 558.385 359.181, 539.979 361.878 M 276.637 374.250 C 272.812 377.727, 272.464 380.434, 275.532 382.846 C 278.376 385.084, 292.121 388.551, 294.511 387.634 C 297.060 386.656, 296.157 383.554, 292.250 379.869 C 283.303 371.430, 280.749 370.511, 276.637 374.250 M 542.453 378.273 C 536.849 380.530, 531.967 384.163, 528.581 388.598 C 524.450 394.008, 521.527 404.111, 522.246 410.494 C 522.917 416.447, 527.417 423.644, 532.860 427.469 C 541.469 433.520, 554.102 430.740, 564.289 420.553 C 570.555 414.287, 572.301 409.257, 571.856 398.750 C 571.543 391.355, 571.159 389.895, 568.669 386.632 C 564.005 380.518, 558.708 377.621, 551.633 377.313 C 548.260 377.167, 544.129 377.599, 542.453 378.273 M 149.200 384.200 C 144.673 388.727, 152.060 399.325, 163.435 404.622 C 176.543 410.726, 181.648 404.517, 171.699 394.569 C 162.739 385.609, 152.507 380.893, 149.200 384.200 M 420.205 427.250 C 374.804 472.140, 367.728 478.761, 343 499.489 C 333.925 507.095, 321.097 518.760, 314.493 525.409 C 307.889 532.059, 298.857 540.650, 294.422 544.500 C 262.303 572.381, 235.360 598.247, 223.071 613 C 211.957 626.342, 201 640.763, 201 642.049 C 201 642.595, 207.008 636.394, 214.352 628.271 C 235.612 604.750, 256.572 585.099, 285.021 562.013 C 348.326 510.643, 370.331 491.592, 399.356 463.026 C 427.820 435.012, 448.223 411.660, 459.381 394.325 C 464.293 386.694, 464.592 386, 462.962 386 C 462.392 386, 443.151 404.563, 420.205 427.250 M 552.092 392.132 C 549.266 395.165, 549.417 399.508, 552.455 402.545 C 555.422 405.513, 558.324 405.676, 560.975 403.025 C 564.085 399.915, 564.572 396.245, 562.281 393.163 C 559.619 389.580, 554.913 389.104, 552.092 392.132 M 184.744 407.730 C 182.355 410.370, 182.552 412.314, 185.573 415.905 C 188.699 419.620, 201.137 425.940, 206.821 426.703 C 211.587 427.342, 216 425.120, 216 422.081 C 216 419.336, 209.632 414.201, 201.349 410.268 C 192.071 405.862, 187.120 405.105, 184.744 407.730 M 223.469 426.266 C 222.665 429.470, 224.126 432.240, 228.263 435.357 C 236.779 441.771, 254.217 443.089, 256.368 437.482 C 258.045 433.114, 242.936 425.297, 230.857 424.285 C 224.261 423.732, 224.094 423.776, 223.469 426.266 M 119.250 435.737 C 118.563 435.973, 118 437.500, 118 439.129 C 118 441.726, 118.648 442.394, 123.250 444.536 C 129.076 447.248, 132.001 447.599, 133.800 445.800 C 135.903 443.697, 135.114 442.151, 130.584 439.497 C 125.625 436.590, 121.118 435.095, 119.250 435.737 M 265.028 438.471 C 262.991 440.639, 262.877 441.157, 264.103 442.707 C 268.543 448.320, 275.654 451, 286.105 451 C 291.899 451, 293.279 450.636, 295.923 448.411 C 297.615 446.987, 299 445.162, 299 444.355 C 299 442.366, 292.122 439.490, 282.792 437.579 C 271.652 435.297, 267.829 435.489, 265.028 438.471 M 780.500 444.626 C 770.244 446.645, 768.016 447.337, 766.147 449.078 C 763.169 451.852, 763.458 453.688, 767.250 456.078 C 769.866 457.728, 771.670 458.042, 776.500 457.692 C 786.373 456.977, 794.436 454.230, 798.452 450.215 C 804.074 444.593, 803.454 443.983, 792.250 444.116 C 786.888 444.180, 781.600 444.409, 780.500 444.626 M 810.667 444.667 C 808.946 446.387, 810.114 450.944, 812.750 452.799 C 816.795 455.646, 833.291 462.001, 836.624 461.996 C 839.697 461.992, 846 458.672, 846 457.057 C 846 455.301, 837.687 451.170, 826.873 447.554 C 816.546 444.100, 812.037 443.297, 810.667 444.667 M 136.035 446.934 C 134.511 449.782, 134.736 450.827, 137.455 453.545 C 140.146 456.237, 144.558 456.775, 147.328 454.750 C 148.899 453.601, 148.909 453.315, 147.453 451.236 C 146.122 449.337, 139.253 445, 137.575 445 C 137.297 445, 136.605 445.870, 136.035 446.934 M 747.057 455.594 C 734.436 461.466, 730.498 465.679, 734.514 469.012 C 736.535 470.689, 743.791 469.657, 749.129 466.934 C 755.294 463.789, 758 460.409, 758 455.854 C 758 451, 756.982 450.976, 747.057 455.594 M 153.500 460 C 151.752 461.932, 151.755 462.072, 153.595 464.108 C 156.164 466.951, 164.332 471, 167.498 471 C 170.402 471, 171.822 468.553, 170.334 466.114 C 168.780 463.567, 160.004 458, 157.542 458 C 156.314 458, 154.495 458.900, 153.500 460 M 853.536 464.960 C 851.094 467.659, 852.160 471.160, 856.854 475.854 C 863.486 482.486, 878 489.488, 878 486.055 C 878 482.874, 864.616 466.887, 859.920 464.458 C 856.261 462.567, 855.659 462.614, 853.536 464.960 M 720.444 475.603 C 713.786 482.532, 707.217 495.170, 706.333 502.750 C 705.962 505.933, 706.108 508, 706.703 508 C 707.646 508, 720.666 491.035, 726.445 482.275 C 728.697 478.862, 729.106 477.380, 728.577 474.561 C 728.217 472.641, 727.482 470.798, 726.943 470.465 C 726.404 470.131, 723.479 472.444, 720.444 475.603 M 181.200 473.200 C 178.201 476.199, 180.537 479.530, 188.018 482.923 C 193.652 485.478, 197.207 485.533, 199.410 483.099 C 201.044 481.294, 201.020 481.097, 198.934 479.154 C 196.986 477.338, 185.237 472, 183.189 472 C 182.755 472, 181.860 472.540, 181.200 473.200 M 50.250 474.662 C 49.563 474.940, 49 476.749, 49 478.683 C 49 481.349, 49.822 483.022, 52.400 485.600 C 56.028 489.228, 56.694 489.480, 58.927 488.066 C 60.112 487.316, 59.805 486.046, 57.115 480.581 C 54.026 474.307, 53.103 473.511, 50.250 474.662 M 209.667 484.667 C 208.166 486.168, 209.160 489.981, 211.541 491.853 C 214.538 494.211, 222.378 496.065, 226.190 495.317 C 227.670 495.027, 229.611 493.983, 230.504 492.996 C 232.013 491.328, 231.964 491.088, 229.813 489.572 C 225.127 486.268, 211.406 482.928, 209.667 484.667 M 878.408 491.640 C 877.362 497.216, 884.330 516.610, 887.795 517.765 C 889.563 518.354, 889.288 515.393, 886.588 504.749 C 882.891 490.175, 879.655 484.990, 878.408 491.640 M 240.696 492.145 C 234.183 494.602, 241.219 499.996, 251.937 500.763 C 258.190 501.211, 258.840 501.067, 260.356 498.902 C 261.260 497.611, 262 496.015, 262 495.355 C 262 492.686, 245.752 490.237, 240.696 492.145 M 61.465 495.057 C 58.691 499.544, 70.460 509.353, 74.548 505.960 C 75.347 505.297, 76 504.398, 76 503.962 C 76 503.026, 64.186 494, 62.960 494 C 62.497 494, 61.824 494.476, 61.465 495.057 M 271.571 495.571 C 270.707 496.436, 270 498.072, 270 499.208 C 270 501.138, 270.429 501.239, 276.510 500.751 C 280.090 500.464, 283.736 499.634, 284.612 498.907 C 286.050 497.713, 285.990 497.410, 283.992 495.792 C 281.184 493.519, 273.756 493.386, 271.571 495.571 M 471.250 512.199 C 463.595 526.661, 445.578 564.297, 439.590 578.330 C 435.475 587.976, 434.757 590.819, 433.026 604.330 C 425.762 661.012, 428.929 693.597, 445.480 732.500 C 461.932 771.168, 484.839 798.891, 509.621 810.128 C 525.604 817.375, 545.766 820.095, 569.212 818.168 C 580.439 817.245, 582.702 816.736, 588.583 813.811 C 592.245 811.990, 596.874 809.087, 598.870 807.361 L 602.500 804.222 597.749 801.911 L 592.997 799.600 585.474 801.813 C 569.805 806.424, 548.738 806.888, 533.364 802.962 C 513.747 797.953, 495.112 782.998, 480.453 760.500 C 454.744 721.041, 446.922 672.848, 456.025 610 C 459.466 586.243, 463.950 574.186, 470.343 571.498 L 473.500 570.171 473.633 552.835 C 473.717 541.824, 474.546 529.337, 475.905 518.606 C 477.082 509.314, 477.862 501.529, 477.638 501.305 C 477.414 501.081, 474.540 505.983, 471.250 512.199 M 80 510.389 C 80 515.553, 93.066 521.142, 97.936 518.061 C 99.077 517.339, 99.122 516.852, 98.154 515.686 C 96.607 513.821, 88.635 510.384, 83.750 509.475 C 80.680 508.904, 80 509.069, 80 510.389 M 528.015 533.691 C 528.031 540.112, 529.637 544.306, 532.275 544.814 C 534.511 545.245, 534.460 543.699, 531.973 535.648 C 529.310 527.025, 527.996 526.376, 528.015 533.691 M 263 547.180 C 258.852 548.365, 257 549.736, 257 551.622 C 257 554.614, 267.758 552.405, 272.641 548.410 L 275.500 546.072 271 546.126 C 268.525 546.156, 264.925 546.630, 263 547.180 M 531.338 548.562 C 530.250 551.396, 531.771 569.409, 533.511 574.295 C 535.793 580.703, 540.569 585.641, 545.354 586.539 C 548.644 587.156, 549.512 586.884, 552.066 584.437 C 553.680 582.891, 554.989 580.923, 554.976 580.063 C 554.962 579.203, 552.150 574.139, 548.726 568.808 C 545.301 563.478, 540.832 556.390, 538.793 553.058 C 535.140 547.087, 532.512 545.502, 531.338 548.562 M 236.049 552.947 C 225.556 556.569, 225.926 561, 236.721 561 C 243.953 561, 249.577 558.907, 250.546 555.856 C 252.107 550.936, 245.635 549.638, 236.049 552.947 M 348.500 554.417 C 346.850 555.694, 332.605 566.479, 316.845 578.382 C 276.731 608.678, 279.718 605.586, 268.536 628.381 C 248.589 669.043, 242.052 691.230, 239.885 725.631 C 238.236 751.807, 239.262 778.223, 242.871 802.500 C 250.784 855.723, 249.490 881.024, 237.608 905.429 C 229.133 922.837, 219.274 932.821, 201.988 941.505 C 190.665 947.193, 184.823 948.809, 170.764 950.144 C 156.190 951.528, 144.593 950.276, 135.917 946.382 C 132.640 944.911, 129.736 943.930, 129.465 944.201 C 128.385 945.281, 133.473 950.206, 138.082 952.541 C 145.815 956.460, 153.431 958, 165.079 958 C 182.126 958, 194.719 955.191, 208.351 948.346 C 232.928 936.007, 252.692 908.006, 258.596 877.160 C 261.064 864.263, 261.432 837.967, 259.514 811.500 C 257.083 777.953, 257.005 739.854, 259.338 725.500 C 263.209 701.688, 270.061 678.396, 278.525 660.285 C 286.056 644.168, 296.776 627.583, 317.490 600 C 324.719 590.375, 333.913 577.775, 337.922 572 C 341.931 566.225, 346.991 559.362, 349.165 556.750 C 353.458 551.593, 353.220 550.762, 348.500 554.417 M 206.297 558.049 C 197.530 559.781, 195.438 563.032, 201.468 565.551 C 208.544 568.508, 219.998 566.153, 220.856 561.566 C 221.620 557.481, 216.020 556.129, 206.297 558.049 M 173.180 564.903 C 167.050 567.020, 165.501 568.256, 166.316 570.380 C 167.088 572.392, 174.498 574.317, 178.547 573.557 C 182.217 572.869, 187.779 569.367, 189.406 566.722 C 191.846 562.755, 182.448 561.702, 173.180 564.903 M 933.664 567.750 C 933.414 568.163, 931.083 573.900, 928.484 580.500 C 925.885 587.100, 922.912 594.170, 921.879 596.210 C 919.514 600.880, 919.468 600.619, 922.875 601.807 C 924.893 602.510, 926.440 602.465, 928.063 601.654 C 932.701 599.340, 941 581.938, 941 574.528 C 941 572.833, 940.299 570.445, 939.443 569.223 C 937.937 567.071, 934.591 566.219, 933.664 567.750 M 144.500 574.840 C 139.575 577.519, 137.500 579.220, 137.500 580.574 C 137.500 582.268, 138.244 582.499, 143.673 582.493 C 148.928 582.488, 150.490 582.035, 154.168 579.450 C 158.697 576.267, 160.126 573.329, 157.848 571.885 C 155.234 570.228, 151.426 571.071, 144.500 574.840 M 469.973 583.250 C 466.906 588.240, 465.769 593.747, 466.169 601.671 C 466.557 609.358, 468.053 612.457, 473.248 616.336 C 475.552 618.056, 476.247 618.140, 478.936 617.026 C 481.458 615.982, 482 615.187, 482 612.536 C 482 608.973, 476.660 582.876, 475.570 581.113 C 474.311 579.077, 471.994 579.962, 469.973 583.250 M 121.404 589.294 C 113.356 595.236, 112.505 596.363, 114.537 598.394 C 116.942 600.799, 120.221 600.347, 124.886 596.967 C 129.762 593.435, 131.898 589.647, 130.374 587.232 C 128.661 584.515, 127.523 584.776, 121.404 589.294 M 558.395 591.520 C 556.381 594.594, 556.868 600.801, 559.575 606.540 C 561.955 611.588, 569.983 619.677, 574.474 621.553 C 579.476 623.644, 581.563 623.362, 585.209 620.104 C 588.258 617.380, 588.367 617.055, 587.055 614.603 C 585.373 611.459, 562.611 589, 561.107 589 C 560.524 589, 559.303 590.134, 558.395 591.520 M 104.058 608.079 C 98.915 615.178, 97.693 622, 101.564 622 C 103.964 622, 108.831 618.233, 110.388 615.171 C 113.079 609.879, 113.201 608.201, 111.051 606.051 C 108.202 603.202, 107.428 603.426, 104.058 608.079 M 913.714 611.100 C 911.389 612.453, 897.480 629.172, 895.510 632.980 C 894.093 635.720, 894.122 635.995, 895.928 636.962 C 901.073 639.715, 907.657 637.266, 914.307 630.125 C 919.296 624.768, 922.940 618.112, 922.978 614.285 C 923.014 610.654, 917.650 608.809, 913.714 611.100 M 422.962 615.588 C 420.506 621.319, 419.344 628, 420.805 628 C 421.388 628, 422.109 627.212, 422.408 626.250 C 423.476 622.804, 425.748 611, 425.342 611 C 425.115 611, 424.044 613.065, 422.962 615.588 M 592.580 626.652 C 592.232 627.560, 592.667 630.782, 593.547 633.811 C 594.781 638.053, 596.354 640.495, 600.396 644.442 C 609.154 652.992, 624.798 660, 635.125 660 C 639.530 660, 640.135 660.316, 643.194 664.209 C 653.345 677.131, 666.774 685.625, 678.774 686.713 C 684.590 687.241, 685.035 687.119, 687.943 684.211 C 691.473 680.680, 691.811 678.044, 689.052 675.547 C 687.981 674.578, 679.543 670.738, 670.302 667.014 C 661.061 663.291, 651.250 659.261, 648.500 658.060 C 643.310 655.793, 628.112 646.104, 608.801 632.750 C 597.582 624.992, 593.767 623.558, 592.580 626.652 M 479.809 628.750 C 476.164 632.659, 474.998 635.319, 475.016 639.684 C 475.035 644.075, 478.350 650.460, 482.024 653.183 C 484.163 654.768, 485.044 654.881, 487.795 653.922 C 489.581 653.299, 491.444 652.039, 491.935 651.122 C 492.894 649.329, 491.981 643.042, 489.593 635.001 C 486.694 625.240, 484.431 623.794, 479.809 628.750 M 416.474 634.409 C 411.883 645.396, 412.691 651.942, 418.643 651.985 C 421.435 652.005, 422 650.300, 422 641.852 C 422 631.412, 419.265 627.728, 416.474 634.409 M 883.170 643.499 C 877.903 646.511, 863.350 656.567, 860.250 659.338 C 857.111 662.143, 857.443 664.690, 861.250 667.011 C 865.571 669.646, 868.575 669.514, 874.784 666.420 C 886.057 660.803, 895.613 648.836, 893.147 643.424 C 891.721 640.293, 888.740 640.315, 883.170 643.499 M 74 659.291 C 74 662.088, 78.148 666.325, 80.411 665.841 C 81.811 665.540, 81.768 665.121, 80.053 662.314 C 78.983 660.561, 77.183 658.633, 76.054 658.029 C 74.252 657.064, 74 657.219, 74 659.291 M 414.707 659.016 C 409.375 663.210, 408.907 671.359, 413.674 677.024 C 416.477 680.356, 419.079 680.816, 421.128 678.344 C 423.091 675.975, 422.700 662.717, 420.571 659.467 C 418.612 656.478, 417.994 656.430, 414.707 659.016 M 490.306 659.644 C 487.912 660.617, 486.786 666.652, 487.951 672.263 C 489.340 678.957, 492.072 683.469, 495.947 685.473 C 501.332 688.257, 507.013 684.941, 506.990 679.027 C 506.978 675.960, 502.787 666.721, 499.383 662.257 C 496.991 659.121, 493.828 658.211, 490.306 659.644 M 829.725 671.951 C 820.498 675.166, 812.286 678.348, 811.475 679.021 C 807.468 682.347, 811.698 688.266, 818.959 689.493 C 823.620 690.280, 832.883 688.107, 839.798 684.602 C 845.621 681.651, 852 674.882, 852 671.652 C 852 669.346, 849.222 665.950, 847.421 666.053 C 846.915 666.082, 838.951 668.736, 829.725 671.951 M 80.607 669.582 C 79.161 673.350, 80.087 675.919, 84.145 679.393 C 91.189 685.421, 99.001 686.607, 96.111 681.208 C 94.943 679.025, 83.111 668, 81.937 668 C 81.539 668, 80.941 668.712, 80.607 669.582 M 702 681.365 C 702 694.870, 731.436 702.394, 742.736 691.778 C 746.282 688.447, 745.636 686.169, 740.503 683.898 C 736.047 681.927, 712.969 678.013, 705.750 678.005 C 702.159 678, 702 678.142, 702 681.365 M 771.050 682.148 C 759.179 683.388, 755 684.642, 755 686.967 C 755 690.112, 761.112 695.683, 766.024 697.017 C 772.574 698.795, 785.797 697.761, 791.442 695.028 C 800.500 690.643, 802.718 682.876, 795.264 681.644 C 790.453 680.849, 781.759 681.030, 771.050 682.148 M 416.029 688.184 C 410.813 696.739, 416.469 709.605, 424.555 707.576 C 427.192 706.914, 427.246 706.753, 426.623 701.445 C 424.923 686.982, 420.294 681.188, 416.029 688.184 M 102.503 687.996 C 100.720 689.967, 100.733 690.087, 102.986 692.485 C 106.076 695.775, 112.752 698.215, 117.579 697.821 C 120.726 697.563, 121.500 697.105, 121.500 695.500 C 121.500 694.025, 119.794 692.682, 115 690.382 C 105.520 685.836, 104.615 685.663, 102.503 687.996 M 506.174 693.314 C 503.243 696.435, 503.380 701.364, 506.578 707.780 C 509.970 714.587, 514.070 718, 518.854 718 C 522.987 718, 527 715.701, 527 713.333 C 527 710.812, 521.297 700.873, 516.911 695.750 C 512.306 690.371, 509.531 689.742, 506.174 693.314 M 129 696.345 C 129 700.281, 132.236 702.212, 139.724 702.747 C 145.394 703.151, 146.889 702.915, 148.883 701.298 C 150.857 699.697, 151.080 699.017, 150.179 697.334 C 149.285 695.664, 147.717 695.185, 141.395 694.651 C 129.326 693.630, 129 693.675, 129 696.345 M 153 696.500 C 152.007 697.697, 152.007 698.303, 153 699.500 C 155.536 702.555, 159 700.776, 159 696.418 C 159 694.522, 154.592 694.582, 153 696.500 M 336.017 704.829 C 328.997 711.849, 329.538 729.031, 336.893 732.650 C 339.613 733.988, 341.583 733.528, 342.415 731.362 C 342.728 730.546, 343.518 724.750, 344.172 718.482 C 345.074 709.828, 345.081 706.473, 344.201 704.543 C 342.664 701.170, 339.568 701.278, 336.017 704.829 M 423.073 716.635 C 420.475 719.937, 420.426 725.138, 422.938 730.672 C 425.440 736.182, 429.177 738.696, 432.569 737.151 C 436.282 735.459, 436.539 733.464, 434.057 725.623 C 430.254 713.611, 427.332 711.220, 423.073 716.635 M 528.883 724.117 C 527.169 725.831, 526.861 727.070, 527.262 730.635 C 528.229 739.211, 536.411 747.841, 544.430 748.745 C 548.211 749.171, 549.220 748.871, 551.424 746.667 C 552.841 745.250, 554 743.687, 554 743.193 C 554 741.531, 540.110 726.231, 536.671 724.106 C 532.419 721.478, 531.521 721.479, 528.883 724.117 M 334.750 743.080 C 331.689 744.863, 330 749.590, 330 756.373 C 330 762.148, 330.354 763.310, 333.292 767.172 C 335.819 770.494, 337.353 771.575, 339.890 771.821 L 343.195 772.141 342.847 758.033 C 342.572 746.854, 342.189 743.729, 341 742.978 C 339.075 741.762, 336.953 741.797, 334.750 743.080 M 436.073 744.635 C 433.404 748.027, 433.472 750.324, 436.428 756.674 C 439.221 762.672, 442.824 765.512, 446.477 764.595 C 450.289 763.638, 450.633 760.052, 447.511 753.824 C 444.488 747.793, 440.329 742, 439.022 742 C 438.540 742, 437.212 743.186, 436.073 744.635 M 555.655 753.829 C 553.570 756.133, 553.565 758.250, 555.637 762.300 C 562.187 775.105, 575.891 781.200, 582.738 774.353 L 585.385 771.706 578.246 764.898 C 565.089 752.351, 559.479 749.603, 555.655 753.829 M 452.992 770.510 C 451.310 772.536, 452.315 779.595, 454.758 782.913 C 458.982 788.651, 469.005 790.987, 468.997 786.231 C 468.993 783.992, 457.312 769, 455.571 769 C 454.842 769, 453.681 769.679, 452.992 770.510 M 588.174 779.314 C 585.629 782.024, 585.458 784.050, 587.449 787.901 C 590.542 793.883, 599.043 799.636, 606.233 800.614 C 609.667 801.081, 611.037 800.771, 613.250 799.025 C 616.463 796.489, 616.930 792.148, 614.250 789.733 C 611.268 787.046, 593.694 777, 591.976 777 C 591.081 777, 589.370 778.042, 588.174 779.314 M 337.656 782.141 C 336.642 782.726, 335.180 784.719, 334.406 786.570 C 331.547 793.413, 333.338 802.538, 338.566 807.766 C 341.387 810.587, 342.531 811.075, 345.713 810.813 C 348.703 810.566, 349.564 810.048, 349.806 808.353 C 350.163 805.853, 345.390 783.960, 344.263 782.925 C 342.707 781.497, 339.444 781.109, 337.656 782.141 M 786.670 784.750 C 785.375 786.813, 783.784 789.503, 783.134 790.728 C 782.485 791.953, 778.567 795.460, 774.429 798.520 C 770.291 801.581, 766.651 804.746, 766.340 805.555 C 765.538 807.647, 767.822 810, 770.655 810 C 776.103 810, 779.850 807.227, 786.433 798.326 C 793.739 788.444, 795.257 784.392, 792.427 782.323 C 789.787 780.393, 789.269 780.611, 786.670 784.750 M 474.011 794.487 C 470.236 799.035, 480.002 810, 487.828 810 C 490.896 810, 493.601 807.781, 492.568 806.111 C 491.660 804.641, 477.005 793, 476.063 793 C 475.613 793, 474.690 793.669, 474.011 794.487 M 622.689 797.791 C 619.707 801.086, 620.560 804.923, 625.275 809.421 C 633.945 817.692, 647.507 819.528, 651.048 812.910 C 652.921 809.411, 649.734 806.217, 639.656 801.490 C 627.944 795.996, 624.911 795.335, 622.689 797.791 M 748.419 811.950 C 743.974 813.489, 739.362 815.271, 738.169 815.910 C 733.725 818.288, 736.941 824, 742.723 824 C 746.589 824, 757.775 820.570, 760.750 818.473 C 763.534 816.510, 763.631 813.631, 761 811 C 758.514 808.514, 758.289 808.531, 748.419 811.950 M 658.496 813.365 C 655.733 817.583, 659.322 822.926, 666.684 825.551 C 673.997 828.160, 688.080 827.044, 690.214 823.687 C 691.639 821.447, 691.001 818.071, 688.944 816.970 C 686.318 815.565, 666.370 811.021, 662.773 811.009 C 661.003 811.003, 659.503 811.830, 658.496 813.365 M 499.667 812.667 C 496.203 816.130, 506.760 825, 514.345 825 C 517.217 825, 519.459 822.638, 518.632 820.483 C 517.992 818.815, 504.586 812, 501.945 812 C 501.059 812, 500.033 812.300, 499.667 812.667 M 705.525 817.744 C 697.024 818.400, 695.642 821.723, 701.670 827.015 C 705.253 830.161, 705.522 830.227, 713.020 829.793 C 721.733 829.288, 727.581 826.517, 728.613 822.404 C 729.934 817.142, 725.345 816.215, 705.525 817.744 M 344.516 822.335 C 340.410 828.601, 341.940 838.750, 347.940 845.058 C 353.374 850.770, 358.459 851.391, 361.416 846.702 C 362.606 844.816, 359.789 835.465, 355.179 826 C 352.855 821.229, 352.077 820.459, 349.312 820.191 C 346.834 819.951, 345.765 820.429, 344.516 822.335 M 525.362 822.500 C 523.776 826.631, 528.409 829.265, 536.436 828.796 C 541.092 828.524, 541.500 828.299, 541.500 826 C 541.500 824.037, 540.748 823.244, 538 822.306 C 532.879 820.560, 526.066 820.664, 525.362 822.500 M 550.250 823.031 C 547.899 823.976, 547.596 824.785, 548.607 827.418 C 549.335 829.314, 556.051 829.575, 560.872 827.895 C 563.604 826.942, 566 824.453, 566 822.566 C 566 821.651, 552.707 822.043, 550.250 823.031 M 360.366 858.565 C 356.724 864.123, 359.524 874.897, 366.033 880.374 C 371.890 885.303, 380.989 883.094, 379.494 877.106 C 379.136 875.673, 376.375 870.788, 373.359 866.252 C 366.218 855.511, 363.443 853.869, 360.366 858.565 M 381.927 890.588 C 378.558 894.647, 382.523 904.989, 389.723 910.923 C 395.609 915.775, 402.738 916.227, 405.056 911.895 C 406.730 908.767, 405.372 906.450, 396.591 897.448 C 388.011 888.654, 384.785 887.144, 381.927 890.588 M 608.387 901.750 C 607.475 903.263, 604.315 908.151, 601.364 912.612 C 598.414 917.074, 596 921.189, 596 921.755 C 596 922.322, 596.788 923.092, 597.750 923.467 C 599.001 923.954, 600.375 923.141, 602.572 920.614 C 608.502 913.790, 614.285 899, 611.023 899 C 610.486 899, 609.300 900.237, 608.387 901.750 M 412.389 917.980 C 411.228 918.449, 410.033 919.472, 409.733 920.254 C 407.645 925.695, 423.900 940, 432.170 940 C 433.566 940, 435.947 938.852, 437.462 937.448 C 440.163 934.944, 440.180 934.856, 438.358 932.829 C 436.443 930.698, 416.158 916.950, 415.096 917.063 C 414.768 917.098, 413.550 917.511, 412.389 917.980 M 585.887 929.279 C 583.900 931.051, 580.576 933.955, 578.500 935.732 C 575.333 938.445, 574.929 939.209, 575.985 940.482 C 577.648 942.486, 579.302 942.397, 583.887 940.058 C 588.376 937.767, 591.185 933.883, 591.368 929.711 C 591.549 925.601, 590.137 925.490, 585.887 929.279 M 445.667 939.667 C 445.300 940.033, 445 941.653, 445 943.265 C 445 947.151, 449.491 951.292, 456.586 953.946 C 463.440 956.511, 469.054 956.587, 472.056 954.156 C 476.317 950.705, 472.691 947.382, 458.782 941.991 C 451.249 939.071, 447.013 938.321, 445.667 939.667 M 559.581 945.468 C 550.614 949.398, 549.493 950.237, 550.324 952.403 C 551.104 954.435, 555.163 955.380, 559.566 954.554 C 564.155 953.693, 571.207 947.444, 570.799 944.600 C 570.352 941.489, 568.298 941.648, 559.581 945.468 M 481.361 952.502 C 480.263 955.363, 482.013 958.845, 485.692 961.119 C 488.581 962.904, 491.254 963.490, 497.944 963.804 C 505.568 964.162, 506.800 963.969, 509.250 962.030 C 515.123 957.384, 511.599 955.097, 494.720 952.597 C 481.604 950.654, 482.069 950.657, 481.361 952.502 M 528.500 953.148 C 524.100 953.635, 519.938 954.237, 519.250 954.486 C 517.361 955.168, 517.749 958.411, 520.073 961.365 C 521.794 963.553, 522.953 964, 526.914 964 C 532.655 964, 540.477 961.783, 543.095 959.414 C 545.407 957.322, 545.591 953.441, 543.418 952.607 C 541.535 951.884, 539.111 951.972, 528.500 953.148" stroke="none" fill-rule="evenodd"/></svg>
