<svg
  xmlns="http://www.w3.org/2000/svg"
  viewBox="0 0 876 328"
  version="1.1"
  stroke="none"
  fill="currentColor"
  fill-rule="evenodd"
>
  <path d="M 44.835 48.699 C 44.093 49.593, 44.953 52.634, 47.874 59.443 C 54.680 75.310, 59.184 93.580, 62.680 119.500 C 65.159 137.879, 65.198 199.508, 62.743 218.592 C 59.189 246.216, 53.296 270.044, 46.423 284.571 C 44.417 288.812, 43.971 290.729, 44.718 291.906 C 45.807 293.621, 45.385 293.606, 74.500 293.011 C 82.750 292.842, 94.675 293.032, 101 293.432 C 110.218 294.016, 112.874 293.879, 114.384 292.746 C 116.130 291.435, 116.155 291.117, 114.730 288.416 C 103.752 267.595, 96.851 241.879, 98.518 228 C 101.138 206.180, 116.680 187.126, 141.455 175.361 C 159.063 166.999, 170.491 171.146, 172.547 186.643 C 173.552 194.216, 171.497 204.223, 164.467 226 C 157.391 247.919, 154.995 258.237, 155.012 266.708 C 155.035 278.151, 160.212 290.602, 165.930 292.971 C 168.246 293.930, 171.415 293.977, 179.719 293.174 C 186.930 292.477, 194.308 292.453, 202 293.101 C 220.731 294.678, 222.317 293.778, 217.548 284.283 C 210.974 271.194, 204.458 244.623, 201.294 218.003 C 199.136 199.845, 198.812 144.190, 200.770 128 C 204.642 95.981, 209.642 74.567, 217.077 58.171 C 220.251 51.170, 220.693 48.434, 218.750 47.816 C 217.701 47.483, 154.033 47.550, 150.250 47.888 C 148.179 48.073, 148.803 50.710, 152.954 59.309 C 162.918 79.950, 167.671 102.442, 165.105 116.803 C 161.679 135.973, 147.216 153.226, 125.500 164.049 C 114.331 169.616, 107.630 170.894, 101.632 168.604 C 96.066 166.478, 93.303 162.869, 92.006 156.033 C 90.488 148.026, 92.452 137.582, 99.534 116 C 107.716 91.065, 108.967 85.542, 108.985 74.288 C 109.002 63.787, 106.673 55.904, 102.012 50.688 L 99.252 47.598 72.561 47.525 C 52.389 47.470, 45.617 47.757, 44.835 48.699 M 300.072 48.553 C 267.793 55.553, 241.629 88.984, 231.762 135.836 C 229.800 145.150, 229.516 149.475, 229.516 170 C 229.516 190.490, 229.801 194.845, 231.743 204 C 238.044 233.706, 249.468 256.694, 266.032 273 C 287.174 293.812, 312.665 299.070, 337.285 287.695 C 361.898 276.323, 381.192 249.541, 390.056 214.445 C 394.188 198.083, 395.302 188.424, 395.239 169.500 C 394.991 94.435, 350.315 37.657, 300.072 48.553 M 405.243 48.564 C 404.002 49.472, 404.241 50.600, 406.869 56.220 C 431.768 109.476, 432.056 229.207, 407.414 282.851 C 404.701 288.757, 404.248 290.595, 405.111 292.208 C 406.141 294.133, 406.767 294.182, 420.343 293.416 C 428.129 292.976, 444.625 292.815, 457 293.058 C 497.129 293.846, 518.719 293.413, 529 291.615 C 563.545 285.572, 575.423 271.536, 569.530 243.725 C 568.740 239.998, 565.987 230.548, 563.411 222.725 C 557.722 205.443, 556.714 196.342, 559.922 191.250 C 561.192 189.236, 562.832 187.963, 564.235 187.901 C 572.950 187.522, 573.277 187.063, 569.019 181.185 C 560.409 169.299, 544.098 164.809, 528.446 170.018 C 512.486 175.329, 502.262 189.743, 503.239 205.555 C 503.826 215.055, 506.838 221.223, 516.887 233.500 C 521.389 239, 526.288 245.973, 527.773 248.995 C 533.498 260.641, 530.065 272.145, 519 278.394 C 513.771 281.347, 512.959 281.500, 502.500 281.500 C 492.302 281.500, 491.075 281.285, 485.672 278.550 C 474.596 272.942, 464.537 258.872, 460.615 243.500 C 457.316 230.571, 455.855 214.458, 455.309 185 C 454.866 161.116, 455.076 152.930, 456.415 142 C 459.701 115.157, 465.361 94.241, 473.810 77.710 C 479.475 66.628, 486.487 59.086, 494.369 55.600 C 498.498 53.774, 500 52.578, 500 51.114 C 500 50.016, 499.438 48.769, 498.750 48.343 C 496.747 47.101, 406.953 47.314, 405.243 48.564 M 617 48.493 C 597.522 52.932, 583.794 66.480, 580.746 84.271 C 578.155 99.401, 587.569 116.380, 600.567 120.019 C 606.375 121.645, 616.570 120.884, 621.446 118.461 C 625.762 116.316, 627.247 114, 624.306 114 C 616.286 114, 611.537 99.503, 615.845 88.167 C 620.007 77.213, 626.988 70.316, 638 66.278 C 646.771 63.061, 652.028 62.748, 674.581 64.097 L 695.823 65.368 688.661 70.283 C 667.398 84.876, 640.951 109.306, 625.052 129.039 C 599.154 161.185, 584.718 192.902, 580.936 225.967 C 576.734 262.700, 591.550 288.587, 619.418 293.205 C 642.178 296.977, 666.989 280.792, 669.553 260.500 C 670.809 250.564, 666.896 237.423, 661.393 233.095 C 657.678 230.172, 654.600 230.272, 655.358 233.291 C 656.258 236.878, 652.751 241.695, 648.258 243.041 C 640.457 245.378, 631.989 240.859, 627.473 231.947 C 617.333 211.936, 626.986 183.875, 646.238 177.398 C 664.633 171.210, 683.528 181.066, 693.999 202.310 C 701.240 217, 702.599 229.560, 698.565 244.500 C 692.398 267.337, 684.325 279.881, 672.172 285.512 C 666.778 288.011, 665.891 289.748, 668.618 292.475 C 670.037 293.894, 672.412 294.016, 687.868 293.467 C 697.566 293.122, 706.125 292.641, 706.888 292.398 C 707.652 292.155, 718.294 292.456, 730.537 293.067 C 754.077 294.242, 757 293.906, 757 290.024 C 757 288.976, 756.603 287.873, 756.118 287.573 C 754.813 286.766, 749.419 272.760, 746.573 262.788 C 739.933 239.522, 736.977 215.574, 736.290 179.500 C 735.605 143.532, 737.414 120.548, 743.120 92.746 C 745.459 81.352, 750.779 64.458, 754.516 56.558 C 758.156 48.863, 757.408 46.998, 750.683 47.006 C 747.832 47.010, 738.075 47.907, 729 49 C 709.336 51.369, 690.074 51.517, 669.500 49.457 C 646.174 47.122, 624.741 46.728, 617 48.493 M 765.209 48.897 C 764.914 49.666, 765.260 51.691, 765.979 53.397 C 770.055 63.084, 773.340 74.607, 776.434 90.076 C 782.735 121.584, 789.238 172.858, 792.530 217 C 793.412 228.825, 794.337 239.512, 794.586 240.750 C 794.989 242.754, 795.636 243, 800.500 243 C 806.927 243, 806.596 243.712, 807.495 228 C 809.335 195.846, 815.684 139.267, 821.022 107.451 C 824.673 85.697, 829.970 64.054, 833.438 56.722 C 836.001 51.306, 836.660 48.092, 835.250 47.895 C 834.837 47.838, 819.030 47.725, 800.123 47.645 C 771.511 47.524, 765.655 47.734, 765.209 48.897 M 718.500 65.329 C 681.441 85.611, 649.103 120.990, 633.434 158.394 C 631.105 163.953, 628.881 169.573, 628.490 170.885 L 627.780 173.270 631.140 170.753 C 643.169 161.743, 662.716 158.325, 678.408 162.489 C 686.050 164.517, 696.803 170.194, 702.500 175.209 L 707 179.170 707.017 140.335 C 707.031 110.755, 707.371 99.912, 708.447 94.837 C 710.152 86.791, 715.424 75.138, 720.134 69 C 723.838 64.174, 725.304 61.986, 724.809 62.023 C 724.639 62.035, 721.800 63.523, 718.500 65.329 M 282.500 72.944 C 273.172 75.147, 266.340 84.483, 262.334 100.500 C 260.993 105.863, 260.590 111.592, 260.611 125 C 260.640 144.079, 261.857 153.055, 267.122 173 C 280.880 225.123, 312.502 268, 337.184 268 C 343.895 268, 347.134 266.619, 351.645 261.835 C 359.461 253.545, 362.957 241.832, 363.682 221.500 C 365.349 174.751, 344.289 116.859, 315.080 87.898 C 303.183 76.101, 291.615 70.792, 282.500 72.944 M 792 250.594 C 786.991 252.764, 783.102 256.750, 780.383 262.500 C 773.358 277.361, 783.802 293.410, 800.500 293.410 C 813.475 293.410, 822.268 284.372, 822.303 271 C 822.342 255.615, 805.928 244.561, 792 250.594" />
</svg>
